<?xml version="1.0" encoding="UTF-8" standalone="no"?>
<svg
   xmlns:dc="http://purl.org/dc/elements/1.1/"
   xmlns:cc="http://creativecommons.org/ns#"
   xmlns:rdf="http://www.w3.org/1999/02/22-rdf-syntax-ns#"
   xmlns:svg="http://www.w3.org/2000/svg"
   xmlns="http://www.w3.org/2000/svg"
   viewBox="0 0 643.65869 301.02667"
   height="301.02667"
   width="643.65869"
   xml:space="preserve"
   id="svg2"
   version="1.1"><metadata
     id="metadata8"><rdf:RDF><cc:Work
         rdf:about=""><dc:format>image/svg+xml</dc:format><dc:type
           rdf:resource="http://purl.org/dc/dcmitype/StillImage" /></cc:Work></rdf:RDF></metadata><defs
     id="defs6"><clipPath
       id="clipPath50"
       clipPathUnits="userSpaceOnUse"><path
         id="path48"
         d="M 0,-141.73878 H 295.32863 V 323.6809 H 0" /></clipPath><clipPath
       id="clipPath62"
       clipPathUnits="userSpaceOnUse"><path
         id="path60"
         d="m -141.73282,0 v 181.9421 h 578.7943 V 0" /></clipPath><clipPath
       id="clipPath390"
       clipPathUnits="userSpaceOnUse"><path
         id="path388"
         d="M 0,0 H 295.32863 V 181.9421 H 0 Z" /></clipPath></defs><g
     transform="matrix(1.3333333,0,0,-1.3333333,0,301.02667)"
     id="g10"><g
       transform="translate(28.625,30.064)"
       id="g12"><g
         id="g14"><g
           id="g16"><g
             id="g18" /><g
             id="g20" /><g
             id="g22"><g
               id="g24" /></g><g
             id="g26" /><g
             id="g28" /><g
             id="g30" /><g
             id="g32" /><g
             transform="translate(-28.625,-30.064)"
             id="g34"><g
               transform="translate(28.625,30.064)"
               id="g36"><g
                 id="g38"><g
                   id="g40"><g
                     id="g42"><g
                       id="g44"><g
                         clip-path="url(#clipPath50)"
                         id="g46"><g
                           id="g52"><path
                             id="path54"
                             style="fill:none;stroke:#808080;stroke-width:0.19925;stroke-linecap:butt;stroke-linejoin:miter;stroke-miterlimit:10;stroke-dasharray:none;stroke-opacity:1"
                             d="M 0,0 V 4.25197 M 26.8479,0 V 4.25197 M 53.69582,0 V 4.25197 M 80.54372,0 V 4.25197 M 107.39163,0 V 4.25197 M 134.23955,0 V 4.25197 M 161.08745,0 V 4.25197 M 187.93536,0 V 4.25197 M 214.78328,0 V 4.25197 M 241.63118,0 V 4.25197 M 268.4791,0 V 4.25197 M 295.327,0 V 4.25197 M 0,181.9421 v -4.25199 m 26.8479,4.25199 v -4.25199 m 26.84792,4.25199 v -4.25199 m 26.8479,4.25199 v -4.25199 m 26.84791,4.25199 v -4.25199 m 26.84792,4.25199 v -4.25199 m 26.8479,4.25199 v -4.25199 m 26.84791,4.25199 v -4.25199 m 26.84792,4.25199 v -4.25199 m 26.8479,4.25199 v -4.25199 m 26.84792,4.25199 v -4.25199 m 26.8479,4.25199 v -4.25199" /></g></g></g><g
                       id="g56"><g
                         clip-path="url(#clipPath62)"
                         id="g58"><g
                           id="g64"><path
                             id="path66"
                             style="fill:none;stroke:#808080;stroke-width:0.19925;stroke-linecap:butt;stroke-linejoin:miter;stroke-miterlimit:10;stroke-dasharray:none;stroke-opacity:1"
                             d="M 0,0 H 4.25175 M 0,35.7064 H 4.25175 M 0,71.41281 H 4.25175 M 0,107.11922 H 4.25175 M 0,142.82562 H 4.25175 M 0,178.53203 H 4.25175 M 295.32863,0 h -4.25177 m 4.25177,35.7064 h -4.25177 m 4.25177,35.70641 h -4.25177 m 4.25177,35.70641 h -4.25177 m 4.25177,35.7064 h -4.25177 m 4.25177,35.70641 h -4.25177" /></g></g></g><path
                       id="path68"
                       style="fill:none;stroke:#000000;stroke-width:0.3985;stroke-linecap:butt;stroke-linejoin:miter;stroke-miterlimit:10;stroke-dasharray:none;stroke-opacity:1"
                       d="M 0,0 V 181.9421 H 295.32863 V 0 Z" /><g
                       id="g70"><g
                         transform="translate(-2.491,-9.941)"
                         id="g72"><g
                           id="g74"><g
                             transform="translate(-26.134,-20.123)"
                             id="g76"><text
                               id="text80"
                               style="font-variant:normal;font-weight:normal;font-size:9.96259975px;font-family:CMR10;-inkscape-font-specification:CMR10;writing-mode:lr-tb;fill:#000000;fill-opacity:1;fill-rule:nonzero;stroke:none"
                               transform="matrix(1,0,0,-1,26.134,20.123)"><tspan
                                 id="tspan78"
                                 y="0"
                                 x="0">0</tspan></text>
<g
                               transform="translate(26.134,20.123)"
                               id="g82" /></g></g><g
                           transform="translate(2.491,9.941)"
                           id="g84" /></g></g><g
                       id="g86"><g
                         transform="translate(24.356,-9.941)"
                         id="g88"><g
                           id="g90"><g
                             transform="translate(-52.981,-20.123)"
                             id="g92"><text
                               id="text96"
                               style="font-variant:normal;font-weight:normal;font-size:9.96259975px;font-family:CMR10;-inkscape-font-specification:CMR10;writing-mode:lr-tb;fill:#000000;fill-opacity:1;fill-rule:nonzero;stroke:none"
                               transform="matrix(1,0,0,-1,52.981,20.123)"><tspan
                                 id="tspan94"
                                 y="0"
                                 x="0">1</tspan></text>
<g
                               transform="translate(52.981,20.123)"
                               id="g98" /></g></g><g
                           transform="translate(-24.356,9.941)"
                           id="g100" /></g></g><g
                       id="g102"><g
                         transform="translate(51.204,-9.941)"
                         id="g104"><g
                           id="g106"><g
                             transform="translate(-79.829,-20.123)"
                             id="g108"><text
                               id="text112"
                               style="font-variant:normal;font-weight:normal;font-size:9.96259975px;font-family:CMR10;-inkscape-font-specification:CMR10;writing-mode:lr-tb;fill:#000000;fill-opacity:1;fill-rule:nonzero;stroke:none"
                               transform="matrix(1,0,0,-1,79.829,20.123)"><tspan
                                 id="tspan110"
                                 y="0"
                                 x="0">2</tspan></text>
<g
                               transform="translate(79.829,20.123)"
                               id="g114" /></g></g><g
                           transform="translate(-51.204,9.941)"
                           id="g116" /></g></g><g
                       id="g118"><g
                         transform="translate(78.052,-9.941)"
                         id="g120"><g
                           id="g122"><g
                             transform="translate(-106.677,-20.123)"
                             id="g124"><text
                               id="text128"
                               style="font-variant:normal;font-weight:normal;font-size:9.96259975px;font-family:CMR10;-inkscape-font-specification:CMR10;writing-mode:lr-tb;fill:#000000;fill-opacity:1;fill-rule:nonzero;stroke:none"
                               transform="matrix(1,0,0,-1,106.677,20.123)"><tspan
                                 id="tspan126"
                                 y="0"
                                 x="0">3</tspan></text>
<g
                               transform="translate(106.677,20.123)"
                               id="g130" /></g></g><g
                           transform="translate(-78.052,9.941)"
                           id="g132" /></g></g><g
                       id="g134"><g
                         transform="translate(104.899,-9.941)"
                         id="g136"><g
                           id="g138"><g
                             transform="translate(-133.524,-20.123)"
                             id="g140"><text
                               id="text144"
                               style="font-variant:normal;font-weight:normal;font-size:9.96259975px;font-family:CMR10;-inkscape-font-specification:CMR10;writing-mode:lr-tb;fill:#000000;fill-opacity:1;fill-rule:nonzero;stroke:none"
                               transform="matrix(1,0,0,-1,133.524,20.123)"><tspan
                                 id="tspan142"
                                 y="0"
                                 x="0">4</tspan></text>
<g
                               transform="translate(133.524,20.123)"
                               id="g146" /></g></g><g
                           transform="translate(-104.899,9.941)"
                           id="g148" /></g></g><g
                       id="g150"><g
                         transform="translate(131.747,-9.941)"
                         id="g152"><g
                           id="g154"><g
                             transform="translate(-160.372,-20.123)"
                             id="g156"><text
                               id="text160"
                               style="font-variant:normal;font-weight:normal;font-size:9.96259975px;font-family:CMR10;-inkscape-font-specification:CMR10;writing-mode:lr-tb;fill:#000000;fill-opacity:1;fill-rule:nonzero;stroke:none"
                               transform="matrix(1,0,0,-1,160.372,20.123)"><tspan
                                 id="tspan158"
                                 y="0"
                                 x="0">5</tspan></text>
<g
                               transform="translate(160.372,20.123)"
                               id="g162" /></g></g><g
                           transform="translate(-131.747,9.941)"
                           id="g164" /></g></g><g
                       id="g166"><g
                         transform="translate(158.594,-9.941)"
                         id="g168"><g
                           id="g170"><g
                             transform="translate(-187.219,-20.123)"
                             id="g172"><text
                               id="text176"
                               style="font-variant:normal;font-weight:normal;font-size:9.96259975px;font-family:CMR10;-inkscape-font-specification:CMR10;writing-mode:lr-tb;fill:#000000;fill-opacity:1;fill-rule:nonzero;stroke:none"
                               transform="matrix(1,0,0,-1,187.219,20.123)"><tspan
                                 id="tspan174"
                                 y="0"
                                 x="0">6</tspan></text>
<g
                               transform="translate(187.219,20.123)"
                               id="g178" /></g></g><g
                           transform="translate(-158.594,9.941)"
                           id="g180" /></g></g><g
                       id="g182"><g
                         transform="translate(185.442,-9.941)"
                         id="g184"><g
                           id="g186"><g
                             transform="translate(-214.067,-20.123)"
                             id="g188"><text
                               id="text192"
                               style="font-variant:normal;font-weight:normal;font-size:9.96259975px;font-family:CMR10;-inkscape-font-specification:CMR10;writing-mode:lr-tb;fill:#000000;fill-opacity:1;fill-rule:nonzero;stroke:none"
                               transform="matrix(1,0,0,-1,214.067,20.123)"><tspan
                                 id="tspan190"
                                 y="0"
                                 x="0">7</tspan></text>
<g
                               transform="translate(214.067,20.123)"
                               id="g194" /></g></g><g
                           transform="translate(-185.442,9.941)"
                           id="g196" /></g></g><g
                       id="g198"><g
                         transform="translate(212.289,-9.941)"
                         id="g200"><g
                           id="g202"><g
                             transform="translate(-240.914,-20.123)"
                             id="g204"><text
                               id="text208"
                               style="font-variant:normal;font-weight:normal;font-size:9.96259975px;font-family:CMR10;-inkscape-font-specification:CMR10;writing-mode:lr-tb;fill:#000000;fill-opacity:1;fill-rule:nonzero;stroke:none"
                               transform="matrix(1,0,0,-1,240.914,20.123)"><tspan
                                 id="tspan206"
                                 y="0"
                                 x="0">8</tspan></text>
<g
                               transform="translate(240.914,20.123)"
                               id="g210" /></g></g><g
                           transform="translate(-212.289,9.941)"
                           id="g212" /></g></g><g
                       id="g214"><g
                         transform="translate(239.137,-9.941)"
                         id="g216"><g
                           id="g218"><g
                             transform="translate(-267.762,-20.123)"
                             id="g220"><text
                               id="text224"
                               style="font-variant:normal;font-weight:normal;font-size:9.96259975px;font-family:CMR10;-inkscape-font-specification:CMR10;writing-mode:lr-tb;fill:#000000;fill-opacity:1;fill-rule:nonzero;stroke:none"
                               transform="matrix(1,0,0,-1,267.762,20.123)"><tspan
                                 id="tspan222"
                                 y="0"
                                 x="0">9</tspan></text>
<g
                               transform="translate(267.762,20.123)"
                               id="g226" /></g></g><g
                           transform="translate(-239.137,9.941)"
                           id="g228" /></g></g><g
                       id="g230"><g
                         transform="translate(263.494,-9.941)"
                         id="g232"><g
                           id="g234"><g
                             transform="translate(-292.119,-20.123)"
                             id="g236"><text
                               id="text240"
                               style="font-variant:normal;font-weight:normal;font-size:9.96259975px;font-family:CMR10;-inkscape-font-specification:CMR10;writing-mode:lr-tb;fill:#000000;fill-opacity:1;fill-rule:nonzero;stroke:none"
                               transform="matrix(1,0,0,-1,292.119,20.123)"><tspan
                                 id="tspan238"
                                 y="0"
                                 x="0 4.9812999">10</tspan></text>
<g
                               transform="translate(292.119,20.123)"
                               id="g242" /></g></g><g
                           transform="translate(-263.494,9.941)"
                           id="g244" /></g></g><g
                       id="g246"><g
                         transform="translate(290.341,-9.941)"
                         id="g248"><g
                           id="g250"><g
                             transform="translate(-318.966,-20.123)"
                             id="g252"><text
                               id="text256"
                               style="font-variant:normal;font-weight:normal;font-size:9.96259975px;font-family:CMR10;-inkscape-font-specification:CMR10;writing-mode:lr-tb;fill:#000000;fill-opacity:1;fill-rule:nonzero;stroke:none"
                               transform="matrix(1,0,0,-1,318.966,20.123)"><tspan
                                 id="tspan254"
                                 y="0"
                                 x="0 4.9812999">11</tspan></text>
<g
                               transform="translate(318.966,20.123)"
                               id="g258" /></g></g><g
                           transform="translate(-290.341,9.941)"
                           id="g260" /></g></g><g
                       id="g262"><g
                         transform="translate(-8.502,-3.211)"
                         id="g264"><g
                           id="g266"><g
                             transform="translate(-20.123,-26.853)"
                             id="g268"><text
                               id="text272"
                               style="font-variant:normal;font-weight:normal;font-size:9.96259975px;font-family:CMR10;-inkscape-font-specification:CMR10;writing-mode:lr-tb;fill:#000000;fill-opacity:1;fill-rule:nonzero;stroke:none"
                               transform="matrix(1,0,0,-1,20.123,26.853)"><tspan
                                 id="tspan270"
                                 y="0"
                                 x="0">0</tspan></text>
<g
                               transform="translate(20.123,26.853)"
                               id="g274" /></g></g><g
                           transform="translate(8.502,3.211)"
                           id="g276" /></g></g><g
                       id="g278"><g
                         transform="translate(-8.502,32.495)"
                         id="g280"><g
                           id="g282"><g
                             transform="translate(-20.123,-62.559)"
                             id="g284"><text
                               id="text288"
                               style="font-variant:normal;font-weight:normal;font-size:9.96259975px;font-family:CMR10;-inkscape-font-specification:CMR10;writing-mode:lr-tb;fill:#000000;fill-opacity:1;fill-rule:nonzero;stroke:none"
                               transform="matrix(1,0,0,-1,20.123,62.559)"><tspan
                                 id="tspan286"
                                 y="0"
                                 x="0">1</tspan></text>
<g
                               transform="translate(20.123,62.559)"
                               id="g290" /></g></g><g
                           transform="translate(8.502,-32.495)"
                           id="g292" /></g></g><g
                       id="g294"><g
                         transform="translate(-8.502,68.201)"
                         id="g296"><g
                           id="g298"><g
                             transform="translate(-20.123,-98.265)"
                             id="g300"><text
                               id="text304"
                               style="font-variant:normal;font-weight:normal;font-size:9.96259975px;font-family:CMR10;-inkscape-font-specification:CMR10;writing-mode:lr-tb;fill:#000000;fill-opacity:1;fill-rule:nonzero;stroke:none"
                               transform="matrix(1,0,0,-1,20.123,98.265)"><tspan
                                 id="tspan302"
                                 y="0"
                                 x="0">2</tspan></text>
<g
                               transform="translate(20.123,98.265)"
                               id="g306" /></g></g><g
                           transform="translate(8.502,-68.201)"
                           id="g308" /></g></g><g
                       id="g310"><g
                         transform="translate(-8.502,103.907)"
                         id="g312"><g
                           id="g314"><g
                             transform="translate(-20.123,-133.971)"
                             id="g316"><text
                               id="text320"
                               style="font-variant:normal;font-weight:normal;font-size:9.96259975px;font-family:CMR10;-inkscape-font-specification:CMR10;writing-mode:lr-tb;fill:#000000;fill-opacity:1;fill-rule:nonzero;stroke:none"
                               transform="matrix(1,0,0,-1,20.123,133.971)"><tspan
                                 id="tspan318"
                                 y="0"
                                 x="0">3</tspan></text>
<g
                               transform="translate(20.123,133.971)"
                               id="g322" /></g></g><g
                           transform="translate(8.502,-103.907)"
                           id="g324" /></g></g><g
                       id="g326"><g
                         transform="translate(-8.502,139.613)"
                         id="g328"><g
                           id="g330"><g
                             transform="translate(-20.123,-169.677)"
                             id="g332"><text
                               id="text336"
                               style="font-variant:normal;font-weight:normal;font-size:9.96259975px;font-family:CMR10;-inkscape-font-specification:CMR10;writing-mode:lr-tb;fill:#000000;fill-opacity:1;fill-rule:nonzero;stroke:none"
                               transform="matrix(1,0,0,-1,20.123,169.677)"><tspan
                                 id="tspan334"
                                 y="0"
                                 x="0">4</tspan></text>
<g
                               transform="translate(20.123,169.677)"
                               id="g338" /></g></g><g
                           transform="translate(8.502,-139.613)"
                           id="g340" /></g></g><g
                       id="g342"><g
                         transform="translate(-8.502,175.319)"
                         id="g344"><g
                           id="g346"><g
                             transform="translate(-20.123,-205.383)"
                             id="g348"><text
                               id="text352"
                               style="font-variant:normal;font-weight:normal;font-size:9.96259975px;font-family:CMR10;-inkscape-font-specification:CMR10;writing-mode:lr-tb;fill:#000000;fill-opacity:1;fill-rule:nonzero;stroke:none"
                               transform="matrix(1,0,0,-1,20.123,205.383)"><tspan
                                 id="tspan350"
                                 y="0"
                                 x="0">5</tspan></text>
<g
                               transform="translate(20.123,205.383)"
                               id="g354" /></g></g><g
                           transform="translate(8.502,-175.319)"
                           id="g356" /></g></g><g
                       id="g358"><g
                         transform="translate(3.188,187.597)"
                         id="g360"><g
                           id="g362"><g
                             transform="translate(-31.813,-217.661)"
                             id="g364"><text
                               id="text368"
                               style="font-variant:normal;font-weight:normal;font-size:9.96259975px;font-family:CMSY10;-inkscape-font-specification:CMSY10;writing-mode:lr-tb;fill:#000000;fill-opacity:1;fill-rule:nonzero;stroke:none"
                               transform="matrix(1,0,0,-1,31.813,217.661)"><tspan
                                 id="tspan366"
                                 y="0"
                                 x="0">·</tspan></text>
<text
                               id="text372"
                               style="font-variant:normal;font-weight:normal;font-size:9.96259975px;font-family:CMR10;-inkscape-font-specification:CMR10;writing-mode:lr-tb;fill:#000000;fill-opacity:1;fill-rule:nonzero;stroke:none"
                               transform="matrix(1,0,0,-1,34.58,217.661)"><tspan
                                 id="tspan370"
                                 y="0"
                                 x="0 4.9812999">10</tspan></text>
<text
                               id="text376"
                               style="font-variant:normal;font-weight:normal;font-size:6.97380018px;font-family:CMSY7;-inkscape-font-specification:CMSY7;writing-mode:lr-tb;fill:#000000;fill-opacity:1;fill-rule:nonzero;stroke:none"
                               transform="matrix(1,0,0,-1,44.543,221.276)"><tspan
                                 id="tspan374"
                                 y="0"
                                 x="0">−</tspan></text>
<text
                               id="text380"
                               style="font-variant:normal;font-weight:normal;font-size:6.97380018px;font-family:CMR7;-inkscape-font-specification:CMR7;writing-mode:lr-tb;fill:#000000;fill-opacity:1;fill-rule:nonzero;stroke:none"
                               transform="matrix(1,0,0,-1,50.769,221.276)"><tspan
                                 id="tspan378"
                                 y="0"
                                 x="0">3</tspan></text>
<g
                               transform="translate(31.813,217.661)"
                               id="g382" /></g></g><g
                           transform="translate(-3.188,-187.597)"
                           id="g384" /></g></g><g
                       clip-path="url(#clipPath390)"
                       id="g386" /></g><g
                     id="g392"><path
                       id="path394"
                       style="fill:#0000cc;fill-opacity:1;fill-rule:nonzero;stroke:#0000ff;stroke-width:0.3985;stroke-linecap:butt;stroke-linejoin:miter;stroke-miterlimit:10;stroke-dasharray:none;stroke-opacity:1"
                       d="m 28.84045,5.10036 c 0,1.10048 -0.89207,1.99255 -1.99255,1.99255 -1.10046,0 -1.99255,-0.89207 -1.99255,-1.99255 0,-1.10046 0.89209,-1.99256 1.99255,-1.99256 1.10048,0 1.99255,0.8921 1.99255,1.99256 z" /><path
                       id="path396"
                       style="fill:#0000cc;fill-opacity:1;fill-rule:nonzero;stroke:#0000ff;stroke-width:0.3985;stroke-linecap:butt;stroke-linejoin:miter;stroke-miterlimit:10;stroke-dasharray:none;stroke-opacity:1"
                       d="m 42.2644,5.55458 c 0,1.10048 -0.89207,1.99255 -1.99255,1.99255 -1.10046,0 -1.99255,-0.89207 -1.99255,-1.99255 0,-1.10046 0.89209,-1.99255 1.99255,-1.99255 1.10048,0 1.99255,0.89209 1.99255,1.99255 z" /><path
                       id="path398"
                       style="fill:#0000cc;fill-opacity:1;fill-rule:nonzero;stroke:#0000ff;stroke-width:0.3985;stroke-linecap:butt;stroke-linejoin:miter;stroke-miterlimit:10;stroke-dasharray:none;stroke-opacity:1"
                       d="m 55.68837,9.54045 c 0,1.10046 -0.89209,1.99255 -1.99255,1.99255 -1.10048,0 -1.99256,-0.89209 -1.99256,-1.99255 0,-1.10048 0.89208,-1.99255 1.99256,-1.99255 1.10046,0 1.99255,0.89207 1.99255,1.99255 z" /><path
                       id="path400"
                       style="fill:#0000cc;fill-opacity:1;fill-rule:nonzero;stroke:#0000ff;stroke-width:0.3985;stroke-linecap:butt;stroke-linejoin:miter;stroke-miterlimit:10;stroke-dasharray:none;stroke-opacity:1"
                       d="m 69.11232,15.46094 c 0,1.10046 -0.89207,1.99255 -1.99255,1.99255 -1.10047,0 -1.99256,-0.89209 -1.99256,-1.99255 0,-1.10048 0.89209,-1.99256 1.99256,-1.99256 1.10048,0 1.99255,0.89208 1.99255,1.99256 z" /><path
                       id="path402"
                       style="fill:#0000cc;fill-opacity:1;fill-rule:nonzero;stroke:#0000ff;stroke-width:0.3985;stroke-linecap:butt;stroke-linejoin:miter;stroke-miterlimit:10;stroke-dasharray:none;stroke-opacity:1"
                       d="m 82.53627,29.41534 c 0,1.10048 -0.89207,1.99256 -1.99255,1.99256 -1.10047,0 -1.99256,-0.89208 -1.99256,-1.99256 0,-1.10046 0.89209,-1.99255 1.99256,-1.99255 1.10048,0 1.99255,0.89209 1.99255,1.99255 z" /><path
                       id="path404"
                       style="fill:#0000cc;fill-opacity:1;fill-rule:nonzero;stroke:#0000ff;stroke-width:0.3985;stroke-linecap:butt;stroke-linejoin:miter;stroke-miterlimit:10;stroke-dasharray:none;stroke-opacity:1"
                       d="m 95.96024,20.29774 c 0,1.10048 -0.89209,1.99256 -1.99256,1.99256 -1.10048,0 -1.99255,-0.89208 -1.99255,-1.99256 0,-1.10046 0.89207,-1.99255 1.99255,-1.99255 1.10047,0 1.99256,0.89209 1.99256,1.99255 z" /><path
                       id="path406"
                       style="fill:#0000cc;fill-opacity:1;fill-rule:nonzero;stroke:#0000ff;stroke-width:0.3985;stroke-linecap:butt;stroke-linejoin:miter;stroke-miterlimit:10;stroke-dasharray:none;stroke-opacity:1"
                       d="m 109.38419,27.68181 c 0,1.10046 -0.89209,1.99255 -1.99256,1.99255 -1.10046,0 -1.99255,-0.89209 -1.99255,-1.99255 0,-1.10048 0.89209,-1.99256 1.99255,-1.99256 1.10047,0 1.99256,0.89208 1.99256,1.99256 z" /><path
                       id="path408"
                       style="fill:#0000cc;fill-opacity:1;fill-rule:nonzero;stroke:#0000ff;stroke-width:0.3985;stroke-linecap:butt;stroke-linejoin:miter;stroke-miterlimit:10;stroke-dasharray:none;stroke-opacity:1"
                       d="m 122.80814,40.20576 c 0,1.10047 -0.89208,1.99256 -1.99256,1.99256 -1.10046,0 -1.99255,-0.89209 -1.99255,-1.99256 0,-1.10047 0.89209,-1.99255 1.99255,-1.99255 1.10048,0 1.99256,0.89208 1.99256,1.99255 z" /><path
                       id="path410"
                       style="fill:#0000cc;fill-opacity:1;fill-rule:nonzero;stroke:#0000ff;stroke-width:0.3985;stroke-linecap:butt;stroke-linejoin:miter;stroke-miterlimit:10;stroke-dasharray:none;stroke-opacity:1"
                       d="m 136.2321,40.8474 c 0,1.10048 -0.89209,1.99255 -1.99255,1.99255 -1.10048,0 -1.99255,-0.89207 -1.99255,-1.99255 0,-1.10047 0.89207,-1.99256 1.99255,-1.99256 1.10046,0 1.99255,0.89209 1.99255,1.99256 z" /><path
                       id="path412"
                       style="fill:#0000cc;fill-opacity:1;fill-rule:nonzero;stroke:#0000ff;stroke-width:0.3985;stroke-linecap:butt;stroke-linejoin:miter;stroke-miterlimit:10;stroke-dasharray:none;stroke-opacity:1"
                       d="m 149.65605,47.64375 c 0,1.10047 -0.89209,1.99255 -1.99255,1.99255 -1.10048,0 -1.99256,-0.89208 -1.99256,-1.99255 0,-1.10048 0.89208,-1.99255 1.99256,-1.99255 1.10046,0 1.99255,0.89207 1.99255,1.99255 z" /><path
                       id="path414"
                       style="fill:#0000cc;fill-opacity:1;fill-rule:nonzero;stroke:#0000ff;stroke-width:0.3985;stroke-linecap:butt;stroke-linejoin:miter;stroke-miterlimit:10;stroke-dasharray:none;stroke-opacity:1"
                       d="m 163.08,40.44356 c 0,1.10048 -0.89207,1.99255 -1.99255,1.99255 -1.10047,0 -1.99255,-0.89207 -1.99255,-1.99255 0,-1.10046 0.89208,-1.99256 1.99255,-1.99256 1.10048,0 1.99255,0.8921 1.99255,1.99256 z" /><path
                       id="path416"
                       style="fill:#0000cc;fill-opacity:1;fill-rule:nonzero;stroke:#0000ff;stroke-width:0.3985;stroke-linecap:butt;stroke-linejoin:miter;stroke-miterlimit:10;stroke-dasharray:none;stroke-opacity:1"
                       d="m 176.50397,64.44434 c 0,1.10048 -0.89209,1.99255 -1.99256,1.99255 -1.10048,0 -1.99255,-0.89207 -1.99255,-1.99255 0,-1.10047 0.89207,-1.99256 1.99255,-1.99256 1.10047,0 1.99256,0.89209 1.99256,1.99256 z" /><path
                       id="path418"
                       style="fill:#0000cc;fill-opacity:1;fill-rule:nonzero;stroke:#0000ff;stroke-width:0.3985;stroke-linecap:butt;stroke-linejoin:miter;stroke-miterlimit:10;stroke-dasharray:none;stroke-opacity:1"
                       d="m 189.92792,83.88754 c 0,1.10048 -0.89209,1.99256 -1.99256,1.99256 -1.10048,0 -1.99255,-0.89208 -1.99255,-1.99256 0,-1.10046 0.89207,-1.99255 1.99255,-1.99255 1.10047,0 1.99256,0.89209 1.99256,1.99255 z" /><path
                       id="path420"
                       style="fill:#0000cc;fill-opacity:1;fill-rule:nonzero;stroke:#0000ff;stroke-width:0.3985;stroke-linecap:butt;stroke-linejoin:miter;stroke-miterlimit:10;stroke-dasharray:none;stroke-opacity:1"
                       d="m 203.35187,95.8849 c 0,1.10048 -0.89207,1.99256 -1.99256,1.99256 -1.10046,0 -1.99255,-0.89208 -1.99255,-1.99256 0,-1.10046 0.89209,-1.99255 1.99255,-1.99255 1.10049,0 1.99256,0.89209 1.99256,1.99255 z" /><path
                       id="path422"
                       style="fill:#0000cc;fill-opacity:1;fill-rule:nonzero;stroke:#0000ff;stroke-width:0.3985;stroke-linecap:butt;stroke-linejoin:miter;stroke-miterlimit:10;stroke-dasharray:none;stroke-opacity:1"
                       d="m 216.77583,111.80675 c 0,1.10046 -0.89209,1.99255 -1.99255,1.99255 -1.10048,0 -1.99255,-0.89209 -1.99255,-1.99255 0,-1.10048 0.89207,-1.99255 1.99255,-1.99255 1.10046,0 1.99255,0.89207 1.99255,1.99255 z" /><path
                       id="path424"
                       style="fill:#0000cc;fill-opacity:1;fill-rule:nonzero;stroke:#0000ff;stroke-width:0.3985;stroke-linecap:butt;stroke-linejoin:miter;stroke-miterlimit:10;stroke-dasharray:none;stroke-opacity:1"
                       d="m 230.19978,121.49388 c 0,1.10048 -0.89208,1.99255 -1.99255,1.99255 -1.10048,0 -1.99255,-0.89207 -1.99255,-1.99255 0,-1.10046 0.89207,-1.99255 1.99255,-1.99255 1.10047,0 1.99255,0.89209 1.99255,1.99255 z" /><path
                       id="path426"
                       style="fill:#0000cc;fill-opacity:1;fill-rule:nonzero;stroke:#0000ff;stroke-width:0.3985;stroke-linecap:butt;stroke-linejoin:miter;stroke-miterlimit:10;stroke-dasharray:none;stroke-opacity:1"
                       d="m 243.62373,124.14795 c 0,1.10048 -0.89207,1.99255 -1.99255,1.99255 -1.10046,0 -1.99255,-0.89207 -1.99255,-1.99255 0,-1.10046 0.89209,-1.99255 1.99255,-1.99255 1.10048,0 1.99255,0.89209 1.99255,1.99255 z" /><path
                       id="path428"
                       style="fill:#0000cc;fill-opacity:1;fill-rule:nonzero;stroke:#0000ff;stroke-width:0.3985;stroke-linecap:butt;stroke-linejoin:miter;stroke-miterlimit:10;stroke-dasharray:none;stroke-opacity:1"
                       d="m 257.04768,141.05779 c 0,1.10046 -0.89207,1.99255 -1.99255,1.99255 -1.10046,0 -1.99255,-0.89209 -1.99255,-1.99255 0,-1.10049 0.89209,-1.99256 1.99255,-1.99256 1.10048,0 1.99255,0.89207 1.99255,1.99256 z" /><path
                       id="path430"
                       style="fill:#0000cc;fill-opacity:1;fill-rule:nonzero;stroke:#0000ff;stroke-width:0.3985;stroke-linecap:butt;stroke-linejoin:miter;stroke-miterlimit:10;stroke-dasharray:none;stroke-opacity:1"
                       d="m 270.47165,165.40099 c 0,1.10046 -0.89209,1.99255 -1.99255,1.99255 -1.10048,0 -1.99256,-0.89209 -1.99256,-1.99255 0,-1.10049 0.89208,-1.99256 1.99256,-1.99256 1.10046,0 1.99255,0.89207 1.99255,1.99256 z" /></g><g
                     id="g432"><g
                       transform="translate(101.432,-24.253)"
                       id="g434"><g
                         id="g436"><g
                           transform="translate(-130.057,-5.811)"
                           id="g438"><text
                             id="text442"
                             style="font-variant:normal;font-weight:normal;font-size:9.96259975px;font-family:CMR10;-inkscape-font-specification:CMR10;writing-mode:lr-tb;fill:#000000;fill-opacity:1;fill-rule:nonzero;stroke:none"
                             transform="matrix(1,0,0,-1,130.057,5.811)"><tspan
                               id="tspan440"
                               y="0"
                               x="0 7.6104302 10.37804 15.359341 18.126951 22.001406 29.248201 33.122658 35.890266 44.752995 48.627449 54.16267 59.14397 64.679192 68.608444 73.589745 79.124962 84.660179 88.589432">Digits(inthousands)</tspan></text>
<g
                             transform="translate(130.057,5.811)"
                             id="g444" /></g></g><g
                         transform="translate(-101.432,24.253)"
                         id="g446" /></g></g><g
                     id="g448"><g
                       transform="rotate(90,-44.978,27.145)"
                       id="g450"><g
                         id="g452"><g
                           transform="translate(-10.792,-102.187)"
                           id="g454"><text
                             id="text458"
                             style="font-variant:normal;font-weight:normal;font-size:9.96259975px;font-family:CMR10;-inkscape-font-specification:CMR10;writing-mode:lr-tb;fill:#000000;fill-opacity:1;fill-rule:nonzero;stroke:none"
                             transform="matrix(1,0,0,-1,10.792,102.187)"><tspan
                               id="tspan456"
                               y="0"
                               x="0 7.1949897 9.9625998 18.264435 26.009359 29.883816 33.823029">Time(s)</tspan></text>
<g
                             transform="translate(10.792,102.187)"
                             id="g460" /></g></g><g
                         transform="translate(17.833,-72.123)"
                         id="g462" /></g></g><g
                     id="g464"><g
                       id="g466"><path
                         id="path468"
                         style="fill:#ffffff;fill-opacity:1;fill-rule:nonzero;stroke:#000000;stroke-width:0.3985;stroke-linecap:butt;stroke-linejoin:miter;stroke-miterlimit:10;stroke-dasharray:none;stroke-opacity:1"
                         d="m 304.38736,164.8062 h 149.5386 v 16.93665 h -149.5386 z" /></g><g
                       transform="translate(307.372,173.272)"
                       id="g470"><g
                         transform="translate(-6.512)"
                         id="g472"><g
                           id="g474"><g
                             id="g476"><g
                               id="g478"><path
                                 id="path480"
                                 style="fill:#0000cc;fill-opacity:1;fill-rule:nonzero;stroke:#0000ff;stroke-width:0.3985;stroke-linecap:butt;stroke-linejoin:miter;stroke-miterlimit:10;stroke-dasharray:none;stroke-opacity:1"
                                 d="m 10.49667,0 c 0,1.10046 -0.89209,1.99255 -1.99255,1.99255 C 7.40364,1.99255 6.51157,1.10046 6.51157,0 c 0,-1.10046 0.89207,-1.99255 1.99255,-1.99255 1.10046,0 1.99255,0.89209 1.99255,1.99255 z" /></g></g></g><g
                           transform="translate(80.284)"
                           id="g482"><g
                             id="g484"><g
                               id="g486"><g
                                 transform="translate(-67.795,-2.989)"
                                 id="g488"><g
                                   id="g490"><g
                                   transform="translate(-341.974,-200.347)"
                                   id="g492"><text
                                   id="text496"
                                   style="font-variant:normal;font-weight:normal;font-size:9.96259975px;font-family:CMR10;-inkscape-font-specification:CMR10;writing-mode:lr-tb;fill:#000000;fill-opacity:1;fill-rule:nonzero;stroke:none"
                                   transform="matrix(1,0,0,-1,341.974,200.347)"><tspan
                                   id="tspan494"
                                   y="0"
                                   x="0 7.8176522 12.798952 18.334173 22.263422 26.192671 29.513206 35.73983 40.16721 45.14851 49.57589 55.111111 60.646332 64.548683 72.303566 76.178024 82.948608 85.716217 89.036751 94.571976 100.10719 102.8748 107.30219 112.28349 116.21273 121.74796 126.17533 131.71056">Gauss-Legendre(Pi-unleashed)</tspan></text>
<g
                                   transform="translate(341.974,200.347)"
                                   id="g498" /></g></g><g
                                   transform="translate(67.795,2.989)"
                                   id="g500" /></g></g></g><g
                             transform="translate(-73.772)"
                             id="g502" /></g></g><g
                         transform="translate(-307.372,-173.272)"
                         id="g504" /></g></g></g></g><g
                 transform="translate(-28.625,-30.064)"
                 id="g506" /></g><g
               transform="translate(28.625,30.064)"
               id="g508" /></g><g
             id="g510" /><g
             id="g512" /></g></g></g></g></svg>