<?xml version="1.0" encoding="UTF-8" standalone="no"?>
<svg
   xmlns:dc="http://purl.org/dc/elements/1.1/"
   xmlns:cc="http://creativecommons.org/ns#"
   xmlns:rdf="http://www.w3.org/1999/02/22-rdf-syntax-ns#"
   xmlns:svg="http://www.w3.org/2000/svg"
   xmlns="http://www.w3.org/2000/svg"
   viewBox="0 0 680.7973 288.008"
   height="288.008"
   width="680.7973"
   xml:space="preserve"
   id="svg2"
   version="1.1"><metadata
     id="metadata8"><rdf:RDF><cc:Work
         rdf:about=""><dc:format>image/svg+xml</dc:format><dc:type
           rdf:resource="http://purl.org/dc/dcmitype/StillImage" /></cc:Work></rdf:RDF></metadata><defs
     id="defs6"><clipPath
       id="clipPath50"
       clipPathUnits="userSpaceOnUse"><path
         id="path48"
         d="M 0,-141.73853 H 295.32863 V 323.68518 H 0" /></clipPath><clipPath
       id="clipPath62"
       clipPathUnits="userSpaceOnUse"><path
         id="path60"
         d="m -141.73282,0 v 181.94664 h 578.7943 V 0" /></clipPath><clipPath
       id="clipPath434"
       clipPathUnits="userSpaceOnUse"><path
         id="path432"
         d="M 0,0 H 295.32863 V 181.94664 H 0 Z" /></clipPath></defs><g
     transform="matrix(1.3333333,0,0,-1.3333333,0,288.008)"
     id="g10"><g
       transform="translate(56.478,30.064)"
       id="g12"><g
         id="g14"><g
           id="g16"><g
             id="g18" /><g
             id="g20" /><g
             id="g22"><g
               id="g24" /></g><g
             id="g26" /><g
             id="g28" /><g
             id="g30" /><g
             id="g32" /><g
             transform="translate(-56.478,-30.064)"
             id="g34"><g
               transform="translate(56.478,30.064)"
               id="g36"><g
                 id="g38"><g
                   id="g40"><g
                     id="g42"><g
                       id="g44"><g
                         clip-path="url(#clipPath50)"
                         id="g46"><g
                           id="g52"><path
                             id="path54"
                             style="fill:none;stroke:#808080;stroke-width:0.19925;stroke-linecap:butt;stroke-linejoin:miter;stroke-miterlimit:10;stroke-dasharray:none;stroke-opacity:1"
                             d="M 0,0 V 4.25195 M 26.8479,0 V 4.25195 M 53.69582,0 V 4.25195 M 80.54372,0 V 4.25195 M 107.39163,0 V 4.25195 M 134.23955,0 V 4.25195 M 161.08745,0 V 4.25195 M 187.93536,0 V 4.25195 M 214.78328,0 V 4.25195 M 241.63118,0 V 4.25195 M 268.4791,0 V 4.25195 M 295.327,0 V 4.25195 M 0,181.94664 v -4.25198 m 26.8479,4.25198 v -4.25198 m 26.84792,4.25198 v -4.25198 m 26.8479,4.25198 v -4.25198 m 26.84791,4.25198 v -4.25198 m 26.84792,4.25198 v -4.25198 m 26.8479,4.25198 v -4.25198 m 26.84791,4.25198 v -4.25198 m 26.84792,4.25198 v -4.25198 m 26.8479,4.25198 v -4.25198 m 26.84792,4.25198 v -4.25198 m 26.8479,4.25198 v -4.25198" /></g></g></g><g
                       id="g56"><g
                         clip-path="url(#clipPath62)"
                         id="g58"><g
                           id="g64"><path
                             id="path66"
                             style="fill:none;stroke:#808080;stroke-width:0.19925;stroke-linecap:butt;stroke-linejoin:miter;stroke-miterlimit:10;stroke-dasharray:none;stroke-opacity:1"
                             d="M 0,0 H 4.25175 M 0,35.88274 H 4.25175 M 0,71.76549 H 4.25175 M 0,107.64824 H 4.25175 M 0,143.53099 H 4.25175 M 0,179.41374 H 4.25175 M 295.32863,0 h -4.25177 m 4.25177,35.88274 h -4.25177 m 4.25177,35.88275 h -4.25177 m 4.25177,35.88275 h -4.25177 m 4.25177,35.88275 h -4.25177 m 4.25177,35.88275 h -4.25177" /></g></g></g><path
                       id="path68"
                       style="fill:none;stroke:#000000;stroke-width:0.3985;stroke-linecap:butt;stroke-linejoin:miter;stroke-miterlimit:10;stroke-dasharray:none;stroke-opacity:1"
                       d="M 0,0 V 181.94664 H 295.32863 V 0 Z" /><g
                       id="g70"><g
                         transform="translate(-2.49,-9.941)"
                         id="g72"><g
                           id="g74"><g
                             transform="translate(-53.988,-20.123)"
                             id="g76"><text
                               id="text80"
                               style="font-variant:normal;font-weight:normal;font-size:9.96259975px;font-family:CMR10;-inkscape-font-specification:CMR10;writing-mode:lr-tb;fill:#000000;fill-opacity:1;fill-rule:nonzero;stroke:none"
                               transform="matrix(1,0,0,-1,53.988,20.123)"><tspan
                                 id="tspan78"
                                 y="0"
                                 x="0">0</tspan></text>
<g
                               transform="translate(53.988,20.123)"
                               id="g82" /></g></g><g
                           transform="translate(2.49,9.941)"
                           id="g84" /></g></g><g
                       id="g86"><g
                         transform="translate(24.357,-9.941)"
                         id="g88"><g
                           id="g90"><g
                             transform="translate(-80.835,-20.123)"
                             id="g92"><text
                               id="text96"
                               style="font-variant:normal;font-weight:normal;font-size:9.96259975px;font-family:CMR10;-inkscape-font-specification:CMR10;writing-mode:lr-tb;fill:#000000;fill-opacity:1;fill-rule:nonzero;stroke:none"
                               transform="matrix(1,0,0,-1,80.835,20.123)"><tspan
                                 id="tspan94"
                                 y="0"
                                 x="0">1</tspan></text>
<g
                               transform="translate(80.835,20.123)"
                               id="g98" /></g></g><g
                           transform="translate(-24.357,9.941)"
                           id="g100" /></g></g><g
                       id="g102"><g
                         transform="translate(51.205,-9.941)"
                         id="g104"><g
                           id="g106"><g
                             transform="translate(-107.683,-20.123)"
                             id="g108"><text
                               id="text112"
                               style="font-variant:normal;font-weight:normal;font-size:9.96259975px;font-family:CMR10;-inkscape-font-specification:CMR10;writing-mode:lr-tb;fill:#000000;fill-opacity:1;fill-rule:nonzero;stroke:none"
                               transform="matrix(1,0,0,-1,107.683,20.123)"><tspan
                                 id="tspan110"
                                 y="0"
                                 x="0">2</tspan></text>
<g
                               transform="translate(107.683,20.123)"
                               id="g114" /></g></g><g
                           transform="translate(-51.205,9.941)"
                           id="g116" /></g></g><g
                       id="g118"><g
                         transform="translate(78.052,-9.941)"
                         id="g120"><g
                           id="g122"><g
                             transform="translate(-134.53,-20.123)"
                             id="g124"><text
                               id="text128"
                               style="font-variant:normal;font-weight:normal;font-size:9.96259975px;font-family:CMR10;-inkscape-font-specification:CMR10;writing-mode:lr-tb;fill:#000000;fill-opacity:1;fill-rule:nonzero;stroke:none"
                               transform="matrix(1,0,0,-1,134.53,20.123)"><tspan
                                 id="tspan126"
                                 y="0"
                                 x="0">3</tspan></text>
<g
                               transform="translate(134.53,20.123)"
                               id="g130" /></g></g><g
                           transform="translate(-78.052,9.941)"
                           id="g132" /></g></g><g
                       id="g134"><g
                         transform="translate(104.9,-9.941)"
                         id="g136"><g
                           id="g138"><g
                             transform="translate(-161.378,-20.123)"
                             id="g140"><text
                               id="text144"
                               style="font-variant:normal;font-weight:normal;font-size:9.96259975px;font-family:CMR10;-inkscape-font-specification:CMR10;writing-mode:lr-tb;fill:#000000;fill-opacity:1;fill-rule:nonzero;stroke:none"
                               transform="matrix(1,0,0,-1,161.378,20.123)"><tspan
                                 id="tspan142"
                                 y="0"
                                 x="0">4</tspan></text>
<g
                               transform="translate(161.378,20.123)"
                               id="g146" /></g></g><g
                           transform="translate(-104.9,9.941)"
                           id="g148" /></g></g><g
                       id="g150"><g
                         transform="translate(131.748,-9.941)"
                         id="g152"><g
                           id="g154"><g
                             transform="translate(-188.226,-20.123)"
                             id="g156"><text
                               id="text160"
                               style="font-variant:normal;font-weight:normal;font-size:9.96259975px;font-family:CMR10;-inkscape-font-specification:CMR10;writing-mode:lr-tb;fill:#000000;fill-opacity:1;fill-rule:nonzero;stroke:none"
                               transform="matrix(1,0,0,-1,188.226,20.123)"><tspan
                                 id="tspan158"
                                 y="0"
                                 x="0">5</tspan></text>
<g
                               transform="translate(188.226,20.123)"
                               id="g162" /></g></g><g
                           transform="translate(-131.748,9.941)"
                           id="g164" /></g></g><g
                       id="g166"><g
                         transform="translate(158.595,-9.941)"
                         id="g168"><g
                           id="g170"><g
                             transform="translate(-215.073,-20.123)"
                             id="g172"><text
                               id="text176"
                               style="font-variant:normal;font-weight:normal;font-size:9.96259975px;font-family:CMR10;-inkscape-font-specification:CMR10;writing-mode:lr-tb;fill:#000000;fill-opacity:1;fill-rule:nonzero;stroke:none"
                               transform="matrix(1,0,0,-1,215.073,20.123)"><tspan
                                 id="tspan174"
                                 y="0"
                                 x="0">6</tspan></text>
<g
                               transform="translate(215.073,20.123)"
                               id="g178" /></g></g><g
                           transform="translate(-158.595,9.941)"
                           id="g180" /></g></g><g
                       id="g182"><g
                         transform="translate(185.443,-9.941)"
                         id="g184"><g
                           id="g186"><g
                             transform="translate(-241.921,-20.123)"
                             id="g188"><text
                               id="text192"
                               style="font-variant:normal;font-weight:normal;font-size:9.96259975px;font-family:CMR10;-inkscape-font-specification:CMR10;writing-mode:lr-tb;fill:#000000;fill-opacity:1;fill-rule:nonzero;stroke:none"
                               transform="matrix(1,0,0,-1,241.921,20.123)"><tspan
                                 id="tspan190"
                                 y="0"
                                 x="0">7</tspan></text>
<g
                               transform="translate(241.921,20.123)"
                               id="g194" /></g></g><g
                           transform="translate(-185.443,9.941)"
                           id="g196" /></g></g><g
                       id="g198"><g
                         transform="translate(212.29,-9.941)"
                         id="g200"><g
                           id="g202"><g
                             transform="translate(-268.768,-20.123)"
                             id="g204"><text
                               id="text208"
                               style="font-variant:normal;font-weight:normal;font-size:9.96259975px;font-family:CMR10;-inkscape-font-specification:CMR10;writing-mode:lr-tb;fill:#000000;fill-opacity:1;fill-rule:nonzero;stroke:none"
                               transform="matrix(1,0,0,-1,268.768,20.123)"><tspan
                                 id="tspan206"
                                 y="0"
                                 x="0">8</tspan></text>
<g
                               transform="translate(268.768,20.123)"
                               id="g210" /></g></g><g
                           transform="translate(-212.29,9.941)"
                           id="g212" /></g></g><g
                       id="g214"><g
                         transform="translate(239.138,-9.941)"
                         id="g216"><g
                           id="g218"><g
                             transform="translate(-295.616,-20.123)"
                             id="g220"><text
                               id="text224"
                               style="font-variant:normal;font-weight:normal;font-size:9.96259975px;font-family:CMR10;-inkscape-font-specification:CMR10;writing-mode:lr-tb;fill:#000000;fill-opacity:1;fill-rule:nonzero;stroke:none"
                               transform="matrix(1,0,0,-1,295.616,20.123)"><tspan
                                 id="tspan222"
                                 y="0"
                                 x="0">9</tspan></text>
<g
                               transform="translate(295.616,20.123)"
                               id="g226" /></g></g><g
                           transform="translate(-239.138,9.941)"
                           id="g228" /></g></g><g
                       id="g230"><g
                         transform="translate(263.495,-9.941)"
                         id="g232"><g
                           id="g234"><g
                             transform="translate(-319.973,-20.123)"
                             id="g236"><text
                               id="text240"
                               style="font-variant:normal;font-weight:normal;font-size:9.96259975px;font-family:CMR10;-inkscape-font-specification:CMR10;writing-mode:lr-tb;fill:#000000;fill-opacity:1;fill-rule:nonzero;stroke:none"
                               transform="matrix(1,0,0,-1,319.973,20.123)"><tspan
                                 id="tspan238"
                                 y="0"
                                 x="0 4.9812999">10</tspan></text>
<g
                               transform="translate(319.973,20.123)"
                               id="g242" /></g></g><g
                           transform="translate(-263.495,9.941)"
                           id="g244" /></g></g><g
                       id="g246"><g
                         transform="translate(290.342,-9.941)"
                         id="g248"><g
                           id="g250"><g
                             transform="translate(-346.82,-20.123)"
                             id="g252"><text
                               id="text256"
                               style="font-variant:normal;font-weight:normal;font-size:9.96259975px;font-family:CMR10;-inkscape-font-specification:CMR10;writing-mode:lr-tb;fill:#000000;fill-opacity:1;fill-rule:nonzero;stroke:none"
                               transform="matrix(1,0,0,-1,346.82,20.123)"><tspan
                                 id="tspan254"
                                 y="0"
                                 x="0 4.9812999">11</tspan></text>
<g
                               transform="translate(346.82,20.123)"
                               id="g258" /></g></g><g
                           transform="translate(-290.342,9.941)"
                           id="g260" /></g></g><g
                       id="g262"><g
                         transform="translate(-8.501,-3.211)"
                         id="g264"><g
                           id="g266"><g
                             transform="translate(-47.977,-26.853)"
                             id="g268"><text
                               id="text272"
                               style="font-variant:normal;font-weight:normal;font-size:9.96259975px;font-family:CMR10;-inkscape-font-specification:CMR10;writing-mode:lr-tb;fill:#000000;fill-opacity:1;fill-rule:nonzero;stroke:none"
                               transform="matrix(1,0,0,-1,47.977,26.853)"><tspan
                                 id="tspan270"
                                 y="0"
                                 x="0">0</tspan></text>
<g
                               transform="translate(47.977,26.853)"
                               id="g274" /></g></g><g
                           transform="translate(8.501,3.211)"
                           id="g276" /></g></g><g
                       id="g278"><g
                         transform="translate(-36.355,31.827)"
                         id="g280"><g
                           id="g282"><g
                             transform="translate(-20.123,-61.891)"
                             id="g284"><text
                               id="text288"
                               style="font-variant:normal;font-weight:normal;font-size:9.96259975px;font-family:CMR10;-inkscape-font-specification:CMR10;writing-mode:lr-tb;fill:#000000;fill-opacity:1;fill-rule:nonzero;stroke:none"
                               transform="matrix(1,0,0,-1,20.123,61.891)"><tspan
                                 id="tspan286"
                                 y="0"
                                 x="0">2</tspan></text>
<text
                               id="text292"
                               style="font-variant:normal;font-weight:normal;font-size:9.96259975px;font-family:CMSY10;-inkscape-font-specification:CMSY10;writing-mode:lr-tb;fill:#000000;fill-opacity:1;fill-rule:nonzero;stroke:none"
                               transform="matrix(1,0,0,-1,27.319,61.891)"><tspan
                                 id="tspan290"
                                 y="0"
                                 x="0">·</tspan></text>
<text
                               id="text296"
                               style="font-variant:normal;font-weight:normal;font-size:9.96259975px;font-family:CMR10;-inkscape-font-specification:CMR10;writing-mode:lr-tb;fill:#000000;fill-opacity:1;fill-rule:nonzero;stroke:none"
                               transform="matrix(1,0,0,-1,32.3,61.891)"><tspan
                                 id="tspan294"
                                 y="0"
                                 x="0 4.9812999">10</tspan></text>
<text
                               id="text300"
                               style="font-variant:normal;font-weight:normal;font-size:6.97380018px;font-family:CMSY7;-inkscape-font-specification:CMSY7;writing-mode:lr-tb;fill:#000000;fill-opacity:1;fill-rule:nonzero;stroke:none"
                               transform="matrix(1,0,0,-1,42.263,65.506)"><tspan
                                 id="tspan298"
                                 y="0"
                                 x="0">−</tspan></text>
<text
                               id="text304"
                               style="font-variant:normal;font-weight:normal;font-size:6.97380018px;font-family:CMR7;-inkscape-font-specification:CMR7;writing-mode:lr-tb;fill:#000000;fill-opacity:1;fill-rule:nonzero;stroke:none"
                               transform="matrix(1,0,0,-1,48.489,65.506)"><tspan
                                 id="tspan302"
                                 y="0"
                                 x="0">2</tspan></text>
<g
                               transform="translate(20.123,61.891)"
                               id="g306" /></g></g><g
                           transform="translate(36.355,-31.827)"
                           id="g308" /></g></g><g
                       id="g310"><g
                         transform="translate(-36.355,67.709)"
                         id="g312"><g
                           id="g314"><g
                             transform="translate(-20.123,-97.773)"
                             id="g316"><text
                               id="text320"
                               style="font-variant:normal;font-weight:normal;font-size:9.96259975px;font-family:CMR10;-inkscape-font-specification:CMR10;writing-mode:lr-tb;fill:#000000;fill-opacity:1;fill-rule:nonzero;stroke:none"
                               transform="matrix(1,0,0,-1,20.123,97.773)"><tspan
                                 id="tspan318"
                                 y="0"
                                 x="0">4</tspan></text>
<text
                               id="text324"
                               style="font-variant:normal;font-weight:normal;font-size:9.96259975px;font-family:CMSY10;-inkscape-font-specification:CMSY10;writing-mode:lr-tb;fill:#000000;fill-opacity:1;fill-rule:nonzero;stroke:none"
                               transform="matrix(1,0,0,-1,27.319,97.773)"><tspan
                                 id="tspan322"
                                 y="0"
                                 x="0">·</tspan></text>
<text
                               id="text328"
                               style="font-variant:normal;font-weight:normal;font-size:9.96259975px;font-family:CMR10;-inkscape-font-specification:CMR10;writing-mode:lr-tb;fill:#000000;fill-opacity:1;fill-rule:nonzero;stroke:none"
                               transform="matrix(1,0,0,-1,32.3,97.773)"><tspan
                                 id="tspan326"
                                 y="0"
                                 x="0 4.9812999">10</tspan></text>
<text
                               id="text332"
                               style="font-variant:normal;font-weight:normal;font-size:6.97380018px;font-family:CMSY7;-inkscape-font-specification:CMSY7;writing-mode:lr-tb;fill:#000000;fill-opacity:1;fill-rule:nonzero;stroke:none"
                               transform="matrix(1,0,0,-1,42.263,101.389)"><tspan
                                 id="tspan330"
                                 y="0"
                                 x="0">−</tspan></text>
<text
                               id="text336"
                               style="font-variant:normal;font-weight:normal;font-size:6.97380018px;font-family:CMR7;-inkscape-font-specification:CMR7;writing-mode:lr-tb;fill:#000000;fill-opacity:1;fill-rule:nonzero;stroke:none"
                               transform="matrix(1,0,0,-1,48.489,101.389)"><tspan
                                 id="tspan334"
                                 y="0"
                                 x="0">2</tspan></text>
<g
                               transform="translate(20.123,97.773)"
                               id="g338" /></g></g><g
                           transform="translate(36.355,-67.709)"
                           id="g340" /></g></g><g
                       id="g342"><g
                         transform="translate(-36.355,103.592)"
                         id="g344"><g
                           id="g346"><g
                             transform="translate(-20.123,-133.656)"
                             id="g348"><text
                               id="text352"
                               style="font-variant:normal;font-weight:normal;font-size:9.96259975px;font-family:CMR10;-inkscape-font-specification:CMR10;writing-mode:lr-tb;fill:#000000;fill-opacity:1;fill-rule:nonzero;stroke:none"
                               transform="matrix(1,0,0,-1,20.123,133.656)"><tspan
                                 id="tspan350"
                                 y="0"
                                 x="0">6</tspan></text>
<text
                               id="text356"
                               style="font-variant:normal;font-weight:normal;font-size:9.96259975px;font-family:CMSY10;-inkscape-font-specification:CMSY10;writing-mode:lr-tb;fill:#000000;fill-opacity:1;fill-rule:nonzero;stroke:none"
                               transform="matrix(1,0,0,-1,27.319,133.656)"><tspan
                                 id="tspan354"
                                 y="0"
                                 x="0">·</tspan></text>
<text
                               id="text360"
                               style="font-variant:normal;font-weight:normal;font-size:9.96259975px;font-family:CMR10;-inkscape-font-specification:CMR10;writing-mode:lr-tb;fill:#000000;fill-opacity:1;fill-rule:nonzero;stroke:none"
                               transform="matrix(1,0,0,-1,32.3,133.656)"><tspan
                                 id="tspan358"
                                 y="0"
                                 x="0 4.9812999">10</tspan></text>
<text
                               id="text364"
                               style="font-variant:normal;font-weight:normal;font-size:6.97380018px;font-family:CMSY7;-inkscape-font-specification:CMSY7;writing-mode:lr-tb;fill:#000000;fill-opacity:1;fill-rule:nonzero;stroke:none"
                               transform="matrix(1,0,0,-1,42.263,137.271)"><tspan
                                 id="tspan362"
                                 y="0"
                                 x="0">−</tspan></text>
<text
                               id="text368"
                               style="font-variant:normal;font-weight:normal;font-size:6.97380018px;font-family:CMR7;-inkscape-font-specification:CMR7;writing-mode:lr-tb;fill:#000000;fill-opacity:1;fill-rule:nonzero;stroke:none"
                               transform="matrix(1,0,0,-1,48.489,137.271)"><tspan
                                 id="tspan366"
                                 y="0"
                                 x="0">2</tspan></text>
<g
                               transform="translate(20.123,133.656)"
                               id="g370" /></g></g><g
                           transform="translate(36.355,-103.592)"
                           id="g372" /></g></g><g
                       id="g374"><g
                         transform="translate(-36.355,139.474)"
                         id="g376"><g
                           id="g378"><g
                             transform="translate(-20.123,-169.538)"
                             id="g380"><text
                               id="text384"
                               style="font-variant:normal;font-weight:normal;font-size:9.96259975px;font-family:CMR10;-inkscape-font-specification:CMR10;writing-mode:lr-tb;fill:#000000;fill-opacity:1;fill-rule:nonzero;stroke:none"
                               transform="matrix(1,0,0,-1,20.123,169.538)"><tspan
                                 id="tspan382"
                                 y="0"
                                 x="0">8</tspan></text>
<text
                               id="text388"
                               style="font-variant:normal;font-weight:normal;font-size:9.96259975px;font-family:CMSY10;-inkscape-font-specification:CMSY10;writing-mode:lr-tb;fill:#000000;fill-opacity:1;fill-rule:nonzero;stroke:none"
                               transform="matrix(1,0,0,-1,27.319,169.538)"><tspan
                                 id="tspan386"
                                 y="0"
                                 x="0">·</tspan></text>
<text
                               id="text392"
                               style="font-variant:normal;font-weight:normal;font-size:9.96259975px;font-family:CMR10;-inkscape-font-specification:CMR10;writing-mode:lr-tb;fill:#000000;fill-opacity:1;fill-rule:nonzero;stroke:none"
                               transform="matrix(1,0,0,-1,32.3,169.538)"><tspan
                                 id="tspan390"
                                 y="0"
                                 x="0 4.9812999">10</tspan></text>
<text
                               id="text396"
                               style="font-variant:normal;font-weight:normal;font-size:6.97380018px;font-family:CMSY7;-inkscape-font-specification:CMSY7;writing-mode:lr-tb;fill:#000000;fill-opacity:1;fill-rule:nonzero;stroke:none"
                               transform="matrix(1,0,0,-1,42.263,173.153)"><tspan
                                 id="tspan394"
                                 y="0"
                                 x="0">−</tspan></text>
<text
                               id="text400"
                               style="font-variant:normal;font-weight:normal;font-size:6.97380018px;font-family:CMR7;-inkscape-font-specification:CMR7;writing-mode:lr-tb;fill:#000000;fill-opacity:1;fill-rule:nonzero;stroke:none"
                               transform="matrix(1,0,0,-1,48.489,173.153)"><tspan
                                 id="tspan398"
                                 y="0"
                                 x="0">2</tspan></text>
<g
                               transform="translate(20.123,169.538)"
                               id="g402" /></g></g><g
                           transform="translate(36.355,-139.474)"
                           id="g404" /></g></g><g
                       id="g406"><g
                         transform="translate(-16.25,176.201)"
                         id="g408"><g
                           id="g410"><g
                             transform="translate(-40.228,-206.265)"
                             id="g412"><text
                               id="text416"
                               style="font-variant:normal;font-weight:normal;font-size:9.96259975px;font-family:CMR10;-inkscape-font-specification:CMR10;writing-mode:lr-tb;fill:#000000;fill-opacity:1;fill-rule:nonzero;stroke:none"
                               transform="matrix(1,0,0,-1,40.228,206.265)"><tspan
                                 id="tspan414"
                                 y="0"
                                 x="0">0</tspan></text>
<text
                               id="text420"
                               style="font-variant:normal;font-weight:normal;font-size:9.96259975px;font-family:CMMI10;-inkscape-font-specification:CMMI10;writing-mode:lr-tb;fill:#000000;fill-opacity:1;fill-rule:nonzero;stroke:none"
                               transform="matrix(1,0,0,-1,45.21,206.265)"><tspan
                                 id="tspan418"
                                 y="0"
                                 x="0">.</tspan></text>
<text
                               id="text424"
                               style="font-variant:normal;font-weight:normal;font-size:9.96259975px;font-family:CMR10;-inkscape-font-specification:CMR10;writing-mode:lr-tb;fill:#000000;fill-opacity:1;fill-rule:nonzero;stroke:none"
                               transform="matrix(1,0,0,-1,47.977,206.265)"><tspan
                                 id="tspan422"
                                 y="0"
                                 x="0">1</tspan></text>
<g
                               transform="translate(40.228,206.265)"
                               id="g426" /></g></g><g
                           transform="translate(16.25,-176.201)"
                           id="g428" /></g></g><g
                       clip-path="url(#clipPath434)"
                       id="g430" /></g><g
                     id="g436"><path
                       id="path438"
                       style="fill:#0000cc;fill-opacity:1;fill-rule:nonzero;stroke:#0000ff;stroke-width:0.3985;stroke-linecap:butt;stroke-linejoin:miter;stroke-miterlimit:10;stroke-dasharray:none;stroke-opacity:1"
                       d="m 28.84045,1.45763 c 0,1.10046 -0.89207,1.99255 -1.99255,1.99255 -1.10046,0 -1.99255,-0.89209 -1.99255,-1.99255 0,-1.10048 0.89209,-1.99254 1.99255,-1.99254 1.10048,0 1.99255,0.89206 1.99255,1.99254 z" /><path
                       id="path440"
                       style="fill:#0000cc;fill-opacity:1;fill-rule:nonzero;stroke:#0000ff;stroke-width:0.3985;stroke-linecap:butt;stroke-linejoin:miter;stroke-miterlimit:10;stroke-dasharray:none;stroke-opacity:1"
                       d="m 42.2644,3.37335 c 0,1.10048 -0.89207,1.99255 -1.99255,1.99255 -1.10046,0 -1.99255,-0.89207 -1.99255,-1.99255 0,-1.10046 0.89209,-1.99255 1.99255,-1.99255 1.10048,0 1.99255,0.89209 1.99255,1.99255 z" /><path
                       id="path442"
                       style="fill:#0000cc;fill-opacity:1;fill-rule:nonzero;stroke:#0000ff;stroke-width:0.3985;stroke-linecap:butt;stroke-linejoin:miter;stroke-miterlimit:10;stroke-dasharray:none;stroke-opacity:1"
                       d="m 55.68837,5.74495 c 0,1.10048 -0.89209,1.99255 -1.99255,1.99255 -1.10048,0 -1.99256,-0.89207 -1.99256,-1.99255 0,-1.10046 0.89208,-1.99255 1.99256,-1.99255 1.10046,0 1.99255,0.89209 1.99255,1.99255 z" /><path
                       id="path444"
                       style="fill:#0000cc;fill-opacity:1;fill-rule:nonzero;stroke:#0000ff;stroke-width:0.3985;stroke-linecap:butt;stroke-linejoin:miter;stroke-miterlimit:10;stroke-dasharray:none;stroke-opacity:1"
                       d="m 69.11232,9.81912 c 0,1.10047 -0.89207,1.99256 -1.99255,1.99256 -1.10047,0 -1.99256,-0.89209 -1.99256,-1.99256 0,-1.10048 0.89209,-1.99255 1.99256,-1.99255 1.10048,0 1.99255,0.89207 1.99255,1.99255 z" /><path
                       id="path446"
                       style="fill:#0000cc;fill-opacity:1;fill-rule:nonzero;stroke:#0000ff;stroke-width:0.3985;stroke-linecap:butt;stroke-linejoin:miter;stroke-miterlimit:10;stroke-dasharray:none;stroke-opacity:1"
                       d="m 82.53627,15.18097 c 0,1.10048 -0.89207,1.99255 -1.99255,1.99255 -1.10047,0 -1.99256,-0.89207 -1.99256,-1.99255 0,-1.10047 0.89209,-1.99255 1.99256,-1.99255 1.10048,0 1.99255,0.89208 1.99255,1.99255 z" /><path
                       id="path448"
                       style="fill:#0000cc;fill-opacity:1;fill-rule:nonzero;stroke:#0000ff;stroke-width:0.3985;stroke-linecap:butt;stroke-linejoin:miter;stroke-miterlimit:10;stroke-dasharray:none;stroke-opacity:1"
                       d="m 95.96024,19.90074 c 0,1.10046 -0.89209,1.99256 -1.99256,1.99256 -1.10048,0 -1.99255,-0.8921 -1.99255,-1.99256 0,-1.10048 0.89207,-1.99255 1.99255,-1.99255 1.10047,0 1.99256,0.89207 1.99256,1.99255 z" /><path
                       id="path450"
                       style="fill:#0000cc;fill-opacity:1;fill-rule:nonzero;stroke:#0000ff;stroke-width:0.3985;stroke-linecap:butt;stroke-linejoin:miter;stroke-miterlimit:10;stroke-dasharray:none;stroke-opacity:1"
                       d="m 109.38419,29.05928 c 0,1.10046 -0.89209,1.99255 -1.99256,1.99255 -1.10046,0 -1.99255,-0.89209 -1.99255,-1.99255 0,-1.10048 0.89209,-1.99255 1.99255,-1.99255 1.10047,0 1.99256,0.89207 1.99256,1.99255 z" /><path
                       id="path452"
                       style="fill:#0000cc;fill-opacity:1;fill-rule:nonzero;stroke:#0000ff;stroke-width:0.3985;stroke-linecap:butt;stroke-linejoin:miter;stroke-miterlimit:10;stroke-dasharray:none;stroke-opacity:1"
                       d="m 122.80814,38.50917 c 0,1.10048 -0.89208,1.99255 -1.99256,1.99255 -1.10046,0 -1.99255,-0.89207 -1.99255,-1.99255 0,-1.10047 0.89209,-1.99255 1.99255,-1.99255 1.10048,0 1.99256,0.89208 1.99256,1.99255 z" /><path
                       id="path454"
                       style="fill:#0000cc;fill-opacity:1;fill-rule:nonzero;stroke:#0000ff;stroke-width:0.3985;stroke-linecap:butt;stroke-linejoin:miter;stroke-miterlimit:10;stroke-dasharray:none;stroke-opacity:1"
                       d="m 136.2321,44.32271 c 0,1.10048 -0.89209,1.99255 -1.99255,1.99255 -1.10048,0 -1.99255,-0.89207 -1.99255,-1.99255 0,-1.10047 0.89207,-1.99256 1.99255,-1.99256 1.10046,0 1.99255,0.89209 1.99255,1.99256 z" /><path
                       id="path456"
                       style="fill:#0000cc;fill-opacity:1;fill-rule:nonzero;stroke:#0000ff;stroke-width:0.3985;stroke-linecap:butt;stroke-linejoin:miter;stroke-miterlimit:10;stroke-dasharray:none;stroke-opacity:1"
                       d="m 149.65605,52.70636 c 0,1.10048 -0.89209,1.99255 -1.99255,1.99255 -1.10048,0 -1.99256,-0.89207 -1.99256,-1.99255 0,-1.10046 0.89208,-1.99256 1.99256,-1.99256 1.10046,0 1.99255,0.8921 1.99255,1.99256 z" /><path
                       id="path458"
                       style="fill:#0000cc;fill-opacity:1;fill-rule:nonzero;stroke:#0000ff;stroke-width:0.3985;stroke-linecap:butt;stroke-linejoin:miter;stroke-miterlimit:10;stroke-dasharray:none;stroke-opacity:1"
                       d="m 163.08,57.09123 c 0,1.10048 -0.89207,1.99256 -1.99255,1.99256 -1.10047,0 -1.99255,-0.89208 -1.99255,-1.99256 0,-1.10046 0.89208,-1.99255 1.99255,-1.99255 1.10048,0 1.99255,0.89209 1.99255,1.99255 z" /><path
                       id="path460"
                       style="fill:#0000cc;fill-opacity:1;fill-rule:nonzero;stroke:#0000ff;stroke-width:0.3985;stroke-linecap:butt;stroke-linejoin:miter;stroke-miterlimit:10;stroke-dasharray:none;stroke-opacity:1"
                       d="m 176.50397,65.92323 c 0,1.10048 -0.89209,1.99256 -1.99256,1.99256 -1.10048,0 -1.99255,-0.89208 -1.99255,-1.99256 0,-1.10046 0.89207,-1.99255 1.99255,-1.99255 1.10047,0 1.99256,0.89209 1.99256,1.99255 z" /><path
                       id="path462"
                       style="fill:#0000cc;fill-opacity:1;fill-rule:nonzero;stroke:#0000ff;stroke-width:0.3985;stroke-linecap:butt;stroke-linejoin:miter;stroke-miterlimit:10;stroke-dasharray:none;stroke-opacity:1"
                       d="m 189.92792,74.84099 c 0,1.10048 -0.89209,1.99255 -1.99256,1.99255 -1.10048,0 -1.99255,-0.89207 -1.99255,-1.99255 0,-1.10047 0.89207,-1.99256 1.99255,-1.99256 1.10047,0 1.99256,0.89209 1.99256,1.99256 z" /><path
                       id="path464"
                       style="fill:#0000cc;fill-opacity:1;fill-rule:nonzero;stroke:#0000ff;stroke-width:0.3985;stroke-linecap:butt;stroke-linejoin:miter;stroke-miterlimit:10;stroke-dasharray:none;stroke-opacity:1"
                       d="m 203.35187,86.07246 c 0,1.10048 -0.89207,1.99256 -1.99256,1.99256 -1.10046,0 -1.99255,-0.89208 -1.99255,-1.99256 0,-1.10046 0.89209,-1.99255 1.99255,-1.99255 1.10049,0 1.99256,0.89209 1.99256,1.99255 z" /><path
                       id="path466"
                       style="fill:#0000cc;fill-opacity:1;fill-rule:nonzero;stroke:#0000ff;stroke-width:0.3985;stroke-linecap:butt;stroke-linejoin:miter;stroke-miterlimit:10;stroke-dasharray:none;stroke-opacity:1"
                       d="m 216.77583,99.26852 c 0,1.10048 -0.89209,1.99256 -1.99255,1.99256 -1.10048,0 -1.99255,-0.89208 -1.99255,-1.99256 0,-1.10046 0.89207,-1.99255 1.99255,-1.99255 1.10046,0 1.99255,0.89209 1.99255,1.99255 z" /><path
                       id="path468"
                       style="fill:#0000cc;fill-opacity:1;fill-rule:nonzero;stroke:#0000ff;stroke-width:0.3985;stroke-linecap:butt;stroke-linejoin:miter;stroke-miterlimit:10;stroke-dasharray:none;stroke-opacity:1"
                       d="m 230.19978,118.56807 c 0,1.10046 -0.89208,1.99255 -1.99255,1.99255 -1.10048,0 -1.99255,-0.89209 -1.99255,-1.99255 0,-1.10048 0.89207,-1.99255 1.99255,-1.99255 1.10047,0 1.99255,0.89207 1.99255,1.99255 z" /><path
                       id="path470"
                       style="fill:#0000cc;fill-opacity:1;fill-rule:nonzero;stroke:#0000ff;stroke-width:0.3985;stroke-linecap:butt;stroke-linejoin:miter;stroke-miterlimit:10;stroke-dasharray:none;stroke-opacity:1"
                       d="m 243.62373,135.92653 c 0,1.10048 -0.89207,1.99255 -1.99255,1.99255 -1.10046,0 -1.99255,-0.89207 -1.99255,-1.99255 0,-1.10046 0.89209,-1.99255 1.99255,-1.99255 1.10048,0 1.99255,0.89209 1.99255,1.99255 z" /><path
                       id="path472"
                       style="fill:#0000cc;fill-opacity:1;fill-rule:nonzero;stroke:#0000ff;stroke-width:0.3985;stroke-linecap:butt;stroke-linejoin:miter;stroke-miterlimit:10;stroke-dasharray:none;stroke-opacity:1"
                       d="m 257.04768,149.26541 c 0,1.10047 -0.89207,1.99256 -1.99255,1.99256 -1.10046,0 -1.99255,-0.89209 -1.99255,-1.99256 0,-1.10048 0.89209,-1.99255 1.99255,-1.99255 1.10048,0 1.99255,0.89207 1.99255,1.99255 z" /><path
                       id="path474"
                       style="fill:#0000cc;fill-opacity:1;fill-rule:nonzero;stroke:#0000ff;stroke-width:0.3985;stroke-linecap:butt;stroke-linejoin:miter;stroke-miterlimit:10;stroke-dasharray:none;stroke-opacity:1"
                       d="m 270.47165,165.4051 c 0,1.10047 -0.89209,1.99256 -1.99255,1.99256 -1.10048,0 -1.99256,-0.89209 -1.99256,-1.99256 0,-1.10047 0.89208,-1.99255 1.99256,-1.99255 1.10046,0 1.99255,0.89208 1.99255,1.99255 z" /></g><g
                     id="g476"><g
                       transform="translate(101.433,-24.253)"
                       id="g478"><g
                         id="g480"><g
                           transform="translate(-157.911,-5.811)"
                           id="g482"><text
                             id="text486"
                             style="font-variant:normal;font-weight:normal;font-size:9.96259975px;font-family:CMR10;-inkscape-font-specification:CMR10;writing-mode:lr-tb;fill:#000000;fill-opacity:1;fill-rule:nonzero;stroke:none"
                             transform="matrix(1,0,0,-1,157.911,5.811)"><tspan
                               id="tspan484"
                               y="0"
                               x="0 7.6104302 10.37804 15.359341 18.126951 22.001406 29.248201 33.122658 35.890266 44.752995 48.627449 54.16267 59.14397 64.679192 68.608444 73.589745 79.124962 84.650223 88.589432">Digits(inthousands)</tspan></text>
<g
                             transform="translate(157.911,5.811)"
                             id="g488" /></g></g><g
                         transform="translate(-101.433,24.253)"
                         id="g490" /></g></g><g
                     id="g492"><g
                       transform="rotate(90,-58.906,13.22)"
                       id="g494"><g
                         id="g496"><g
                           transform="translate(-10.792,-102.19)"
                           id="g498"><text
                             id="text502"
                             style="font-variant:normal;font-weight:normal;font-size:9.96259975px;font-family:CMR10;-inkscape-font-specification:CMR10;writing-mode:lr-tb;fill:#000000;fill-opacity:1;fill-rule:nonzero;stroke:none"
                             transform="matrix(1,0,0,-1,10.792,102.19)"><tspan
                               id="tspan500"
                               y="0"
                               x="0 7.1949897 9.9625998 18.264435 26.009359 29.883816 33.813065">Time(s)</tspan></text>
<g
                             transform="translate(10.792,102.19)"
                             id="g504" /></g></g><g
                         transform="translate(45.686,-72.126)"
                         id="g506" /></g></g><g
                     id="g508"><g
                       id="g510"><path
                         id="path512"
                         style="fill:#ffffff;fill-opacity:1;fill-rule:nonzero;stroke:#000000;stroke-width:0.3985;stroke-linecap:butt;stroke-linejoin:miter;stroke-miterlimit:10;stroke-dasharray:none;stroke-opacity:1"
                         d="m 304.38736,164.81073 h 149.5386 v 16.93665 h -149.5386 z" /></g><g
                       transform="translate(307.372,173.276)"
                       id="g514"><g
                         transform="translate(-6.511)"
                         id="g516"><g
                           id="g518"><g
                             id="g520"><g
                               id="g522"><path
                                 id="path524"
                                 style="fill:#0000cc;fill-opacity:1;fill-rule:nonzero;stroke:#0000ff;stroke-width:0.3985;stroke-linecap:butt;stroke-linejoin:miter;stroke-miterlimit:10;stroke-dasharray:none;stroke-opacity:1"
                                 d="m 10.49667,0 c 0,1.10046 -0.89209,1.99255 -1.99255,1.99255 C 7.40364,1.99255 6.51157,1.10046 6.51157,0 c 0,-1.10046 0.89207,-1.99255 1.99255,-1.99255 1.10046,0 1.99255,0.89209 1.99255,1.99255 z" /></g></g></g><g
                           transform="translate(80.284)"
                           id="g526"><g
                             id="g528"><g
                               id="g530"><g
                                 transform="translate(-67.795,-2.988)"
                                 id="g532"><g
                                   id="g534"><g
                                   transform="translate(-369.828,-200.352)"
                                   id="g536"><text
                                   id="text540"
                                   style="font-variant:normal;font-weight:normal;font-size:9.96259975px;font-family:CMR10;-inkscape-font-specification:CMR10;writing-mode:lr-tb;fill:#000000;fill-opacity:1;fill-rule:nonzero;stroke:none"
                                   transform="matrix(1,0,0,-1,369.828,200.352)"><tspan
                                   id="tspan538"
                                   y="0"
                                   x="0 7.8176522 12.798952 18.334173 22.263422 26.192671 29.513206 35.73983 40.16721 45.14851 49.57589 55.111111 60.646332 64.548683 72.29361 76.16806 82.948608 85.716217 89.036751 94.571976 100.10719 102.8748 107.30219 112.28349 116.21273 121.74796 126.17533 131.71056">Gauss-Legendre(Pi-unleashed)</tspan></text>
<g
                                   transform="translate(369.828,200.352)"
                                   id="g542" /></g></g><g
                                   transform="translate(67.795,2.988)"
                                   id="g544" /></g></g></g><g
                             transform="translate(-73.773)"
                             id="g546" /></g></g><g
                         transform="translate(-307.372,-173.276)"
                         id="g548" /></g></g></g></g><g
                 transform="translate(-56.478,-30.064)"
                 id="g550" /></g><g
               transform="translate(56.478,30.064)"
               id="g552" /></g><g
             id="g554" /><g
             id="g556" /></g></g></g></g></svg>