<?xml version="1.0" encoding="UTF-8" standalone="no"?>
<!DOCTYPE svg PUBLIC "-//W3C//DTD SVG 1.1//EN" "http://www.w3.org/Graphics/SVG/1.1/DTD/svg11.dtd">
<svg xmlns="http://www.w3.org/2000/svg" xmlns:xlink="http://www.w3.org/1999/xlink" version="1.1" width="463.524pt" height="212.202pt" viewBox="0 0 463.524 212.202">
<g enable-background="new">
<clipPath id="cp0">
<path transform="matrix(1,0,0,-1,33.606,182.138)" d="M 0 -141.73224 L 295.32865 -141.73224 L 295.32865 323.67384 L 0 323.67384 "/>
</clipPath>
<g clip-path="url(#cp0)">
<path transform="matrix(1,0,0,-1,33.606,182.138)" stroke-width=".19925" stroke-linecap="butt" stroke-miterlimit="10" stroke-linejoin="miter" fill="none" stroke="#929292" d="M 0 0 L 0 4.25175 M 26.8479 0 L 26.8479 4.25175 M 53.69582 0 L 53.69582 4.25175 M 80.54372 0 L 80.54372 4.25175 M 107.39163 0 L 107.39163 4.25175 M 134.23955 0 L 134.23955 4.25175 M 161.08745 0 L 161.08745 4.25175 M 187.93537 0 L 187.93537 4.25175 M 214.78328 0 L 214.78328 4.25175 M 241.63118 0 L 241.63118 4.25175 M 268.4791 0 L 268.4791 4.25175 M 295.327 0 L 295.327 4.25175 M 0 181.9416 L 0 177.68982 M 26.8479 181.9416 L 26.8479 177.68982 M 53.69582 181.9416 L 53.69582 177.68982 M 80.54372 181.9416 L 80.54372 177.68982 M 107.39163 181.9416 L 107.39163 177.68982 M 134.23955 181.9416 L 134.23955 177.68982 M 161.08745 181.9416 L 161.08745 177.68982 M 187.93537 181.9416 L 187.93537 177.68982 M 214.78328 181.9416 L 214.78328 177.68982 M 241.63118 181.9416 L 241.63118 177.68982 M 268.4791 181.9416 L 268.4791 177.68982 M 295.327 181.9416 L 295.327 177.68982 "/>
</g>
<clipPath id="cp1">
<path transform="matrix(1,0,0,-1,33.606,182.138)" d="M -141.73282 0 L -141.73282 181.9416 L 437.0615 181.9416 L 437.0615 0 "/>
</clipPath>
<g clip-path="url(#cp1)">
<path transform="matrix(1,0,0,-1,33.606,182.138)" stroke-width=".19925" stroke-linecap="butt" stroke-miterlimit="10" stroke-linejoin="miter" fill="none" stroke="#929292" d="M 0 0 L 4.25175 0 M 0 47.3914 L 4.25175 47.3914 M 0 94.7828 L 4.25175 94.7828 M 0 142.17421 L 4.25175 142.17421 M 295.32865 0 L 291.07688 0 M 295.32865 47.3914 L 291.07688 47.3914 M 295.32865 94.7828 L 291.07688 94.7828 M 295.32865 142.17421 L 291.07688 142.17421 "/>
</g>
<path transform="matrix(1,0,0,-1,33.606,182.138)" stroke-width=".3985" stroke-linecap="butt" stroke-miterlimit="10" stroke-linejoin="miter" fill="none" stroke="#000000" d="M 0 0 L 0 181.9416 L 295.32865 181.9416 L 295.32865 0 L 0 0 Z "/>
<text xml:space="preserve" transform="matrix(1 0 -0 1 0 212.202)" font-size="9.9626" font-family="CMR10"><tspan y="-20.123" x="31.115">0</tspan></text>
<text xml:space="preserve" transform="matrix(1 0 -0 1 0 212.202)" font-size="9.9626" font-family="CMR10"><tspan y="-20.123" x="55.472 60.4533">10</tspan></text>
<text xml:space="preserve" transform="matrix(1 0 -0 1 0 212.202)" font-size="9.9626" font-family="CMR10"><tspan y="-20.123" x="82.32 87.3013">20</tspan></text>
<text xml:space="preserve" transform="matrix(1 0 -0 1 -.0000076293949 212.202)" font-size="9.9626" font-family="CMR10"><tspan y="-20.123" x="109.167 114.1483">30</tspan></text>
<text xml:space="preserve" transform="matrix(1 0 -0 1 0 212.202)" font-size="9.9626" font-family="CMR10"><tspan y="-20.123" x="136.015 140.99629">40</tspan></text>
<text xml:space="preserve" transform="matrix(1 0 -0 1 0 212.202)" font-size="9.9626" font-family="CMR10"><tspan y="-20.123" x="162.862 167.84329">50</tspan></text>
<text xml:space="preserve" transform="matrix(1 0 -0 1 0 212.202)" font-size="9.9626" font-family="CMR10"><tspan y="-20.123" x="189.71 194.6913">60</tspan></text>
<text xml:space="preserve" transform="matrix(1 0 -0 1 0 212.202)" font-size="9.9626" font-family="CMR10"><tspan y="-20.123" x="216.558 221.53929">70</tspan></text>
<text xml:space="preserve" transform="matrix(1 0 -0 1 0 212.202)" font-size="9.9626" font-family="CMR10"><tspan y="-20.123" x="243.405 248.38629">80</tspan></text>
<text xml:space="preserve" transform="matrix(1 0 -0 1 0 212.202)" font-size="9.9626" font-family="CMR10"><tspan y="-20.123" x="270.253 275.23429">90</tspan></text>
<text xml:space="preserve" transform="matrix(1 0 -0 1 0 212.202)" font-size="9.9626" font-family="CMR10"><tspan y="-20.123" x="294.61 299.59129 304.57258">100</tspan></text>
<text xml:space="preserve" transform="matrix(1 0 -0 1 0 212.202)" font-size="9.9626" font-family="CMR10"><tspan y="-20.123" x="321.457 326.4383 331.4196">110</tspan></text>
<text xml:space="preserve" transform="matrix(1 0 -0 1 0 212.202)" font-size="9.9626" font-family="CMR10"><tspan y="-26.853" x="25.105">0</tspan></text>
<text xml:space="preserve" transform="matrix(1 0 -0 1 0 212.20201)" font-size="9.9626" font-family="CMR10"><tspan y="-74.244" x="25.105">5</tspan></text>
<text xml:space="preserve" transform="matrix(1 0 -0 1 -.0000019073487 212.202)" font-size="9.9626" font-family="CMR10"><tspan y="-121.635" x="20.124 25.1053">10</tspan></text>
<text xml:space="preserve" transform="matrix(1 0 -0 1 -.0000019073487 212.202)" font-size="9.9626" font-family="CMR10"><tspan y="-169.026" x="20.124 25.1053">15</tspan></text>
<clipPath id="cp2">
<path transform="matrix(1,0,0,-1,33.606,182.138)" d="M 0 0 L 295.32865 0 L 295.32865 181.9416 L 0 181.9416 Z "/>
</clipPath>
<g clip-path="url(#cp2)">
<path transform="matrix(1,0,0,-1,33.606,182.138)" stroke-width=".3985" stroke-linecap="butt" stroke-miterlimit="10" stroke-linejoin="miter" fill="none" stroke="#0000ff" d="M 26.8479 1.59079 L 26.8479 2.81622 "/>
<path transform="matrix(0,-1,-1,-0,60.454,179.322)" stroke-width=".3985" stroke-linecap="butt" stroke-miterlimit="10" stroke-linejoin="miter" fill="none" stroke="#0000ff" d="M 0 1.99255 L 0 -1.99255 "/>
<path transform="matrix(0,-1,-1,-0,60.454,179.322)" stroke-width=".3985" stroke-linecap="butt" stroke-miterlimit="10" stroke-linejoin="miter" fill="none" stroke="#0000ff" d=""/>
<path transform="matrix(1,0,0,-1,33.606,182.138)" stroke-width=".3985" stroke-linecap="butt" stroke-miterlimit="10" stroke-linejoin="miter" fill="none" stroke="#0000ff" d="M 26.8479 1.59079 L 26.8479 .36534 "/>
<path transform="matrix(0,1,1,0,60.454,181.773)" stroke-width=".3985" stroke-linecap="butt" stroke-miterlimit="10" stroke-linejoin="miter" fill="none" stroke="#0000ff" d="M 0 1.99255 L 0 -1.99255 "/>
<path transform="matrix(0,1,1,0,60.454,181.773)" stroke-width=".3985" stroke-linecap="butt" stroke-miterlimit="10" stroke-linejoin="miter" fill="none" stroke="#0000ff" d=""/>
<path transform="matrix(1,0,0,-1,33.606,182.138)" stroke-width=".3985" stroke-linecap="butt" stroke-miterlimit="10" stroke-linejoin="miter" fill="none" stroke="#0000ff" d="M 40.27185 3.29851 L 40.27185 5.20404 "/>
<path transform="matrix(0,-1,-1,-0,73.878,176.934)" stroke-width=".3985" stroke-linecap="butt" stroke-miterlimit="10" stroke-linejoin="miter" fill="none" stroke="#0000ff" d="M 0 1.99255 L 0 -1.99255 "/>
<path transform="matrix(0,-1,-1,-0,73.878,176.934)" stroke-width=".3985" stroke-linecap="butt" stroke-miterlimit="10" stroke-linejoin="miter" fill="none" stroke="#0000ff" d=""/>
<path transform="matrix(1,0,0,-1,33.606,182.138)" stroke-width=".3985" stroke-linecap="butt" stroke-miterlimit="10" stroke-linejoin="miter" fill="none" stroke="#0000ff" d="M 40.27185 3.29851 L 40.27185 1.39294 "/>
<path transform="matrix(0,1,1,0,73.87699,180.745)" stroke-width=".3985" stroke-linecap="butt" stroke-miterlimit="10" stroke-linejoin="miter" fill="none" stroke="#0000ff" d="M 0 1.99255 L 0 -1.99255 "/>
<path transform="matrix(0,1,1,0,73.87699,180.745)" stroke-width=".3985" stroke-linecap="butt" stroke-miterlimit="10" stroke-linejoin="miter" fill="none" stroke="#0000ff" d=""/>
<path transform="matrix(1,0,0,-1,33.606,182.138)" stroke-width=".3985" stroke-linecap="butt" stroke-miterlimit="10" stroke-linejoin="miter" fill="none" stroke="#0000ff" d="M 53.69582 5.93945 L 53.69582 9.65614 "/>
<path transform="matrix(0,-1,-1,-0,87.302,172.482)" stroke-width=".3985" stroke-linecap="butt" stroke-miterlimit="10" stroke-linejoin="miter" fill="none" stroke="#0000ff" d="M 0 1.99255 L 0 -1.99255 "/>
<path transform="matrix(0,-1,-1,-0,87.302,172.482)" stroke-width=".3985" stroke-linecap="butt" stroke-miterlimit="10" stroke-linejoin="miter" fill="none" stroke="#0000ff" d=""/>
<path transform="matrix(1,0,0,-1,33.606,182.138)" stroke-width=".3985" stroke-linecap="butt" stroke-miterlimit="10" stroke-linejoin="miter" fill="none" stroke="#0000ff" d="M 53.69582 5.93945 L 53.69582 2.22275 "/>
<path transform="matrix(0,1,1,0,87.302,179.916)" stroke-width=".3985" stroke-linecap="butt" stroke-miterlimit="10" stroke-linejoin="miter" fill="none" stroke="#0000ff" d="M 0 1.99255 L 0 -1.99255 "/>
<path transform="matrix(0,1,1,0,87.302,179.916)" stroke-width=".3985" stroke-linecap="butt" stroke-miterlimit="10" stroke-linejoin="miter" fill="none" stroke="#0000ff" d=""/>
<path transform="matrix(1,0,0,-1,33.606,182.138)" stroke-width=".3985" stroke-linecap="butt" stroke-miterlimit="10" stroke-linejoin="miter" fill="none" stroke="#0000ff" d="M 67.11977 9.96678 L 67.11977 15.2483 "/>
<path transform="matrix(0,-1,-1,-0,100.725,166.89)" stroke-width=".3985" stroke-linecap="butt" stroke-miterlimit="10" stroke-linejoin="miter" fill="none" stroke="#0000ff" d="M 0 1.99255 L 0 -1.99255 "/>
<path transform="matrix(0,-1,-1,-0,100.725,166.89)" stroke-width=".3985" stroke-linecap="butt" stroke-miterlimit="10" stroke-linejoin="miter" fill="none" stroke="#0000ff" d=""/>
<path transform="matrix(1,0,0,-1,33.606,182.138)" stroke-width=".3985" stroke-linecap="butt" stroke-miterlimit="10" stroke-linejoin="miter" fill="none" stroke="#0000ff" d="M 67.11977 9.96678 L 67.11977 4.68524 "/>
<path transform="matrix(0,1,1,0,100.72399,177.453)" stroke-width=".3985" stroke-linecap="butt" stroke-miterlimit="10" stroke-linejoin="miter" fill="none" stroke="#0000ff" d="M 0 1.99255 L 0 -1.99255 "/>
<path transform="matrix(0,1,1,0,100.72399,177.453)" stroke-width=".3985" stroke-linecap="butt" stroke-miterlimit="10" stroke-linejoin="miter" fill="none" stroke="#0000ff" d=""/>
<path transform="matrix(1,0,0,-1,33.606,182.138)" stroke-width=".3985" stroke-linecap="butt" stroke-miterlimit="10" stroke-linejoin="miter" fill="none" stroke="#0000ff" d="M 80.54372 13.98917 L 80.54372 22.97438 "/>
<path transform="matrix(0,-1,-1,-0,114.14901,159.164)" stroke-width=".3985" stroke-linecap="butt" stroke-miterlimit="10" stroke-linejoin="miter" fill="none" stroke="#0000ff" d="M 0 1.99255 L 0 -1.99255 "/>
<path transform="matrix(0,-1,-1,-0,114.14901,159.164)" stroke-width=".3985" stroke-linecap="butt" stroke-miterlimit="10" stroke-linejoin="miter" fill="none" stroke="#0000ff" d=""/>
<path transform="matrix(1,0,0,-1,33.606,182.138)" stroke-width=".3985" stroke-linecap="butt" stroke-miterlimit="10" stroke-linejoin="miter" fill="none" stroke="#0000ff" d="M 80.54372 13.98917 L 80.54372 5.00395 "/>
<path transform="matrix(0,1,1,0,114.148,177.134)" stroke-width=".3985" stroke-linecap="butt" stroke-miterlimit="10" stroke-linejoin="miter" fill="none" stroke="#0000ff" d="M 0 1.99255 L 0 -1.99255 "/>
<path transform="matrix(0,1,1,0,114.148,177.134)" stroke-width=".3985" stroke-linecap="butt" stroke-miterlimit="10" stroke-linejoin="miter" fill="none" stroke="#0000ff" d=""/>
<path transform="matrix(1,0,0,-1,33.606,182.138)" stroke-width=".3985" stroke-linecap="butt" stroke-miterlimit="10" stroke-linejoin="miter" fill="none" stroke="#0000ff" d="M 93.96768 18.45041 L 93.96768 29.45935 "/>
<path transform="matrix(0,-1,-1,-0,127.573009,152.679)" stroke-width=".3985" stroke-linecap="butt" stroke-miterlimit="10" stroke-linejoin="miter" fill="none" stroke="#0000ff" d="M 0 1.99255 L 0 -1.99255 "/>
<path transform="matrix(0,-1,-1,-0,127.573009,152.679)" stroke-width=".3985" stroke-linecap="butt" stroke-miterlimit="10" stroke-linejoin="miter" fill="none" stroke="#0000ff" d=""/>
<path transform="matrix(1,0,0,-1,33.606,182.138)" stroke-width=".3985" stroke-linecap="butt" stroke-miterlimit="10" stroke-linejoin="miter" fill="none" stroke="#0000ff" d="M 93.96768 18.45041 L 93.96768 7.44148 "/>
<path transform="matrix(0,1,1,0,127.573,174.697)" stroke-width=".3985" stroke-linecap="butt" stroke-miterlimit="10" stroke-linejoin="miter" fill="none" stroke="#0000ff" d="M 0 1.99255 L 0 -1.99255 "/>
<path transform="matrix(0,1,1,0,127.573,174.697)" stroke-width=".3985" stroke-linecap="butt" stroke-miterlimit="10" stroke-linejoin="miter" fill="none" stroke="#0000ff" d=""/>
<path transform="matrix(1,0,0,-1,33.606,182.138)" stroke-width=".3985" stroke-linecap="butt" stroke-miterlimit="10" stroke-linejoin="miter" fill="none" stroke="#0000ff" d="M 107.39163 23.28271 L 107.39163 36.09053 "/>
<path transform="matrix(0,-1,-1,-0,140.997,146.048)" stroke-width=".3985" stroke-linecap="butt" stroke-miterlimit="10" stroke-linejoin="miter" fill="none" stroke="#0000ff" d="M 0 1.99255 L 0 -1.99255 "/>
<path transform="matrix(0,-1,-1,-0,140.997,146.048)" stroke-width=".3985" stroke-linecap="butt" stroke-miterlimit="10" stroke-linejoin="miter" fill="none" stroke="#0000ff" d=""/>
<path transform="matrix(1,0,0,-1,33.606,182.138)" stroke-width=".3985" stroke-linecap="butt" stroke-miterlimit="10" stroke-linejoin="miter" fill="none" stroke="#0000ff" d="M 107.39163 23.28271 L 107.39163 10.4749 "/>
<path transform="matrix(0,1,1,0,140.996,171.663)" stroke-width=".3985" stroke-linecap="butt" stroke-miterlimit="10" stroke-linejoin="miter" fill="none" stroke="#0000ff" d="M 0 1.99255 L 0 -1.99255 "/>
<path transform="matrix(0,1,1,0,140.996,171.663)" stroke-width=".3985" stroke-linecap="butt" stroke-miterlimit="10" stroke-linejoin="miter" fill="none" stroke="#0000ff" d=""/>
<path transform="matrix(1,0,0,-1,33.606,182.138)" stroke-width=".3985" stroke-linecap="butt" stroke-miterlimit="10" stroke-linejoin="miter" fill="none" stroke="#0000ff" d="M 120.81558 24.7583 L 120.81558 37.20888 "/>
<path transform="matrix(0,-1,-1,-0,154.42,144.93)" stroke-width=".3985" stroke-linecap="butt" stroke-miterlimit="10" stroke-linejoin="miter" fill="none" stroke="#0000ff" d="M 0 1.99255 L 0 -1.99255 "/>
<path transform="matrix(0,-1,-1,-0,154.42,144.93)" stroke-width=".3985" stroke-linecap="butt" stroke-miterlimit="10" stroke-linejoin="miter" fill="none" stroke="#0000ff" d=""/>
<path transform="matrix(1,0,0,-1,33.606,182.138)" stroke-width=".3985" stroke-linecap="butt" stroke-miterlimit="10" stroke-linejoin="miter" fill="none" stroke="#0000ff" d="M 120.81558 24.7583 L 120.81558 12.30772 "/>
<path transform="matrix(0,1,1,0,154.42099,169.831)" stroke-width=".3985" stroke-linecap="butt" stroke-miterlimit="10" stroke-linejoin="miter" fill="none" stroke="#0000ff" d="M 0 1.99255 L 0 -1.99255 "/>
<path transform="matrix(0,1,1,0,154.42099,169.831)" stroke-width=".3985" stroke-linecap="butt" stroke-miterlimit="10" stroke-linejoin="miter" fill="none" stroke="#0000ff" d=""/>
<path transform="matrix(1,0,0,-1,33.606,182.138)" stroke-width=".3985" stroke-linecap="butt" stroke-miterlimit="10" stroke-linejoin="miter" fill="none" stroke="#0000ff" d="M 134.23955 36.66046 L 134.23955 53.55617 "/>
<path transform="matrix(0,-1,-1,-0,167.843,128.58301)" stroke-width=".3985" stroke-linecap="butt" stroke-miterlimit="10" stroke-linejoin="miter" fill="none" stroke="#0000ff" d="M 0 1.99255 L 0 -1.99255 "/>
<path transform="matrix(0,-1,-1,-0,167.843,128.58301)" stroke-width=".3985" stroke-linecap="butt" stroke-miterlimit="10" stroke-linejoin="miter" fill="none" stroke="#0000ff" d=""/>
<path transform="matrix(1,0,0,-1,33.606,182.138)" stroke-width=".3985" stroke-linecap="butt" stroke-miterlimit="10" stroke-linejoin="miter" fill="none" stroke="#0000ff" d="M 134.23955 36.66046 L 134.23955 19.76477 "/>
<path transform="matrix(0,1,1,0,167.844,162.374)" stroke-width=".3985" stroke-linecap="butt" stroke-miterlimit="10" stroke-linejoin="miter" fill="none" stroke="#0000ff" d="M 0 1.99255 L 0 -1.99255 "/>
<path transform="matrix(0,1,1,0,167.844,162.374)" stroke-width=".3985" stroke-linecap="butt" stroke-miterlimit="10" stroke-linejoin="miter" fill="none" stroke="#0000ff" d=""/>
<path transform="matrix(1,0,0,-1,33.606,182.138)" stroke-width=".3985" stroke-linecap="butt" stroke-miterlimit="10" stroke-linejoin="miter" fill="none" stroke="#0000ff" d="M 147.6635 46.39523 L 147.6635 53.88492 "/>
<path transform="matrix(0,-1,-1,-0,181.26702,128.254)" stroke-width=".3985" stroke-linecap="butt" stroke-miterlimit="10" stroke-linejoin="miter" fill="none" stroke="#0000ff" d="M 0 1.99255 L 0 -1.99255 "/>
<path transform="matrix(0,-1,-1,-0,181.26702,128.254)" stroke-width=".3985" stroke-linecap="butt" stroke-miterlimit="10" stroke-linejoin="miter" fill="none" stroke="#0000ff" d=""/>
<path transform="matrix(1,0,0,-1,33.606,182.138)" stroke-width=".3985" stroke-linecap="butt" stroke-miterlimit="10" stroke-linejoin="miter" fill="none" stroke="#0000ff" d="M 147.6635 46.39523 L 147.6635 38.90553 "/>
<path transform="matrix(0,1,1,0,181.26702,143.233)" stroke-width=".3985" stroke-linecap="butt" stroke-miterlimit="10" stroke-linejoin="miter" fill="none" stroke="#0000ff" d="M 0 1.99255 L 0 -1.99255 "/>
<path transform="matrix(0,1,1,0,181.26702,143.233)" stroke-width=".3985" stroke-linecap="butt" stroke-miterlimit="10" stroke-linejoin="miter" fill="none" stroke="#0000ff" d=""/>
<path transform="matrix(1,0,0,-1,33.606,182.138)" stroke-width=".3985" stroke-linecap="butt" stroke-miterlimit="10" stroke-linejoin="miter" fill="none" stroke="#0000ff" d="M 161.08745 54.68152 L 161.08745 65.35985 "/>
<path transform="matrix(0,-1,-1,-0,194.692,116.779)" stroke-width=".3985" stroke-linecap="butt" stroke-miterlimit="10" stroke-linejoin="miter" fill="none" stroke="#0000ff" d="M 0 1.99255 L 0 -1.99255 "/>
<path transform="matrix(0,-1,-1,-0,194.692,116.779)" stroke-width=".3985" stroke-linecap="butt" stroke-miterlimit="10" stroke-linejoin="miter" fill="none" stroke="#0000ff" d=""/>
<path transform="matrix(1,0,0,-1,33.606,182.138)" stroke-width=".3985" stroke-linecap="butt" stroke-miterlimit="10" stroke-linejoin="miter" fill="none" stroke="#0000ff" d="M 161.08745 54.68152 L 161.08745 44.00319 "/>
<path transform="matrix(0,1,1,0,194.692,138.136)" stroke-width=".3985" stroke-linecap="butt" stroke-miterlimit="10" stroke-linejoin="miter" fill="none" stroke="#0000ff" d="M 0 1.99255 L 0 -1.99255 "/>
<path transform="matrix(0,1,1,0,194.692,138.136)" stroke-width=".3985" stroke-linecap="butt" stroke-miterlimit="10" stroke-linejoin="miter" fill="none" stroke="#0000ff" d=""/>
<path transform="matrix(1,0,0,-1,33.606,182.138)" stroke-width=".3985" stroke-linecap="butt" stroke-miterlimit="10" stroke-linejoin="miter" fill="none" stroke="#0000ff" d="M 174.51142 64.83409 L 174.51142 76.041 "/>
<path transform="matrix(0,-1,-1,-0,208.116,106.098)" stroke-width=".3985" stroke-linecap="butt" stroke-miterlimit="10" stroke-linejoin="miter" fill="none" stroke="#0000ff" d="M 0 1.99255 L 0 -1.99255 "/>
<path transform="matrix(0,-1,-1,-0,208.116,106.098)" stroke-width=".3985" stroke-linecap="butt" stroke-miterlimit="10" stroke-linejoin="miter" fill="none" stroke="#0000ff" d=""/>
<path transform="matrix(1,0,0,-1,33.606,182.138)" stroke-width=".3985" stroke-linecap="butt" stroke-miterlimit="10" stroke-linejoin="miter" fill="none" stroke="#0000ff" d="M 174.51142 64.83409 L 174.51142 53.62715 "/>
<path transform="matrix(0,1,1,0,208.116,128.512)" stroke-width=".3985" stroke-linecap="butt" stroke-miterlimit="10" stroke-linejoin="miter" fill="none" stroke="#0000ff" d="M 0 1.99255 L 0 -1.99255 "/>
<path transform="matrix(0,1,1,0,208.116,128.512)" stroke-width=".3985" stroke-linecap="butt" stroke-miterlimit="10" stroke-linejoin="miter" fill="none" stroke="#0000ff" d=""/>
<path transform="matrix(1,0,0,-1,33.606,182.138)" stroke-width=".3985" stroke-linecap="butt" stroke-miterlimit="10" stroke-linejoin="miter" fill="none" stroke="#0000ff" d="M 187.93537 77.15823 L 187.93537 89.98033 "/>
<path transform="matrix(0,-1,-1,-0,221.53801,92.159008)" stroke-width=".3985" stroke-linecap="butt" stroke-miterlimit="10" stroke-linejoin="miter" fill="none" stroke="#0000ff" d="M 0 1.99255 L 0 -1.99255 "/>
<path transform="matrix(0,-1,-1,-0,221.53801,92.159008)" stroke-width=".3985" stroke-linecap="butt" stroke-miterlimit="10" stroke-linejoin="miter" fill="none" stroke="#0000ff" d=""/>
<path transform="matrix(1,0,0,-1,33.606,182.138)" stroke-width=".3985" stroke-linecap="butt" stroke-miterlimit="10" stroke-linejoin="miter" fill="none" stroke="#0000ff" d="M 187.93537 77.15823 L 187.93537 64.33609 "/>
<path transform="matrix(0,1,1,0,221.539,117.803)" stroke-width=".3985" stroke-linecap="butt" stroke-miterlimit="10" stroke-linejoin="miter" fill="none" stroke="#0000ff" d="M 0 1.99255 L 0 -1.99255 "/>
<path transform="matrix(0,1,1,0,221.539,117.803)" stroke-width=".3985" stroke-linecap="butt" stroke-miterlimit="10" stroke-linejoin="miter" fill="none" stroke="#0000ff" d=""/>
<path transform="matrix(1,0,0,-1,33.606,182.138)" stroke-width=".3985" stroke-linecap="butt" stroke-miterlimit="10" stroke-linejoin="miter" fill="none" stroke="#0000ff" d="M 201.35932 87.21164 L 201.35932 103.84584 "/>
<path transform="matrix(0,-1,-1,-0,234.962,78.294)" stroke-width=".3985" stroke-linecap="butt" stroke-miterlimit="10" stroke-linejoin="miter" fill="none" stroke="#0000ff" d="M 0 1.99255 L 0 -1.99255 "/>
<path transform="matrix(0,-1,-1,-0,234.962,78.294)" stroke-width=".3985" stroke-linecap="butt" stroke-miterlimit="10" stroke-linejoin="miter" fill="none" stroke="#0000ff" d=""/>
<path transform="matrix(1,0,0,-1,33.606,182.138)" stroke-width=".3985" stroke-linecap="butt" stroke-miterlimit="10" stroke-linejoin="miter" fill="none" stroke="#0000ff" d="M 201.35932 87.21164 L 201.35932 70.57744 "/>
<path transform="matrix(0,1,1,0,234.963,111.562007)" stroke-width=".3985" stroke-linecap="butt" stroke-miterlimit="10" stroke-linejoin="miter" fill="none" stroke="#0000ff" d="M 0 1.99255 L 0 -1.99255 "/>
<path transform="matrix(0,1,1,0,234.963,111.562007)" stroke-width=".3985" stroke-linecap="butt" stroke-miterlimit="10" stroke-linejoin="miter" fill="none" stroke="#0000ff" d=""/>
<path transform="matrix(1,0,0,-1,33.606,182.138)" stroke-width=".3985" stroke-linecap="butt" stroke-miterlimit="10" stroke-linejoin="miter" fill="none" stroke="#0000ff" d="M 214.78328 100.3873 L 214.78328 117.7735 "/>
<path transform="matrix(0,-1,-1,-0,248.387,64.366)" stroke-width=".3985" stroke-linecap="butt" stroke-miterlimit="10" stroke-linejoin="miter" fill="none" stroke="#0000ff" d="M 0 1.99255 L 0 -1.99255 "/>
<path transform="matrix(0,-1,-1,-0,248.387,64.366)" stroke-width=".3985" stroke-linecap="butt" stroke-miterlimit="10" stroke-linejoin="miter" fill="none" stroke="#0000ff" d=""/>
<path transform="matrix(1,0,0,-1,33.606,182.138)" stroke-width=".3985" stroke-linecap="butt" stroke-miterlimit="10" stroke-linejoin="miter" fill="none" stroke="#0000ff" d="M 214.78328 100.3873 L 214.78328 83.00111 "/>
<path transform="matrix(0,1,1,0,248.386,99.138)" stroke-width=".3985" stroke-linecap="butt" stroke-miterlimit="10" stroke-linejoin="miter" fill="none" stroke="#0000ff" d="M 0 1.99255 L 0 -1.99255 "/>
<path transform="matrix(0,1,1,0,248.386,99.138)" stroke-width=".3985" stroke-linecap="butt" stroke-miterlimit="10" stroke-linejoin="miter" fill="none" stroke="#0000ff" d=""/>
<path transform="matrix(1,0,0,-1,33.606,182.138)" stroke-width=".3985" stroke-linecap="butt" stroke-miterlimit="10" stroke-linejoin="miter" fill="none" stroke="#0000ff" d="M 228.20723 109.94048 L 228.20723 128.1217 "/>
<path transform="matrix(0,-1,-1,-0,261.811,54.018007)" stroke-width=".3985" stroke-linecap="butt" stroke-miterlimit="10" stroke-linejoin="miter" fill="none" stroke="#0000ff" d="M 0 1.99255 L 0 -1.99255 "/>
<path transform="matrix(0,-1,-1,-0,261.811,54.018007)" stroke-width=".3985" stroke-linecap="butt" stroke-miterlimit="10" stroke-linejoin="miter" fill="none" stroke="#0000ff" d=""/>
<path transform="matrix(1,0,0,-1,33.606,182.138)" stroke-width=".3985" stroke-linecap="butt" stroke-miterlimit="10" stroke-linejoin="miter" fill="none" stroke="#0000ff" d="M 228.20723 109.94048 L 228.20723 91.75925 "/>
<path transform="matrix(0,1,1,0,261.811,90.38)" stroke-width=".3985" stroke-linecap="butt" stroke-miterlimit="10" stroke-linejoin="miter" fill="none" stroke="#0000ff" d="M 0 1.99255 L 0 -1.99255 "/>
<path transform="matrix(0,1,1,0,261.811,90.38)" stroke-width=".3985" stroke-linecap="butt" stroke-miterlimit="10" stroke-linejoin="miter" fill="none" stroke="#0000ff" d=""/>
<path transform="matrix(1,0,0,-1,33.606,182.138)" stroke-width=".3985" stroke-linecap="butt" stroke-miterlimit="10" stroke-linejoin="miter" fill="none" stroke="#0000ff" d="M 241.63118 109.6817 L 241.63118 121.40681 "/>
<path transform="matrix(0,-1,-1,-0,275.23399,60.733)" stroke-width=".3985" stroke-linecap="butt" stroke-miterlimit="10" stroke-linejoin="miter" fill="none" stroke="#0000ff" d="M 0 1.99255 L 0 -1.99255 "/>
<path transform="matrix(0,-1,-1,-0,275.23399,60.733)" stroke-width=".3985" stroke-linecap="butt" stroke-miterlimit="10" stroke-linejoin="miter" fill="none" stroke="#0000ff" d=""/>
<path transform="matrix(1,0,0,-1,33.606,182.138)" stroke-width=".3985" stroke-linecap="butt" stroke-miterlimit="10" stroke-linejoin="miter" fill="none" stroke="#0000ff" d="M 241.63118 109.6817 L 241.63118 97.9566 "/>
<path transform="matrix(0,1,1,0,275.23503,84.183)" stroke-width=".3985" stroke-linecap="butt" stroke-miterlimit="10" stroke-linejoin="miter" fill="none" stroke="#0000ff" d="M 0 1.99255 L 0 -1.99255 "/>
<path transform="matrix(0,1,1,0,275.23503,84.183)" stroke-width=".3985" stroke-linecap="butt" stroke-miterlimit="10" stroke-linejoin="miter" fill="none" stroke="#0000ff" d=""/>
<path transform="matrix(1,0,0,-1,33.606,182.138)" stroke-width=".3985" stroke-linecap="butt" stroke-miterlimit="10" stroke-linejoin="miter" fill="none" stroke="#0000ff" d="M 255.05513 113.54031 L 255.05513 118.18977 "/>
<path transform="matrix(0,-1,-1,-0,288.65699,63.949998)" stroke-width=".3985" stroke-linecap="butt" stroke-miterlimit="10" stroke-linejoin="miter" fill="none" stroke="#0000ff" d="M 0 1.99255 L 0 -1.99255 "/>
<path transform="matrix(0,-1,-1,-0,288.65699,63.949998)" stroke-width=".3985" stroke-linecap="butt" stroke-miterlimit="10" stroke-linejoin="miter" fill="none" stroke="#0000ff" d=""/>
<path transform="matrix(1,0,0,-1,33.606,182.138)" stroke-width=".3985" stroke-linecap="butt" stroke-miterlimit="10" stroke-linejoin="miter" fill="none" stroke="#0000ff" d="M 255.05513 113.54031 L 255.05513 108.89084 "/>
<path transform="matrix(0,1,1,0,288.65803,73.249)" stroke-width=".3985" stroke-linecap="butt" stroke-miterlimit="10" stroke-linejoin="miter" fill="none" stroke="#0000ff" d="M 0 1.99255 L 0 -1.99255 "/>
<path transform="matrix(0,1,1,0,288.65803,73.249)" stroke-width=".3985" stroke-linecap="butt" stroke-miterlimit="10" stroke-linejoin="miter" fill="none" stroke="#0000ff" d=""/>
<path transform="matrix(1,0,0,-1,33.606,182.138)" stroke-width=".3985" stroke-linecap="butt" stroke-miterlimit="10" stroke-linejoin="miter" fill="none" stroke="#0000ff" d="M 268.4791 149.82698 L 268.4791 165.40055 "/>
<path transform="matrix(0,-1,-1,-0,302.08097,16.740006)" stroke-width=".3985" stroke-linecap="butt" stroke-miterlimit="10" stroke-linejoin="miter" fill="none" stroke="#0000ff" d="M 0 1.99255 L 0 -1.99255 "/>
<path transform="matrix(0,-1,-1,-0,302.08097,16.740006)" stroke-width=".3985" stroke-linecap="butt" stroke-miterlimit="10" stroke-linejoin="miter" fill="none" stroke="#0000ff" d=""/>
<path transform="matrix(1,0,0,-1,33.606,182.138)" stroke-width=".3985" stroke-linecap="butt" stroke-miterlimit="10" stroke-linejoin="miter" fill="none" stroke="#0000ff" d="M 268.4791 149.82698 L 268.4791 134.25342 "/>
<path transform="matrix(0,1,1,0,302.081,47.886)" stroke-width=".3985" stroke-linecap="butt" stroke-miterlimit="10" stroke-linejoin="miter" fill="none" stroke="#0000ff" d="M 0 1.99255 L 0 -1.99255 "/>
<path transform="matrix(0,1,1,0,302.081,47.886)" stroke-width=".3985" stroke-linecap="butt" stroke-miterlimit="10" stroke-linejoin="miter" fill="none" stroke="#0000ff" d=""/>
<path transform="matrix(1,0,0,-1,33.606,182.138)" stroke-width=".3985" stroke-linecap="butt" stroke-miterlimit="10" stroke-linejoin="miter" fill="none" stroke="#0000ff" d=""/>
</g>
<path transform="matrix(1,0,0,-1,33.606,182.138)" d="M 28.84045 1.59079 C 28.84045 2.69125 27.94838 3.58334 26.8479 3.58334 C 25.74744 3.58334 24.85535 2.69125 24.85535 1.59079 C 24.85535 .49031 25.74744 -.40175 26.8479 -.40175 C 27.94838 -.40175 28.84045 .49031 28.84045 1.59079 Z M 26.8479 1.59079 " fill="#0000cc"/>
<path transform="matrix(1,0,0,-1,33.606,182.138)" stroke-width=".3985" stroke-linecap="butt" stroke-miterlimit="10" stroke-linejoin="miter" fill="none" stroke="#0000ff" d="M 28.84045 1.59079 C 28.84045 2.69125 27.94838 3.58334 26.8479 3.58334 C 25.74744 3.58334 24.85535 2.69125 24.85535 1.59079 C 24.85535 .49031 25.74744 -.40175 26.8479 -.40175 C 27.94838 -.40175 28.84045 .49031 28.84045 1.59079 Z M 26.8479 1.59079 "/>
<path transform="matrix(1,0,0,-1,33.606,182.138)" d="M 42.2644 3.29851 C 42.2644 4.39897 41.37233 5.29106 40.27185 5.29106 C 39.17139 5.29106 38.2793 4.39897 38.2793 3.29851 C 38.2793 2.19803 39.17139 1.30595 40.27185 1.30595 C 41.37233 1.30595 42.2644 2.19803 42.2644 3.29851 Z M 40.27185 3.29851 " fill="#0000cc"/>
<path transform="matrix(1,0,0,-1,33.606,182.138)" stroke-width=".3985" stroke-linecap="butt" stroke-miterlimit="10" stroke-linejoin="miter" fill="none" stroke="#0000ff" d="M 42.2644 3.29851 C 42.2644 4.39897 41.37233 5.29106 40.27185 5.29106 C 39.17139 5.29106 38.2793 4.39897 38.2793 3.29851 C 38.2793 2.19803 39.17139 1.30595 40.27185 1.30595 C 41.37233 1.30595 42.2644 2.19803 42.2644 3.29851 Z M 40.27185 3.29851 "/>
<path transform="matrix(1,0,0,-1,33.606,182.138)" d="M 55.68837 5.93945 C 55.68837 7.03992 54.79628 7.932 53.69582 7.932 C 52.59534 7.932 51.70326 7.03992 51.70326 5.93945 C 51.70326 4.83897 52.59534 3.9469 53.69582 3.9469 C 54.79628 3.9469 55.68837 4.83897 55.68837 5.93945 Z M 53.69582 5.93945 " fill="#0000cc"/>
<path transform="matrix(1,0,0,-1,33.606,182.138)" stroke-width=".3985" stroke-linecap="butt" stroke-miterlimit="10" stroke-linejoin="miter" fill="none" stroke="#0000ff" d="M 55.68837 5.93945 C 55.68837 7.03992 54.79628 7.932 53.69582 7.932 C 52.59534 7.932 51.70326 7.03992 51.70326 5.93945 C 51.70326 4.83897 52.59534 3.9469 53.69582 3.9469 C 54.79628 3.9469 55.68837 4.83897 55.68837 5.93945 Z M 53.69582 5.93945 "/>
<path transform="matrix(1,0,0,-1,33.606,182.138)" d="M 69.11232 9.96678 C 69.11232 11.06725 68.22025 11.95934 67.11977 11.95934 C 66.0193 11.95934 65.12721 11.06725 65.12721 9.96678 C 65.12721 8.8663 66.0193 7.97423 67.11977 7.97423 C 68.22025 7.97423 69.11232 8.8663 69.11232 9.96678 Z M 67.11977 9.96678 " fill="#0000cc"/>
<path transform="matrix(1,0,0,-1,33.606,182.138)" stroke-width=".3985" stroke-linecap="butt" stroke-miterlimit="10" stroke-linejoin="miter" fill="none" stroke="#0000ff" d="M 69.11232 9.96678 C 69.11232 11.06725 68.22025 11.95934 67.11977 11.95934 C 66.0193 11.95934 65.12721 11.06725 65.12721 9.96678 C 65.12721 8.8663 66.0193 7.97423 67.11977 7.97423 C 68.22025 7.97423 69.11232 8.8663 69.11232 9.96678 Z M 67.11977 9.96678 "/>
<path transform="matrix(1,0,0,-1,33.606,182.138)" d="M 82.53627 13.98917 C 82.53627 15.08965 81.6442 15.98172 80.54372 15.98172 C 79.44325 15.98172 78.55116 15.08965 78.55116 13.98917 C 78.55116 12.8887 79.44325 11.99661 80.54372 11.99661 C 81.6442 11.99661 82.53627 12.8887 82.53627 13.98917 Z M 80.54372 13.98917 " fill="#0000cc"/>
<path transform="matrix(1,0,0,-1,33.606,182.138)" stroke-width=".3985" stroke-linecap="butt" stroke-miterlimit="10" stroke-linejoin="miter" fill="none" stroke="#0000ff" d="M 82.53627 13.98917 C 82.53627 15.08965 81.6442 15.98172 80.54372 15.98172 C 79.44325 15.98172 78.55116 15.08965 78.55116 13.98917 C 78.55116 12.8887 79.44325 11.99661 80.54372 11.99661 C 81.6442 11.99661 82.53627 12.8887 82.53627 13.98917 Z M 80.54372 13.98917 "/>
<path transform="matrix(1,0,0,-1,33.606,182.138)" d="M 95.96024 18.45041 C 95.96024 19.55087 95.06815 20.44296 93.96768 20.44296 C 92.8672 20.44296 91.97513 19.55087 91.97513 18.45041 C 91.97513 17.34993 92.8672 16.45786 93.96768 16.45786 C 95.06815 16.45786 95.96024 17.34993 95.96024 18.45041 Z M 93.96768 18.45041 " fill="#0000cc"/>
<path transform="matrix(1,0,0,-1,33.606,182.138)" stroke-width=".3985" stroke-linecap="butt" stroke-miterlimit="10" stroke-linejoin="miter" fill="none" stroke="#0000ff" d="M 95.96024 18.45041 C 95.96024 19.55087 95.06815 20.44296 93.96768 20.44296 C 92.8672 20.44296 91.97513 19.55087 91.97513 18.45041 C 91.97513 17.34993 92.8672 16.45786 93.96768 16.45786 C 95.06815 16.45786 95.96024 17.34993 95.96024 18.45041 Z M 93.96768 18.45041 "/>
<path transform="matrix(1,0,0,-1,33.606,182.138)" d="M 109.38419 23.28271 C 109.38419 24.3832 108.4921 25.27527 107.39163 25.27527 C 106.29117 25.27527 105.39908 24.3832 105.39908 23.28271 C 105.39908 22.18225 106.29117 21.29016 107.39163 21.29016 C 108.4921 21.29016 109.38419 22.18225 109.38419 23.28271 Z M 107.39163 23.28271 " fill="#0000cc"/>
<path transform="matrix(1,0,0,-1,33.606,182.138)" stroke-width=".3985" stroke-linecap="butt" stroke-miterlimit="10" stroke-linejoin="miter" fill="none" stroke="#0000ff" d="M 109.38419 23.28271 C 109.38419 24.3832 108.4921 25.27527 107.39163 25.27527 C 106.29117 25.27527 105.39908 24.3832 105.39908 23.28271 C 105.39908 22.18225 106.29117 21.29016 107.39163 21.29016 C 108.4921 21.29016 109.38419 22.18225 109.38419 23.28271 Z M 107.39163 23.28271 "/>
<path transform="matrix(1,0,0,-1,33.606,182.138)" d="M 122.80814 24.7583 C 122.80814 25.85876 121.91606 26.75085 120.81558 26.75085 C 119.71512 26.75085 118.82303 25.85876 118.82303 24.7583 C 118.82303 23.65782 119.71512 22.76575 120.81558 22.76575 C 121.91606 22.76575 122.80814 23.65782 122.80814 24.7583 Z M 120.81558 24.7583 " fill="#0000cc"/>
<path transform="matrix(1,0,0,-1,33.606,182.138)" stroke-width=".3985" stroke-linecap="butt" stroke-miterlimit="10" stroke-linejoin="miter" fill="none" stroke="#0000ff" d="M 122.80814 24.7583 C 122.80814 25.85876 121.91606 26.75085 120.81558 26.75085 C 119.71512 26.75085 118.82303 25.85876 118.82303 24.7583 C 118.82303 23.65782 119.71512 22.76575 120.81558 22.76575 C 121.91606 22.76575 122.80814 23.65782 122.80814 24.7583 Z M 120.81558 24.7583 "/>
<path transform="matrix(1,0,0,-1,33.606,182.138)" d="M 136.2321 36.66046 C 136.2321 37.76093 135.34001 38.65302 134.23955 38.65302 C 133.13907 38.65302 132.247 37.76093 132.247 36.66046 C 132.247 35.55998 133.13907 34.66791 134.23955 34.66791 C 135.34001 34.66791 136.2321 35.55998 136.2321 36.66046 Z M 134.23955 36.66046 " fill="#0000cc"/>
<path transform="matrix(1,0,0,-1,33.606,182.138)" stroke-width=".3985" stroke-linecap="butt" stroke-miterlimit="10" stroke-linejoin="miter" fill="none" stroke="#0000ff" d="M 136.2321 36.66046 C 136.2321 37.76093 135.34001 38.65302 134.23955 38.65302 C 133.13907 38.65302 132.247 37.76093 132.247 36.66046 C 132.247 35.55998 133.13907 34.66791 134.23955 34.66791 C 135.34001 34.66791 136.2321 35.55998 136.2321 36.66046 Z M 134.23955 36.66046 "/>
<path transform="matrix(1,0,0,-1,33.606,182.138)" d="M 149.65605 46.39523 C 149.65605 47.4957 148.76396 48.38779 147.6635 48.38779 C 146.56302 48.38779 145.67095 47.4957 145.67095 46.39523 C 145.67095 45.29475 146.56302 44.40268 147.6635 44.40268 C 148.76396 44.40268 149.65605 45.29475 149.65605 46.39523 Z M 147.6635 46.39523 " fill="#0000cc"/>
<path transform="matrix(1,0,0,-1,33.606,182.138)" stroke-width=".3985" stroke-linecap="butt" stroke-miterlimit="10" stroke-linejoin="miter" fill="none" stroke="#0000ff" d="M 149.65605 46.39523 C 149.65605 47.4957 148.76396 48.38779 147.6635 48.38779 C 146.56302 48.38779 145.67095 47.4957 145.67095 46.39523 C 145.67095 45.29475 146.56302 44.40268 147.6635 44.40268 C 148.76396 44.40268 149.65605 45.29475 149.65605 46.39523 Z M 147.6635 46.39523 "/>
<path transform="matrix(1,0,0,-1,33.606,182.138)" d="M 163.08 54.68152 C 163.08 55.782 162.18793 56.67407 161.08745 56.67407 C 159.98699 56.67407 159.0949 55.782 159.0949 54.68152 C 159.0949 53.58105 159.98699 52.68896 161.08745 52.68896 C 162.18793 52.68896 163.08 53.58105 163.08 54.68152 Z M 161.08745 54.68152 " fill="#0000cc"/>
<path transform="matrix(1,0,0,-1,33.606,182.138)" stroke-width=".3985" stroke-linecap="butt" stroke-miterlimit="10" stroke-linejoin="miter" fill="none" stroke="#0000ff" d="M 163.08 54.68152 C 163.08 55.782 162.18793 56.67407 161.08745 56.67407 C 159.98699 56.67407 159.0949 55.782 159.0949 54.68152 C 159.0949 53.58105 159.98699 52.68896 161.08745 52.68896 C 162.18793 52.68896 163.08 53.58105 163.08 54.68152 Z M 161.08745 54.68152 "/>
<path transform="matrix(1,0,0,-1,33.606,182.138)" d="M 176.50397 64.83409 C 176.50397 65.93456 175.61188 66.82664 174.51142 66.82664 C 173.41094 66.82664 172.51886 65.93456 172.51886 64.83409 C 172.51886 63.73361 173.41094 62.84154 174.51142 62.84154 C 175.61188 62.84154 176.50397 63.73361 176.50397 64.83409 Z M 174.51142 64.83409 " fill="#0000cc"/>
<path transform="matrix(1,0,0,-1,33.606,182.138)" stroke-width=".3985" stroke-linecap="butt" stroke-miterlimit="10" stroke-linejoin="miter" fill="none" stroke="#0000ff" d="M 176.50397 64.83409 C 176.50397 65.93456 175.61188 66.82664 174.51142 66.82664 C 173.41094 66.82664 172.51886 65.93456 172.51886 64.83409 C 172.51886 63.73361 173.41094 62.84154 174.51142 62.84154 C 175.61188 62.84154 176.50397 63.73361 176.50397 64.83409 Z M 174.51142 64.83409 "/>
<path transform="matrix(1,0,0,-1,33.606,182.138)" d="M 189.92792 77.15823 C 189.92792 78.2587 189.03583 79.15079 187.93537 79.15079 C 186.83489 79.15079 185.94281 78.2587 185.94281 77.15823 C 185.94281 76.05775 186.83489 75.16568 187.93537 75.16568 C 189.03583 75.16568 189.92792 76.05775 189.92792 77.15823 Z M 187.93537 77.15823 " fill="#0000cc"/>
<path transform="matrix(1,0,0,-1,33.606,182.138)" stroke-width=".3985" stroke-linecap="butt" stroke-miterlimit="10" stroke-linejoin="miter" fill="none" stroke="#0000ff" d="M 189.92792 77.15823 C 189.92792 78.2587 189.03583 79.15079 187.93537 79.15079 C 186.83489 79.15079 185.94281 78.2587 185.94281 77.15823 C 185.94281 76.05775 186.83489 75.16568 187.93537 75.16568 C 189.03583 75.16568 189.92792 76.05775 189.92792 77.15823 Z M 187.93537 77.15823 "/>
<path transform="matrix(1,0,0,-1,33.606,182.138)" d="M 203.35187 87.21164 C 203.35187 88.31212 202.4598 89.2042 201.35932 89.2042 C 200.25885 89.2042 199.36676 88.31212 199.36676 87.21164 C 199.36676 86.11118 200.25885 85.21909 201.35932 85.21909 C 202.4598 85.21909 203.35187 86.11118 203.35187 87.21164 Z M 201.35932 87.21164 " fill="#0000cc"/>
<path transform="matrix(1,0,0,-1,33.606,182.138)" stroke-width=".3985" stroke-linecap="butt" stroke-miterlimit="10" stroke-linejoin="miter" fill="none" stroke="#0000ff" d="M 203.35187 87.21164 C 203.35187 88.31212 202.4598 89.2042 201.35932 89.2042 C 200.25885 89.2042 199.36676 88.31212 199.36676 87.21164 C 199.36676 86.11118 200.25885 85.21909 201.35932 85.21909 C 202.4598 85.21909 203.35187 86.11118 203.35187 87.21164 Z M 201.35932 87.21164 "/>
<path transform="matrix(1,0,0,-1,33.606,182.138)" d="M 216.77584 100.3873 C 216.77584 101.48778 215.88375 102.37985 214.78328 102.37985 C 213.6828 102.37985 212.79073 101.48778 212.79073 100.3873 C 212.79073 99.28683 213.6828 98.39474 214.78328 98.39474 C 215.88375 98.39474 216.77584 99.28683 216.77584 100.3873 Z M 214.78328 100.3873 " fill="#0000cc"/>
<path transform="matrix(1,0,0,-1,33.606,182.138)" stroke-width=".3985" stroke-linecap="butt" stroke-miterlimit="10" stroke-linejoin="miter" fill="none" stroke="#0000ff" d="M 216.77584 100.3873 C 216.77584 101.48778 215.88375 102.37985 214.78328 102.37985 C 213.6828 102.37985 212.79073 101.48778 212.79073 100.3873 C 212.79073 99.28683 213.6828 98.39474 214.78328 98.39474 C 215.88375 98.39474 216.77584 99.28683 216.77584 100.3873 Z M 214.78328 100.3873 "/>
<path transform="matrix(1,0,0,-1,33.606,182.138)" d="M 230.19979 109.94048 C 230.19979 111.04094 229.3077 111.93303 228.20723 111.93303 C 227.10675 111.93303 226.21468 111.04094 226.21468 109.94048 C 226.21468 108.84 227.10675 107.94792 228.20723 107.94792 C 229.3077 107.94792 230.19979 108.84 230.19979 109.94048 Z M 228.20723 109.94048 " fill="#0000cc"/>
<path transform="matrix(1,0,0,-1,33.606,182.138)" stroke-width=".3985" stroke-linecap="butt" stroke-miterlimit="10" stroke-linejoin="miter" fill="none" stroke="#0000ff" d="M 230.19979 109.94048 C 230.19979 111.04094 229.3077 111.93303 228.20723 111.93303 C 227.10675 111.93303 226.21468 111.04094 226.21468 109.94048 C 226.21468 108.84 227.10675 107.94792 228.20723 107.94792 C 229.3077 107.94792 230.19979 108.84 230.19979 109.94048 Z M 228.20723 109.94048 "/>
<path transform="matrix(1,0,0,-1,33.606,182.138)" d="M 243.62374 109.6817 C 243.62374 110.78218 242.73166 111.67426 241.63118 111.67426 C 240.53072 111.67426 239.63863 110.78218 239.63863 109.6817 C 239.63863 108.58124 240.53072 107.68915 241.63118 107.68915 C 242.73166 107.68915 243.62374 108.58124 243.62374 109.6817 Z M 241.63118 109.6817 " fill="#0000cc"/>
<path transform="matrix(1,0,0,-1,33.606,182.138)" stroke-width=".3985" stroke-linecap="butt" stroke-miterlimit="10" stroke-linejoin="miter" fill="none" stroke="#0000ff" d="M 243.62374 109.6817 C 243.62374 110.78218 242.73166 111.67426 241.63118 111.67426 C 240.53072 111.67426 239.63863 110.78218 239.63863 109.6817 C 239.63863 108.58124 240.53072 107.68915 241.63118 107.68915 C 242.73166 107.68915 243.62374 108.58124 243.62374 109.6817 Z M 241.63118 109.6817 "/>
<path transform="matrix(1,0,0,-1,33.606,182.138)" d="M 257.04768 113.54031 C 257.04768 114.6408 256.1556 115.53287 255.05513 115.53287 C 253.95467 115.53287 253.06258 114.6408 253.06258 113.54031 C 253.06258 112.43985 253.95467 111.54776 255.05513 111.54776 C 256.1556 111.54776 257.04768 112.43985 257.04768 113.54031 Z M 255.05513 113.54031 " fill="#0000cc"/>
<path transform="matrix(1,0,0,-1,33.606,182.138)" stroke-width=".3985" stroke-linecap="butt" stroke-miterlimit="10" stroke-linejoin="miter" fill="none" stroke="#0000ff" d="M 257.04768 113.54031 C 257.04768 114.6408 256.1556 115.53287 255.05513 115.53287 C 253.95467 115.53287 253.06258 114.6408 253.06258 113.54031 C 253.06258 112.43985 253.95467 111.54776 255.05513 111.54776 C 256.1556 111.54776 257.04768 112.43985 257.04768 113.54031 Z M 255.05513 113.54031 "/>
<path transform="matrix(1,0,0,-1,33.606,182.138)" d="M 270.47166 149.82698 C 270.47166 150.92746 269.57957 151.81954 268.4791 151.81954 C 267.37864 151.81954 266.48655 150.92746 266.48655 149.82698 C 266.48655 148.72652 267.37864 147.83443 268.4791 147.83443 C 269.57957 147.83443 270.47166 148.72652 270.47166 149.82698 Z M 268.4791 149.82698 " fill="#0000cc"/>
<path transform="matrix(1,0,0,-1,33.606,182.138)" stroke-width=".3985" stroke-linecap="butt" stroke-miterlimit="10" stroke-linejoin="miter" fill="none" stroke="#0000ff" d="M 270.47166 149.82698 C 270.47166 150.92746 269.57957 151.81954 268.4791 151.81954 C 267.37864 151.81954 266.48655 150.92746 266.48655 149.82698 C 266.48655 148.72652 267.37864 147.83443 268.4791 147.83443 C 269.57957 147.83443 270.47166 148.72652 270.47166 149.82698 Z M 268.4791 149.82698 "/>
<path transform="matrix(1,0,0,-1,33.606,182.138)" stroke-width=".3985" stroke-linecap="butt" stroke-miterlimit="10" stroke-linejoin="miter" fill="none" stroke="#0000ff" d=""/>
<text xml:space="preserve" transform="matrix(1 0 -0 1 0 212.202)" font-size="9.9626" font-family="CMR10"><tspan y="-5.812" x="135.039 142.65042 145.42003 150.40132 153.17093 157.04639 164.2892 168.16466 170.93427 179.80098 183.67644 189.21564 194.19693 199.72617 203.66139 208.64269 214.18189 219.71112 223.64635">Digits(inthousands)</tspan></text>
<text xml:space="preserve" transform="matrix(0 -1 1 0 112.981 120.807)" font-size="9.9626" font-family="CMR10"><tspan y="-102.188" x="10.793 17.985999 20.755602 29.054448 36.795389 40.670839 44.596105">Time(s)</tspan></text>
<path transform="matrix(1,0,0,-1,33.606,182.138)" d="M 304.38737 165.3592 L 429.7247 165.3592 L 429.7247 181.74234 L 304.38737 181.74234 Z " fill="#ffffff"/>
<path transform="matrix(1,0,0,-1,33.606,182.138)" stroke-width=".3985" stroke-linecap="butt" stroke-miterlimit="10" stroke-linejoin="miter" fill="none" stroke="#000000" d="M 304.38737 165.3592 L 429.7247 165.3592 L 429.7247 181.74234 L 304.38737 181.74234 Z "/>
<path transform="matrix(1,0,0,-1,334.467,8.5890049)" stroke-width=".3985" stroke-linecap="butt" stroke-miterlimit="10" stroke-linejoin="miter" fill="none" stroke="#0000ff" d=""/>
<path transform="matrix(1,0,0,-1,334.467,8.5890049)" d="M 10.49667 0 C 10.49667 1.10046 9.60458 1.99255 8.50412 1.99255 C 7.40364 1.99255 6.51157 1.10046 6.51157 0 C 6.51157 -1.10046 7.40364 -1.99255 8.50412 -1.99255 C 9.60458 -1.99255 10.49667 -1.10046 10.49667 0 Z M 8.50412 0 " fill="#0000cc"/>
<path transform="matrix(1,0,0,-1,334.467,8.5890049)" stroke-width=".3985" stroke-linecap="butt" stroke-miterlimit="10" stroke-linejoin="miter" fill="none" stroke="#0000ff" d="M 10.49667 0 C 10.49667 1.10046 9.60458 1.99255 8.50412 1.99255 C 7.40364 1.99255 6.51157 1.10046 6.51157 0 C 6.51157 -1.10046 7.40364 -1.99255 8.50412 -1.99255 C 9.60458 -1.99255 10.49667 -1.10046 10.49667 0 Z M 8.50412 0 "/>
<text xml:space="preserve" transform="matrix(1 0 -0 1 .000030517579 212.202)" font-size="9.9626" font-family="CMR10"><tspan y="-200.9" x="346.956 353.18263 360.93354 372.07173 379.2747 387.09535 399.54859 406.74159 409.51118 413.38664 422.24339 425.29194 430.27323 434.1985 441.40147 445.32673 450.58699 454.4923">LOGAGMwithfastsqrt</tspan></text>
</g>
</svg>
