<?xml version="1.0" encoding="UTF-8" standalone="no"?>
<!DOCTYPE svg PUBLIC "-//W3C//DTD SVG 1.1//EN" "http://www.w3.org/Graphics/SVG/1.1/DTD/svg11.dtd">
<svg xmlns="http://www.w3.org/2000/svg" xmlns:xlink="http://www.w3.org/1999/xlink" version="1.1" width="486.397pt" height="212.205pt" viewBox="0 0 486.397 212.205">
<g enable-background="new">
<clipPath id="cp0">
<path transform="matrix(1,0,0,-1,56.478,184.528)" d="M 0 -139.3514 L 295.32865 -139.3514 L 295.32865 326.06785 L 0 326.06785 "/>
</clipPath>
<g clip-path="url(#cp0)">
<path transform="matrix(1,0,0,-1,56.478,184.528)" stroke-width=".19925" stroke-linecap="butt" stroke-miterlimit="10" stroke-linejoin="miter" fill="none" stroke="#929292" d="M 0 2.38618 L 0 6.63814 M 26.8479 2.38618 L 26.8479 6.63814 M 53.69582 2.38618 L 53.69582 6.63814 M 80.54372 2.38618 L 80.54372 6.63814 M 107.39163 2.38618 L 107.39163 6.63814 M 134.23955 2.38618 L 134.23955 6.63814 M 161.08745 2.38618 L 161.08745 6.63814 M 187.93537 2.38618 L 187.93537 6.63814 M 214.78328 2.38618 L 214.78328 6.63814 M 241.63118 2.38618 L 241.63118 6.63814 M 268.4791 2.38618 L 268.4791 6.63814 M 295.327 2.38618 L 295.327 6.63814 M 0 184.33023 L 0 180.07828 M 26.8479 184.33023 L 26.8479 180.07828 M 53.69582 184.33023 L 53.69582 180.07828 M 80.54372 184.33023 L 80.54372 180.07828 M 107.39163 184.33023 L 107.39163 180.07828 M 134.23955 184.33023 L 134.23955 180.07828 M 161.08745 184.33023 L 161.08745 180.07828 M 187.93537 184.33023 L 187.93537 180.07828 M 214.78328 184.33023 L 214.78328 180.07828 M 241.63118 184.33023 L 241.63118 180.07828 M 268.4791 184.33023 L 268.4791 180.07828 M 295.327 184.33023 L 295.327 180.07828 "/>
</g>
<clipPath id="cp1">
<path transform="matrix(1,0,0,-1,56.478,184.528)" d="M -141.73282 2.38618 L -141.73282 184.33023 L 437.0615 184.33023 L 437.0615 2.38618 "/>
</clipPath>
<g clip-path="url(#cp1)">
<path transform="matrix(1,0,0,-1,56.478,184.528)" stroke-width=".19925" stroke-linecap="butt" stroke-miterlimit="10" stroke-linejoin="miter" fill="none" stroke="#929292" d="M 0 2.38618 L 4.25175 2.38618 M 0 36.54807 L 4.25175 36.54807 M 0 70.70996 L 4.25175 70.70996 M 0 104.87184 L 4.25175 104.87184 M 0 139.03372 L 4.25175 139.03372 M 0 173.19562 L 4.25175 173.19562 M 295.32865 2.38618 L 291.07688 2.38618 M 295.32865 36.54807 L 291.07688 36.54807 M 295.32865 70.70996 L 291.07688 70.70996 M 295.32865 104.87184 L 291.07688 104.87184 M 295.32865 139.03372 L 291.07688 139.03372 M 295.32865 173.19562 L 291.07688 173.19562 "/>
</g>
<path transform="matrix(1,0,0,-1,56.478,184.528)" stroke-width=".3985" stroke-linecap="butt" stroke-miterlimit="10" stroke-linejoin="miter" fill="none" stroke="#000000" d="M 0 2.38618 L 0 184.33023 L 295.32865 184.33023 L 295.32865 2.38618 L 0 2.38618 Z "/>
<text xml:space="preserve" transform="matrix(1 0 -0 1 0 212.205)" font-size="9.9626" font-family="CMR10"><tspan y="-20.123" x="53.988">0</tspan></text>
<text xml:space="preserve" transform="matrix(1 0 -0 1 0 212.205)" font-size="9.9626" font-family="CMR10"><tspan y="-20.123" x="80.835">1</tspan></text>
<text xml:space="preserve" transform="matrix(1 0 -0 1 0 212.205)" font-size="9.9626" font-family="CMR10"><tspan y="-20.123" x="107.683">2</tspan></text>
<text xml:space="preserve" transform="matrix(1 0 -0 1 0 212.205)" font-size="9.9626" font-family="CMR10"><tspan y="-20.123" x="134.53">3</tspan></text>
<text xml:space="preserve" transform="matrix(1 0 -0 1 0 212.205)" font-size="9.9626" font-family="CMR10"><tspan y="-20.123" x="161.378">4</tspan></text>
<text xml:space="preserve" transform="matrix(1 0 -0 1 0 212.205)" font-size="9.9626" font-family="CMR10"><tspan y="-20.123" x="188.226">5</tspan></text>
<text xml:space="preserve" transform="matrix(1 0 -0 1 0 212.205)" font-size="9.9626" font-family="CMR10"><tspan y="-20.123" x="215.073">6</tspan></text>
<text xml:space="preserve" transform="matrix(1 0 -0 1 -.000015258789 212.205)" font-size="9.9626" font-family="CMR10"><tspan y="-20.123" x="241.921">7</tspan></text>
<text xml:space="preserve" transform="matrix(1 0 -0 1 0 212.205)" font-size="9.9626" font-family="CMR10"><tspan y="-20.123" x="268.768">8</tspan></text>
<text xml:space="preserve" transform="matrix(1 0 -0 1 0 212.205)" font-size="9.9626" font-family="CMR10"><tspan y="-20.123" x="295.616">9</tspan></text>
<text xml:space="preserve" transform="matrix(1 0 -0 1 0 212.205)" font-size="9.9626" font-family="CMR10"><tspan y="-20.123" x="319.973 324.95429">10</tspan></text>
<text xml:space="preserve" transform="matrix(1 0 -0 1 0 212.205)" font-size="9.9626" font-family="CMR10"><tspan y="-20.123" x="346.82 351.8013">11</tspan></text>
<text xml:space="preserve" transform="matrix(1 0 -0 1 0 212.205)" font-size="9.9626" font-family="CMR10"><tspan y="-26.853" x="47.977">0</tspan></text>
<text xml:space="preserve" transform="matrix(1 0 -0 1 .0000019073487 212.205)" font-size="9.9626" font-family="CMR10"><tspan y="-60.17" x="20.123">5</tspan></text>
<text xml:space="preserve" transform="matrix(1 0 -0 1 .0000019073487 212.205)" font-size="9.9626" font-family="CMSY10" font-style="italic"><tspan y="-60.17" x="27.319">&#x00b7;</tspan></text>
<text xml:space="preserve" transform="matrix(1 0 -0 1 .0000019073487 212.205)" font-size="9.9626" font-family="CMR10"><tspan y="-60.17" x="32.3 37.2813">10</tspan></text>
<text xml:space="preserve" transform="matrix(1 0 -0 1 .0000019073487 212.205)" font-size="6.9738" font-family="CMSY7" font-style="italic"><tspan y="-63.785" x="42.263">&#x2212;</tspan></text>
<text xml:space="preserve" transform="matrix(1 0 -0 1 .0000019073487 212.205)" font-size="6.9738" font-family="CMR7"><tspan y="-63.785" x="48.489">2</tspan></text>
<text xml:space="preserve" transform="matrix(1 0 -0 1 0 212.205)" font-size="9.9626" font-family="CMR10"><tspan y="-95.176" x="40.229">0</tspan></text>
<text xml:space="preserve" transform="matrix(1 0 -0 1 0 212.205)" font-size="9.9626" font-family="CMMI10" font-style="italic"><tspan y="-95.176" x="45.21">.</tspan></text>
<text xml:space="preserve" transform="matrix(1 0 -0 1 0 212.205)" font-size="9.9626" font-family="CMR10"><tspan y="-95.176" x="47.976999">1</tspan></text>
<text xml:space="preserve" transform="matrix(1 0 -0 1 0 212.20499)" font-size="9.9626" font-family="CMR10"><tspan y="-129.338" x="35.247">0</tspan></text>
<text xml:space="preserve" transform="matrix(1 0 -0 1 0 212.20499)" font-size="9.9626" font-family="CMMI10" font-style="italic"><tspan y="-129.338" x="40.229">.</tspan></text>
<text xml:space="preserve" transform="matrix(1 0 -0 1 0 212.20499)" font-size="9.9626" font-family="CMR10"><tspan y="-129.338" x="42.996 47.9773">15</tspan></text>
<text xml:space="preserve" transform="matrix(1 0 -0 1 0 212.20499)" font-size="9.9626" font-family="CMR10"><tspan y="-163.499" x="40.229">0</tspan></text>
<text xml:space="preserve" transform="matrix(1 0 -0 1 0 212.20499)" font-size="9.9626" font-family="CMMI10" font-style="italic"><tspan y="-163.499" x="45.21">.</tspan></text>
<text xml:space="preserve" transform="matrix(1 0 -0 1 0 212.20499)" font-size="9.9626" font-family="CMR10"><tspan y="-163.499" x="47.976999">2</tspan></text>
<text xml:space="preserve" transform="matrix(1 0 -0 1 0 212.205)" font-size="9.9626" font-family="CMR10"><tspan y="-197.66" x="35.247">0</tspan></text>
<text xml:space="preserve" transform="matrix(1 0 -0 1 0 212.205)" font-size="9.9626" font-family="CMMI10" font-style="italic"><tspan y="-197.66" x="40.229">.</tspan></text>
<text xml:space="preserve" transform="matrix(1 0 -0 1 0 212.205)" font-size="9.9626" font-family="CMR10"><tspan y="-197.66" x="42.996 47.9773">25</tspan></text>
<clipPath id="cp2">
<path transform="matrix(1,0,0,-1,56.478,184.528)" d="M 0 2.38618 L 295.32865 2.38618 L 295.32865 184.33023 L 0 184.33023 Z "/>
</clipPath>
<g clip-path="url(#cp2)">
<path transform="matrix(1,0,0,-1,56.478,184.528)" stroke-width=".3985" stroke-linecap="butt" stroke-miterlimit="10" stroke-linejoin="miter" fill="none" stroke="#0000ff" d="M 26.8479 4.11012 L 26.8479 5.20679 "/>
<path transform="matrix(0,-1,-1,-0,83.326007,179.321)" stroke-width=".3985" stroke-linecap="butt" stroke-miterlimit="10" stroke-linejoin="miter" fill="none" stroke="#0000ff" d="M 0 1.99255 L 0 -1.99255 "/>
<path transform="matrix(0,-1,-1,-0,83.326007,179.321)" stroke-width=".3985" stroke-linecap="butt" stroke-miterlimit="10" stroke-linejoin="miter" fill="none" stroke="#0000ff" d=""/>
<path transform="matrix(1,0,0,-1,56.478,184.528)" stroke-width=".3985" stroke-linecap="butt" stroke-miterlimit="10" stroke-linejoin="miter" fill="none" stroke="#0000ff" d="M 26.8479 4.11012 L 26.8479 3.01344 "/>
<path transform="matrix(0,1,1,0,83.325,181.514)" stroke-width=".3985" stroke-linecap="butt" stroke-miterlimit="10" stroke-linejoin="miter" fill="none" stroke="#0000ff" d="M 0 1.99255 L 0 -1.99255 "/>
<path transform="matrix(0,1,1,0,83.325,181.514)" stroke-width=".3985" stroke-linecap="butt" stroke-miterlimit="10" stroke-linejoin="miter" fill="none" stroke="#0000ff" d=""/>
<path transform="matrix(1,0,0,-1,56.478,184.528)" stroke-width=".3985" stroke-linecap="butt" stroke-miterlimit="10" stroke-linejoin="miter" fill="none" stroke="#0000ff" d="M 40.27185 6.2243 L 40.27185 8.74028 "/>
<path transform="matrix(0,-1,-1,-0,96.74901,175.788)" stroke-width=".3985" stroke-linecap="butt" stroke-miterlimit="10" stroke-linejoin="miter" fill="none" stroke="#0000ff" d="M 0 1.99255 L 0 -1.99255 "/>
<path transform="matrix(0,-1,-1,-0,96.74901,175.788)" stroke-width=".3985" stroke-linecap="butt" stroke-miterlimit="10" stroke-linejoin="miter" fill="none" stroke="#0000ff" d=""/>
<path transform="matrix(1,0,0,-1,56.478,184.528)" stroke-width=".3985" stroke-linecap="butt" stroke-miterlimit="10" stroke-linejoin="miter" fill="none" stroke="#0000ff" d="M 40.27185 6.2243 L 40.27185 3.70831 "/>
<path transform="matrix(0,1,1,0,96.75,180.82)" stroke-width=".3985" stroke-linecap="butt" stroke-miterlimit="10" stroke-linejoin="miter" fill="none" stroke="#0000ff" d="M 0 1.99255 L 0 -1.99255 "/>
<path transform="matrix(0,1,1,0,96.75,180.82)" stroke-width=".3985" stroke-linecap="butt" stroke-miterlimit="10" stroke-linejoin="miter" fill="none" stroke="#0000ff" d=""/>
<path transform="matrix(1,0,0,-1,56.478,184.528)" stroke-width=".3985" stroke-linecap="butt" stroke-miterlimit="10" stroke-linejoin="miter" fill="none" stroke="#0000ff" d="M 53.69582 9.42552 L 53.69582 18.85106 "/>
<path transform="matrix(0,-1,-1,-0,110.173007,165.677)" stroke-width=".3985" stroke-linecap="butt" stroke-miterlimit="10" stroke-linejoin="miter" fill="none" stroke="#0000ff" d="M 0 1.99255 L 0 -1.99255 "/>
<path transform="matrix(0,-1,-1,-0,110.173007,165.677)" stroke-width=".3985" stroke-linecap="butt" stroke-miterlimit="10" stroke-linejoin="miter" fill="none" stroke="#0000ff" d=""/>
<path transform="matrix(1,0,0,-1,56.478,184.528)" stroke-width=".3985" stroke-linecap="butt" stroke-miterlimit="10" stroke-linejoin="miter" fill="none" stroke="#0000ff" d="M 53.69582 9.42552 L 53.69582 0 "/>
<path transform="matrix(0,1,1,0,110.173999,184.528)" stroke-width=".3985" stroke-linecap="butt" stroke-miterlimit="10" stroke-linejoin="miter" fill="none" stroke="#0000ff" d="M 0 1.99255 L 0 -1.99255 "/>
<path transform="matrix(0,1,1,0,110.173999,184.528)" stroke-width=".3985" stroke-linecap="butt" stroke-miterlimit="10" stroke-linejoin="miter" fill="none" stroke="#0000ff" d=""/>
<path transform="matrix(1,0,0,-1,56.478,184.528)" stroke-width=".3985" stroke-linecap="butt" stroke-miterlimit="10" stroke-linejoin="miter" fill="none" stroke="#0000ff" d="M 67.11977 11.69475 L 67.11977 18.82057 "/>
<path transform="matrix(0,-1,-1,-0,123.598,165.707)" stroke-width=".3985" stroke-linecap="butt" stroke-miterlimit="10" stroke-linejoin="miter" fill="none" stroke="#0000ff" d="M 0 1.99255 L 0 -1.99255 "/>
<path transform="matrix(0,-1,-1,-0,123.598,165.707)" stroke-width=".3985" stroke-linecap="butt" stroke-miterlimit="10" stroke-linejoin="miter" fill="none" stroke="#0000ff" d=""/>
<path transform="matrix(1,0,0,-1,56.478,184.528)" stroke-width=".3985" stroke-linecap="butt" stroke-miterlimit="10" stroke-linejoin="miter" fill="none" stroke="#0000ff" d="M 67.11977 11.69475 L 67.11977 4.56894 "/>
<path transform="matrix(0,1,1,0,123.59799,179.959)" stroke-width=".3985" stroke-linecap="butt" stroke-miterlimit="10" stroke-linejoin="miter" fill="none" stroke="#0000ff" d="M 0 1.99255 L 0 -1.99255 "/>
<path transform="matrix(0,1,1,0,123.59799,179.959)" stroke-width=".3985" stroke-linecap="butt" stroke-miterlimit="10" stroke-linejoin="miter" fill="none" stroke="#0000ff" d=""/>
<path transform="matrix(1,0,0,-1,56.478,184.528)" stroke-width=".3985" stroke-linecap="butt" stroke-miterlimit="10" stroke-linejoin="miter" fill="none" stroke="#0000ff" d="M 80.54372 15.17258 L 80.54372 28.42616 "/>
<path transform="matrix(0,-1,-1,-0,137.022,156.102)" stroke-width=".3985" stroke-linecap="butt" stroke-miterlimit="10" stroke-linejoin="miter" fill="none" stroke="#0000ff" d="M 0 1.99255 L 0 -1.99255 "/>
<path transform="matrix(0,-1,-1,-0,137.022,156.102)" stroke-width=".3985" stroke-linecap="butt" stroke-miterlimit="10" stroke-linejoin="miter" fill="none" stroke="#0000ff" d=""/>
<path transform="matrix(1,0,0,-1,56.478,184.528)" stroke-width=".3985" stroke-linecap="butt" stroke-miterlimit="10" stroke-linejoin="miter" fill="none" stroke="#0000ff" d="M 80.54372 15.17258 L 80.54372 1.91899 "/>
<path transform="matrix(0,1,1,0,137.021,182.609)" stroke-width=".3985" stroke-linecap="butt" stroke-miterlimit="10" stroke-linejoin="miter" fill="none" stroke="#0000ff" d="M 0 1.99255 L 0 -1.99255 "/>
<path transform="matrix(0,1,1,0,137.021,182.609)" stroke-width=".3985" stroke-linecap="butt" stroke-miterlimit="10" stroke-linejoin="miter" fill="none" stroke="#0000ff" d=""/>
<path transform="matrix(1,0,0,-1,56.478,184.528)" stroke-width=".3985" stroke-linecap="butt" stroke-miterlimit="10" stroke-linejoin="miter" fill="none" stroke="#0000ff" d="M 93.96768 16.81392 L 93.96768 27.86604 "/>
<path transform="matrix(0,-1,-1,-0,150.44499,156.662)" stroke-width=".3985" stroke-linecap="butt" stroke-miterlimit="10" stroke-linejoin="miter" fill="none" stroke="#0000ff" d="M 0 1.99255 L 0 -1.99255 "/>
<path transform="matrix(0,-1,-1,-0,150.44499,156.662)" stroke-width=".3985" stroke-linecap="butt" stroke-miterlimit="10" stroke-linejoin="miter" fill="none" stroke="#0000ff" d=""/>
<path transform="matrix(1,0,0,-1,56.478,184.528)" stroke-width=".3985" stroke-linecap="butt" stroke-miterlimit="10" stroke-linejoin="miter" fill="none" stroke="#0000ff" d="M 93.96768 16.81392 L 93.96768 5.76178 "/>
<path transform="matrix(0,1,1,0,150.444,178.766)" stroke-width=".3985" stroke-linecap="butt" stroke-miterlimit="10" stroke-linejoin="miter" fill="none" stroke="#0000ff" d="M 0 1.99255 L 0 -1.99255 "/>
<path transform="matrix(0,1,1,0,150.444,178.766)" stroke-width=".3985" stroke-linecap="butt" stroke-miterlimit="10" stroke-linejoin="miter" fill="none" stroke="#0000ff" d=""/>
<path transform="matrix(1,0,0,-1,56.478,184.528)" stroke-width=".3985" stroke-linecap="butt" stroke-miterlimit="10" stroke-linejoin="miter" fill="none" stroke="#0000ff" d="M 107.39163 20.46861 L 107.39163 32.15677 "/>
<path transform="matrix(0,-1,-1,-0,163.86801,152.37201)" stroke-width=".3985" stroke-linecap="butt" stroke-miterlimit="10" stroke-linejoin="miter" fill="none" stroke="#0000ff" d="M 0 1.99255 L 0 -1.99255 "/>
<path transform="matrix(0,-1,-1,-0,163.86801,152.37201)" stroke-width=".3985" stroke-linecap="butt" stroke-miterlimit="10" stroke-linejoin="miter" fill="none" stroke="#0000ff" d=""/>
<path transform="matrix(1,0,0,-1,56.478,184.528)" stroke-width=".3985" stroke-linecap="butt" stroke-miterlimit="10" stroke-linejoin="miter" fill="none" stroke="#0000ff" d="M 107.39163 20.46861 L 107.39163 8.78047 "/>
<path transform="matrix(0,1,1,0,163.869,175.748)" stroke-width=".3985" stroke-linecap="butt" stroke-miterlimit="10" stroke-linejoin="miter" fill="none" stroke="#0000ff" d="M 0 1.99255 L 0 -1.99255 "/>
<path transform="matrix(0,1,1,0,163.869,175.748)" stroke-width=".3985" stroke-linecap="butt" stroke-miterlimit="10" stroke-linejoin="miter" fill="none" stroke="#0000ff" d=""/>
<path transform="matrix(1,0,0,-1,56.478,184.528)" stroke-width=".3985" stroke-linecap="butt" stroke-miterlimit="10" stroke-linejoin="miter" fill="none" stroke="#0000ff" d="M 120.81558 25.69649 L 120.81558 44.19398 "/>
<path transform="matrix(0,-1,-1,-0,177.293,140.334)" stroke-width=".3985" stroke-linecap="butt" stroke-miterlimit="10" stroke-linejoin="miter" fill="none" stroke="#0000ff" d="M 0 1.99255 L 0 -1.99255 "/>
<path transform="matrix(0,-1,-1,-0,177.293,140.334)" stroke-width=".3985" stroke-linecap="butt" stroke-miterlimit="10" stroke-linejoin="miter" fill="none" stroke="#0000ff" d=""/>
<path transform="matrix(1,0,0,-1,56.478,184.528)" stroke-width=".3985" stroke-linecap="butt" stroke-miterlimit="10" stroke-linejoin="miter" fill="none" stroke="#0000ff" d="M 120.81558 25.69649 L 120.81558 7.19897 "/>
<path transform="matrix(0,1,1,0,177.293,177.329)" stroke-width=".3985" stroke-linecap="butt" stroke-miterlimit="10" stroke-linejoin="miter" fill="none" stroke="#0000ff" d="M 0 1.99255 L 0 -1.99255 "/>
<path transform="matrix(0,1,1,0,177.293,177.329)" stroke-width=".3985" stroke-linecap="butt" stroke-miterlimit="10" stroke-linejoin="miter" fill="none" stroke="#0000ff" d=""/>
<path transform="matrix(1,0,0,-1,56.478,184.528)" stroke-width=".3985" stroke-linecap="butt" stroke-miterlimit="10" stroke-linejoin="miter" fill="none" stroke="#0000ff" d="M 134.23955 30.26959 L 134.23955 43.79518 "/>
<path transform="matrix(0,-1,-1,-0,190.717,140.733)" stroke-width=".3985" stroke-linecap="butt" stroke-miterlimit="10" stroke-linejoin="miter" fill="none" stroke="#0000ff" d="M 0 1.99255 L 0 -1.99255 "/>
<path transform="matrix(0,-1,-1,-0,190.717,140.733)" stroke-width=".3985" stroke-linecap="butt" stroke-miterlimit="10" stroke-linejoin="miter" fill="none" stroke="#0000ff" d=""/>
<path transform="matrix(1,0,0,-1,56.478,184.528)" stroke-width=".3985" stroke-linecap="butt" stroke-miterlimit="10" stroke-linejoin="miter" fill="none" stroke="#0000ff" d="M 134.23955 30.26959 L 134.23955 16.74402 "/>
<path transform="matrix(0,1,1,0,190.716,167.784)" stroke-width=".3985" stroke-linecap="butt" stroke-miterlimit="10" stroke-linejoin="miter" fill="none" stroke="#0000ff" d="M 0 1.99255 L 0 -1.99255 "/>
<path transform="matrix(0,1,1,0,190.716,167.784)" stroke-width=".3985" stroke-linecap="butt" stroke-miterlimit="10" stroke-linejoin="miter" fill="none" stroke="#0000ff" d=""/>
<path transform="matrix(1,0,0,-1,56.478,184.528)" stroke-width=".3985" stroke-linecap="butt" stroke-miterlimit="10" stroke-linejoin="miter" fill="none" stroke="#0000ff" d="M 147.6635 34.6141 L 147.6635 56.46378 "/>
<path transform="matrix(0,-1,-1,-0,204.139,128.065)" stroke-width=".3985" stroke-linecap="butt" stroke-miterlimit="10" stroke-linejoin="miter" fill="none" stroke="#0000ff" d="M 0 1.99255 L 0 -1.99255 "/>
<path transform="matrix(0,-1,-1,-0,204.139,128.065)" stroke-width=".3985" stroke-linecap="butt" stroke-miterlimit="10" stroke-linejoin="miter" fill="none" stroke="#0000ff" d=""/>
<path transform="matrix(1,0,0,-1,56.478,184.528)" stroke-width=".3985" stroke-linecap="butt" stroke-miterlimit="10" stroke-linejoin="miter" fill="none" stroke="#0000ff" d="M 147.6635 34.6141 L 147.6635 12.76443 "/>
<path transform="matrix(0,1,1,0,204.14,171.764)" stroke-width=".3985" stroke-linecap="butt" stroke-miterlimit="10" stroke-linejoin="miter" fill="none" stroke="#0000ff" d="M 0 1.99255 L 0 -1.99255 "/>
<path transform="matrix(0,1,1,0,204.14,171.764)" stroke-width=".3985" stroke-linecap="butt" stroke-miterlimit="10" stroke-linejoin="miter" fill="none" stroke="#0000ff" d=""/>
<path transform="matrix(1,0,0,-1,56.478,184.528)" stroke-width=".3985" stroke-linecap="butt" stroke-miterlimit="10" stroke-linejoin="miter" fill="none" stroke="#0000ff" d="M 161.08745 31.84021 L 161.08745 50.54578 "/>
<path transform="matrix(0,-1,-1,-0,217.563,133.983)" stroke-width=".3985" stroke-linecap="butt" stroke-miterlimit="10" stroke-linejoin="miter" fill="none" stroke="#0000ff" d="M 0 1.99255 L 0 -1.99255 "/>
<path transform="matrix(0,-1,-1,-0,217.563,133.983)" stroke-width=".3985" stroke-linecap="butt" stroke-miterlimit="10" stroke-linejoin="miter" fill="none" stroke="#0000ff" d=""/>
<path transform="matrix(1,0,0,-1,56.478,184.528)" stroke-width=".3985" stroke-linecap="butt" stroke-miterlimit="10" stroke-linejoin="miter" fill="none" stroke="#0000ff" d="M 161.08745 31.84021 L 161.08745 13.13469 "/>
<path transform="matrix(0,1,1,0,217.563,171.393)" stroke-width=".3985" stroke-linecap="butt" stroke-miterlimit="10" stroke-linejoin="miter" fill="none" stroke="#0000ff" d="M 0 1.99255 L 0 -1.99255 "/>
<path transform="matrix(0,1,1,0,217.563,171.393)" stroke-width=".3985" stroke-linecap="butt" stroke-miterlimit="10" stroke-linejoin="miter" fill="none" stroke="#0000ff" d=""/>
<path transform="matrix(1,0,0,-1,56.478,184.528)" stroke-width=".3985" stroke-linecap="butt" stroke-miterlimit="10" stroke-linejoin="miter" fill="none" stroke="#0000ff" d="M 174.51142 42.79771 L 174.51142 68.45341 "/>
<path transform="matrix(0,-1,-1,-0,230.98799,116.075)" stroke-width=".3985" stroke-linecap="butt" stroke-miterlimit="10" stroke-linejoin="miter" fill="none" stroke="#0000ff" d="M 0 1.99255 L 0 -1.99255 "/>
<path transform="matrix(0,-1,-1,-0,230.98799,116.075)" stroke-width=".3985" stroke-linecap="butt" stroke-miterlimit="10" stroke-linejoin="miter" fill="none" stroke="#0000ff" d=""/>
<path transform="matrix(1,0,0,-1,56.478,184.528)" stroke-width=".3985" stroke-linecap="butt" stroke-miterlimit="10" stroke-linejoin="miter" fill="none" stroke="#0000ff" d="M 174.51142 42.79771 L 174.51142 17.142 "/>
<path transform="matrix(0,1,1,0,230.987,167.386)" stroke-width=".3985" stroke-linecap="butt" stroke-miterlimit="10" stroke-linejoin="miter" fill="none" stroke="#0000ff" d="M 0 1.99255 L 0 -1.99255 "/>
<path transform="matrix(0,1,1,0,230.987,167.386)" stroke-width=".3985" stroke-linecap="butt" stroke-miterlimit="10" stroke-linejoin="miter" fill="none" stroke="#0000ff" d=""/>
<path transform="matrix(1,0,0,-1,56.478,184.528)" stroke-width=".3985" stroke-linecap="butt" stroke-miterlimit="10" stroke-linejoin="miter" fill="none" stroke="#0000ff" d="M 187.93537 52.11394 L 187.93537 84.03603 "/>
<path transform="matrix(0,-1,-1,-0,244.411,100.493)" stroke-width=".3985" stroke-linecap="butt" stroke-miterlimit="10" stroke-linejoin="miter" fill="none" stroke="#0000ff" d="M 0 1.99255 L 0 -1.99255 "/>
<path transform="matrix(0,-1,-1,-0,244.411,100.493)" stroke-width=".3985" stroke-linecap="butt" stroke-miterlimit="10" stroke-linejoin="miter" fill="none" stroke="#0000ff" d=""/>
<path transform="matrix(1,0,0,-1,56.478,184.528)" stroke-width=".3985" stroke-linecap="butt" stroke-miterlimit="10" stroke-linejoin="miter" fill="none" stroke="#0000ff" d="M 187.93537 52.11394 L 187.93537 20.19183 "/>
<path transform="matrix(0,1,1,0,244.411,164.336)" stroke-width=".3985" stroke-linecap="butt" stroke-miterlimit="10" stroke-linejoin="miter" fill="none" stroke="#0000ff" d="M 0 1.99255 L 0 -1.99255 "/>
<path transform="matrix(0,1,1,0,244.411,164.336)" stroke-width=".3985" stroke-linecap="butt" stroke-miterlimit="10" stroke-linejoin="miter" fill="none" stroke="#0000ff" d=""/>
<path transform="matrix(1,0,0,-1,56.478,184.528)" stroke-width=".3985" stroke-linecap="butt" stroke-miterlimit="10" stroke-linejoin="miter" fill="none" stroke="#0000ff" d="M 201.35932 60.39812 L 201.35932 96.82106 "/>
<path transform="matrix(0,-1,-1,-0,257.835,87.708)" stroke-width=".3985" stroke-linecap="butt" stroke-miterlimit="10" stroke-linejoin="miter" fill="none" stroke="#0000ff" d="M 0 1.99255 L 0 -1.99255 "/>
<path transform="matrix(0,-1,-1,-0,257.835,87.708)" stroke-width=".3985" stroke-linecap="butt" stroke-miterlimit="10" stroke-linejoin="miter" fill="none" stroke="#0000ff" d=""/>
<path transform="matrix(1,0,0,-1,56.478,184.528)" stroke-width=".3985" stroke-linecap="butt" stroke-miterlimit="10" stroke-linejoin="miter" fill="none" stroke="#0000ff" d="M 201.35932 60.39812 L 201.35932 23.9752 "/>
<path transform="matrix(0,1,1,0,257.83399,160.553)" stroke-width=".3985" stroke-linecap="butt" stroke-miterlimit="10" stroke-linejoin="miter" fill="none" stroke="#0000ff" d="M 0 1.99255 L 0 -1.99255 "/>
<path transform="matrix(0,1,1,0,257.83399,160.553)" stroke-width=".3985" stroke-linecap="butt" stroke-miterlimit="10" stroke-linejoin="miter" fill="none" stroke="#0000ff" d=""/>
<path transform="matrix(1,0,0,-1,56.478,184.528)" stroke-width=".3985" stroke-linecap="butt" stroke-miterlimit="10" stroke-linejoin="miter" fill="none" stroke="#0000ff" d="M 214.78328 67.54596 L 214.78328 108.56065 "/>
<path transform="matrix(0,-1,-1,-0,271.258,75.969)" stroke-width=".3985" stroke-linecap="butt" stroke-miterlimit="10" stroke-linejoin="miter" fill="none" stroke="#0000ff" d="M 0 1.99255 L 0 -1.99255 "/>
<path transform="matrix(0,-1,-1,-0,271.258,75.969)" stroke-width=".3985" stroke-linecap="butt" stroke-miterlimit="10" stroke-linejoin="miter" fill="none" stroke="#0000ff" d=""/>
<path transform="matrix(1,0,0,-1,56.478,184.528)" stroke-width=".3985" stroke-linecap="butt" stroke-miterlimit="10" stroke-linejoin="miter" fill="none" stroke="#0000ff" d="M 214.78328 67.54596 L 214.78328 26.53127 "/>
<path transform="matrix(0,1,1,0,271.258,157.997)" stroke-width=".3985" stroke-linecap="butt" stroke-miterlimit="10" stroke-linejoin="miter" fill="none" stroke="#0000ff" d="M 0 1.99255 L 0 -1.99255 "/>
<path transform="matrix(0,1,1,0,271.258,157.997)" stroke-width=".3985" stroke-linecap="butt" stroke-miterlimit="10" stroke-linejoin="miter" fill="none" stroke="#0000ff" d=""/>
<path transform="matrix(1,0,0,-1,56.478,184.528)" stroke-width=".3985" stroke-linecap="butt" stroke-miterlimit="10" stroke-linejoin="miter" fill="none" stroke="#0000ff" d="M 228.20723 77.31482 L 228.20723 124.20604 "/>
<path transform="matrix(0,-1,-1,-0,284.682,60.323999)" stroke-width=".3985" stroke-linecap="butt" stroke-miterlimit="10" stroke-linejoin="miter" fill="none" stroke="#0000ff" d="M 0 1.99255 L 0 -1.99255 "/>
<path transform="matrix(0,-1,-1,-0,284.682,60.323999)" stroke-width=".3985" stroke-linecap="butt" stroke-miterlimit="10" stroke-linejoin="miter" fill="none" stroke="#0000ff" d=""/>
<path transform="matrix(1,0,0,-1,56.478,184.528)" stroke-width=".3985" stroke-linecap="butt" stroke-miterlimit="10" stroke-linejoin="miter" fill="none" stroke="#0000ff" d="M 228.20723 77.31482 L 228.20723 30.4236 "/>
<path transform="matrix(0,1,1,0,284.683,154.105)" stroke-width=".3985" stroke-linecap="butt" stroke-miterlimit="10" stroke-linejoin="miter" fill="none" stroke="#0000ff" d="M 0 1.99255 L 0 -1.99255 "/>
<path transform="matrix(0,1,1,0,284.683,154.105)" stroke-width=".3985" stroke-linecap="butt" stroke-miterlimit="10" stroke-linejoin="miter" fill="none" stroke="#0000ff" d=""/>
<path transform="matrix(1,0,0,-1,56.478,184.528)" stroke-width=".3985" stroke-linecap="butt" stroke-miterlimit="10" stroke-linejoin="miter" fill="none" stroke="#0000ff" d="M 241.63118 86.20102 L 241.63118 136.82147 "/>
<path transform="matrix(0,-1,-1,-0,298.107,47.707994)" stroke-width=".3985" stroke-linecap="butt" stroke-miterlimit="10" stroke-linejoin="miter" fill="none" stroke="#0000ff" d="M 0 1.99255 L 0 -1.99255 "/>
<path transform="matrix(0,-1,-1,-0,298.107,47.707994)" stroke-width=".3985" stroke-linecap="butt" stroke-miterlimit="10" stroke-linejoin="miter" fill="none" stroke="#0000ff" d=""/>
<path transform="matrix(1,0,0,-1,56.478,184.528)" stroke-width=".3985" stroke-linecap="butt" stroke-miterlimit="10" stroke-linejoin="miter" fill="none" stroke="#0000ff" d="M 241.63118 86.20102 L 241.63118 35.58054 "/>
<path transform="matrix(0,1,1,0,298.10704,148.948)" stroke-width=".3985" stroke-linecap="butt" stroke-miterlimit="10" stroke-linejoin="miter" fill="none" stroke="#0000ff" d="M 0 1.99255 L 0 -1.99255 "/>
<path transform="matrix(0,1,1,0,298.10704,148.948)" stroke-width=".3985" stroke-linecap="butt" stroke-miterlimit="10" stroke-linejoin="miter" fill="none" stroke="#0000ff" d=""/>
<path transform="matrix(1,0,0,-1,56.478,184.528)" stroke-width=".3985" stroke-linecap="butt" stroke-miterlimit="10" stroke-linejoin="miter" fill="none" stroke="#0000ff" d="M 255.05513 96.79597 L 255.05513 155.13697 "/>
<path transform="matrix(0,-1,-1,-0,311.53,29.393006)" stroke-width=".3985" stroke-linecap="butt" stroke-miterlimit="10" stroke-linejoin="miter" fill="none" stroke="#0000ff" d="M 0 1.99255 L 0 -1.99255 "/>
<path transform="matrix(0,-1,-1,-0,311.53,29.393006)" stroke-width=".3985" stroke-linecap="butt" stroke-miterlimit="10" stroke-linejoin="miter" fill="none" stroke="#0000ff" d=""/>
<path transform="matrix(1,0,0,-1,56.478,184.528)" stroke-width=".3985" stroke-linecap="butt" stroke-miterlimit="10" stroke-linejoin="miter" fill="none" stroke="#0000ff" d="M 255.05513 96.79597 L 255.05513 38.45499 "/>
<path transform="matrix(0,1,1,0,311.52903,146.073)" stroke-width=".3985" stroke-linecap="butt" stroke-miterlimit="10" stroke-linejoin="miter" fill="none" stroke="#0000ff" d="M 0 1.99255 L 0 -1.99255 "/>
<path transform="matrix(0,1,1,0,311.52903,146.073)" stroke-width=".3985" stroke-linecap="butt" stroke-miterlimit="10" stroke-linejoin="miter" fill="none" stroke="#0000ff" d=""/>
<path transform="matrix(1,0,0,-1,56.478,184.528)" stroke-width=".3985" stroke-linecap="butt" stroke-miterlimit="10" stroke-linejoin="miter" fill="none" stroke="#0000ff" d="M 268.4791 105.22919 L 268.4791 167.78894 "/>
<path transform="matrix(0,-1,-1,-0,324.95399,16.740998)" stroke-width=".3985" stroke-linecap="butt" stroke-miterlimit="10" stroke-linejoin="miter" fill="none" stroke="#0000ff" d="M 0 1.99255 L 0 -1.99255 "/>
<path transform="matrix(0,-1,-1,-0,324.95399,16.740998)" stroke-width=".3985" stroke-linecap="butt" stroke-miterlimit="10" stroke-linejoin="miter" fill="none" stroke="#0000ff" d=""/>
<path transform="matrix(1,0,0,-1,56.478,184.528)" stroke-width=".3985" stroke-linecap="butt" stroke-miterlimit="10" stroke-linejoin="miter" fill="none" stroke="#0000ff" d="M 268.4791 105.22919 L 268.4791 42.6694 "/>
<path transform="matrix(0,1,1,0,324.953,141.85901)" stroke-width=".3985" stroke-linecap="butt" stroke-miterlimit="10" stroke-linejoin="miter" fill="none" stroke="#0000ff" d="M 0 1.99255 L 0 -1.99255 "/>
<path transform="matrix(0,1,1,0,324.953,141.85901)" stroke-width=".3985" stroke-linecap="butt" stroke-miterlimit="10" stroke-linejoin="miter" fill="none" stroke="#0000ff" d=""/>
<path transform="matrix(1,0,0,-1,56.478,184.528)" stroke-width=".3985" stroke-linecap="butt" stroke-miterlimit="10" stroke-linejoin="miter" fill="none" stroke="#0000ff" d=""/>
</g>
<path transform="matrix(1,0,0,-1,56.478,184.528)" d="M 28.84045 4.11012 C 28.84045 5.21059 27.94838 6.10268 26.8479 6.10268 C 25.74744 6.10268 24.85535 5.21059 24.85535 4.11012 C 24.85535 3.00964 25.74744 2.11757 26.8479 2.11757 C 27.94838 2.11757 28.84045 3.00964 28.84045 4.11012 Z M 26.8479 4.11012 " fill="#0000cc"/>
<path transform="matrix(1,0,0,-1,56.478,184.528)" stroke-width=".3985" stroke-linecap="butt" stroke-miterlimit="10" stroke-linejoin="miter" fill="none" stroke="#0000ff" d="M 28.84045 4.11012 C 28.84045 5.21059 27.94838 6.10268 26.8479 6.10268 C 25.74744 6.10268 24.85535 5.21059 24.85535 4.11012 C 24.85535 3.00964 25.74744 2.11757 26.8479 2.11757 C 27.94838 2.11757 28.84045 3.00964 28.84045 4.11012 Z M 26.8479 4.11012 "/>
<path transform="matrix(1,0,0,-1,56.478,184.528)" d="M 42.2644 6.2243 C 42.2644 7.32478 41.37233 8.21686 40.27185 8.21686 C 39.17139 8.21686 38.2793 7.32478 38.2793 6.2243 C 38.2793 5.12384 39.17139 4.23175 40.27185 4.23175 C 41.37233 4.23175 42.2644 5.12384 42.2644 6.2243 Z M 40.27185 6.2243 " fill="#0000cc"/>
<path transform="matrix(1,0,0,-1,56.478,184.528)" stroke-width=".3985" stroke-linecap="butt" stroke-miterlimit="10" stroke-linejoin="miter" fill="none" stroke="#0000ff" d="M 42.2644 6.2243 C 42.2644 7.32478 41.37233 8.21686 40.27185 8.21686 C 39.17139 8.21686 38.2793 7.32478 38.2793 6.2243 C 38.2793 5.12384 39.17139 4.23175 40.27185 4.23175 C 41.37233 4.23175 42.2644 5.12384 42.2644 6.2243 Z M 40.27185 6.2243 "/>
<path transform="matrix(1,0,0,-1,56.478,184.528)" d="M 55.68837 9.42552 C 55.68837 10.526 54.79628 11.41808 53.69582 11.41808 C 52.59534 11.41808 51.70326 10.526 51.70326 9.42552 C 51.70326 8.32506 52.59534 7.43297 53.69582 7.43297 C 54.79628 7.43297 55.68837 8.32506 55.68837 9.42552 Z M 53.69582 9.42552 " fill="#0000cc"/>
<path transform="matrix(1,0,0,-1,56.478,184.528)" stroke-width=".3985" stroke-linecap="butt" stroke-miterlimit="10" stroke-linejoin="miter" fill="none" stroke="#0000ff" d="M 55.68837 9.42552 C 55.68837 10.526 54.79628 11.41808 53.69582 11.41808 C 52.59534 11.41808 51.70326 10.526 51.70326 9.42552 C 51.70326 8.32506 52.59534 7.43297 53.69582 7.43297 C 54.79628 7.43297 55.68837 8.32506 55.68837 9.42552 Z M 53.69582 9.42552 "/>
<path transform="matrix(1,0,0,-1,56.478,184.528)" d="M 69.11232 11.69475 C 69.11232 12.79523 68.22025 13.6873 67.11977 13.6873 C 66.0193 13.6873 65.12721 12.79523 65.12721 11.69475 C 65.12721 10.59428 66.0193 9.7022 67.11977 9.7022 C 68.22025 9.7022 69.11232 10.59428 69.11232 11.69475 Z M 67.11977 11.69475 " fill="#0000cc"/>
<path transform="matrix(1,0,0,-1,56.478,184.528)" stroke-width=".3985" stroke-linecap="butt" stroke-miterlimit="10" stroke-linejoin="miter" fill="none" stroke="#0000ff" d="M 69.11232 11.69475 C 69.11232 12.79523 68.22025 13.6873 67.11977 13.6873 C 66.0193 13.6873 65.12721 12.79523 65.12721 11.69475 C 65.12721 10.59428 66.0193 9.7022 67.11977 9.7022 C 68.22025 9.7022 69.11232 10.59428 69.11232 11.69475 Z M 67.11977 11.69475 "/>
<path transform="matrix(1,0,0,-1,56.478,184.528)" d="M 82.53627 15.17258 C 82.53627 16.27304 81.6442 17.16513 80.54372 17.16513 C 79.44325 17.16513 78.55116 16.27304 78.55116 15.17258 C 78.55116 14.0721 79.44325 13.18002 80.54372 13.18002 C 81.6442 13.18002 82.53627 14.0721 82.53627 15.17258 Z M 80.54372 15.17258 " fill="#0000cc"/>
<path transform="matrix(1,0,0,-1,56.478,184.528)" stroke-width=".3985" stroke-linecap="butt" stroke-miterlimit="10" stroke-linejoin="miter" fill="none" stroke="#0000ff" d="M 82.53627 15.17258 C 82.53627 16.27304 81.6442 17.16513 80.54372 17.16513 C 79.44325 17.16513 78.55116 16.27304 78.55116 15.17258 C 78.55116 14.0721 79.44325 13.18002 80.54372 13.18002 C 81.6442 13.18002 82.53627 14.0721 82.53627 15.17258 Z M 80.54372 15.17258 "/>
<path transform="matrix(1,0,0,-1,56.478,184.528)" d="M 95.96024 16.81392 C 95.96024 17.91438 95.06815 18.80647 93.96768 18.80647 C 92.8672 18.80647 91.97513 17.91438 91.97513 16.81392 C 91.97513 15.71344 92.8672 14.82137 93.96768 14.82137 C 95.06815 14.82137 95.96024 15.71344 95.96024 16.81392 Z M 93.96768 16.81392 " fill="#0000cc"/>
<path transform="matrix(1,0,0,-1,56.478,184.528)" stroke-width=".3985" stroke-linecap="butt" stroke-miterlimit="10" stroke-linejoin="miter" fill="none" stroke="#0000ff" d="M 95.96024 16.81392 C 95.96024 17.91438 95.06815 18.80647 93.96768 18.80647 C 92.8672 18.80647 91.97513 17.91438 91.97513 16.81392 C 91.97513 15.71344 92.8672 14.82137 93.96768 14.82137 C 95.06815 14.82137 95.96024 15.71344 95.96024 16.81392 Z M 93.96768 16.81392 "/>
<path transform="matrix(1,0,0,-1,56.478,184.528)" d="M 109.38419 20.46861 C 109.38419 21.56909 108.4921 22.46117 107.39163 22.46117 C 106.29117 22.46117 105.39908 21.56909 105.39908 20.46861 C 105.39908 19.36815 106.29117 18.47606 107.39163 18.47606 C 108.4921 18.47606 109.38419 19.36815 109.38419 20.46861 Z M 107.39163 20.46861 " fill="#0000cc"/>
<path transform="matrix(1,0,0,-1,56.478,184.528)" stroke-width=".3985" stroke-linecap="butt" stroke-miterlimit="10" stroke-linejoin="miter" fill="none" stroke="#0000ff" d="M 109.38419 20.46861 C 109.38419 21.56909 108.4921 22.46117 107.39163 22.46117 C 106.29117 22.46117 105.39908 21.56909 105.39908 20.46861 C 105.39908 19.36815 106.29117 18.47606 107.39163 18.47606 C 108.4921 18.47606 109.38419 19.36815 109.38419 20.46861 Z M 107.39163 20.46861 "/>
<path transform="matrix(1,0,0,-1,56.478,184.528)" d="M 122.80814 25.69649 C 122.80814 26.79697 121.91606 27.68904 120.81558 27.68904 C 119.71512 27.68904 118.82303 26.79697 118.82303 25.69649 C 118.82303 24.59602 119.71512 23.70393 120.81558 23.70393 C 121.91606 23.70393 122.80814 24.59602 122.80814 25.69649 Z M 120.81558 25.69649 " fill="#0000cc"/>
<path transform="matrix(1,0,0,-1,56.478,184.528)" stroke-width=".3985" stroke-linecap="butt" stroke-miterlimit="10" stroke-linejoin="miter" fill="none" stroke="#0000ff" d="M 122.80814 25.69649 C 122.80814 26.79697 121.91606 27.68904 120.81558 27.68904 C 119.71512 27.68904 118.82303 26.79697 118.82303 25.69649 C 118.82303 24.59602 119.71512 23.70393 120.81558 23.70393 C 121.91606 23.70393 122.80814 24.59602 122.80814 25.69649 Z M 120.81558 25.69649 "/>
<path transform="matrix(1,0,0,-1,56.478,184.528)" d="M 136.2321 30.26959 C 136.2321 31.37007 135.34001 32.26215 134.23955 32.26215 C 133.13907 32.26215 132.247 31.37007 132.247 30.26959 C 132.247 29.16913 133.13907 28.27704 134.23955 28.27704 C 135.34001 28.27704 136.2321 29.16913 136.2321 30.26959 Z M 134.23955 30.26959 " fill="#0000cc"/>
<path transform="matrix(1,0,0,-1,56.478,184.528)" stroke-width=".3985" stroke-linecap="butt" stroke-miterlimit="10" stroke-linejoin="miter" fill="none" stroke="#0000ff" d="M 136.2321 30.26959 C 136.2321 31.37007 135.34001 32.26215 134.23955 32.26215 C 133.13907 32.26215 132.247 31.37007 132.247 30.26959 C 132.247 29.16913 133.13907 28.27704 134.23955 28.27704 C 135.34001 28.27704 136.2321 29.16913 136.2321 30.26959 Z M 134.23955 30.26959 "/>
<path transform="matrix(1,0,0,-1,56.478,184.528)" d="M 149.65605 34.6141 C 149.65605 35.71458 148.76396 36.60666 147.6635 36.60666 C 146.56302 36.60666 145.67095 35.71458 145.67095 34.6141 C 145.67095 33.51364 146.56302 32.62155 147.6635 32.62155 C 148.76396 32.62155 149.65605 33.51364 149.65605 34.6141 Z M 147.6635 34.6141 " fill="#0000cc"/>
<path transform="matrix(1,0,0,-1,56.478,184.528)" stroke-width=".3985" stroke-linecap="butt" stroke-miterlimit="10" stroke-linejoin="miter" fill="none" stroke="#0000ff" d="M 149.65605 34.6141 C 149.65605 35.71458 148.76396 36.60666 147.6635 36.60666 C 146.56302 36.60666 145.67095 35.71458 145.67095 34.6141 C 145.67095 33.51364 146.56302 32.62155 147.6635 32.62155 C 148.76396 32.62155 149.65605 33.51364 149.65605 34.6141 Z M 147.6635 34.6141 "/>
<path transform="matrix(1,0,0,-1,56.478,184.528)" d="M 163.08 31.84021 C 163.08 32.94069 162.18793 33.83276 161.08745 33.83276 C 159.98699 33.83276 159.0949 32.94069 159.0949 31.84021 C 159.0949 30.73975 159.98699 29.84766 161.08745 29.84766 C 162.18793 29.84766 163.08 30.73975 163.08 31.84021 Z M 161.08745 31.84021 " fill="#0000cc"/>
<path transform="matrix(1,0,0,-1,56.478,184.528)" stroke-width=".3985" stroke-linecap="butt" stroke-miterlimit="10" stroke-linejoin="miter" fill="none" stroke="#0000ff" d="M 163.08 31.84021 C 163.08 32.94069 162.18793 33.83276 161.08745 33.83276 C 159.98699 33.83276 159.0949 32.94069 159.0949 31.84021 C 159.0949 30.73975 159.98699 29.84766 161.08745 29.84766 C 162.18793 29.84766 163.08 30.73975 163.08 31.84021 Z M 161.08745 31.84021 "/>
<path transform="matrix(1,0,0,-1,56.478,184.528)" d="M 176.50397 42.79771 C 176.50397 43.89818 175.61188 44.79027 174.51142 44.79027 C 173.41094 44.79027 172.51886 43.89818 172.51886 42.79771 C 172.51886 41.69724 173.41094 40.80516 174.51142 40.80516 C 175.61188 40.80516 176.50397 41.69724 176.50397 42.79771 Z M 174.51142 42.79771 " fill="#0000cc"/>
<path transform="matrix(1,0,0,-1,56.478,184.528)" stroke-width=".3985" stroke-linecap="butt" stroke-miterlimit="10" stroke-linejoin="miter" fill="none" stroke="#0000ff" d="M 176.50397 42.79771 C 176.50397 43.89818 175.61188 44.79027 174.51142 44.79027 C 173.41094 44.79027 172.51886 43.89818 172.51886 42.79771 C 172.51886 41.69724 173.41094 40.80516 174.51142 40.80516 C 175.61188 40.80516 176.50397 41.69724 176.50397 42.79771 Z M 174.51142 42.79771 "/>
<path transform="matrix(1,0,0,-1,56.478,184.528)" d="M 189.92792 52.11394 C 189.92792 53.21442 189.03583 54.10649 187.93537 54.10649 C 186.83489 54.10649 185.94281 53.21442 185.94281 52.11394 C 185.94281 51.01347 186.83489 50.12138 187.93537 50.12138 C 189.03583 50.12138 189.92792 51.01347 189.92792 52.11394 Z M 187.93537 52.11394 " fill="#0000cc"/>
<path transform="matrix(1,0,0,-1,56.478,184.528)" stroke-width=".3985" stroke-linecap="butt" stroke-miterlimit="10" stroke-linejoin="miter" fill="none" stroke="#0000ff" d="M 189.92792 52.11394 C 189.92792 53.21442 189.03583 54.10649 187.93537 54.10649 C 186.83489 54.10649 185.94281 53.21442 185.94281 52.11394 C 185.94281 51.01347 186.83489 50.12138 187.93537 50.12138 C 189.03583 50.12138 189.92792 51.01347 189.92792 52.11394 Z M 187.93537 52.11394 "/>
<path transform="matrix(1,0,0,-1,56.478,184.528)" d="M 203.35187 60.39812 C 203.35187 61.4986 202.4598 62.39067 201.35932 62.39067 C 200.25885 62.39067 199.36676 61.4986 199.36676 60.39812 C 199.36676 59.29765 200.25885 58.40556 201.35932 58.40556 C 202.4598 58.40556 203.35187 59.29765 203.35187 60.39812 Z M 201.35932 60.39812 " fill="#0000cc"/>
<path transform="matrix(1,0,0,-1,56.478,184.528)" stroke-width=".3985" stroke-linecap="butt" stroke-miterlimit="10" stroke-linejoin="miter" fill="none" stroke="#0000ff" d="M 203.35187 60.39812 C 203.35187 61.4986 202.4598 62.39067 201.35932 62.39067 C 200.25885 62.39067 199.36676 61.4986 199.36676 60.39812 C 199.36676 59.29765 200.25885 58.40556 201.35932 58.40556 C 202.4598 58.40556 203.35187 59.29765 203.35187 60.39812 Z M 201.35932 60.39812 "/>
<path transform="matrix(1,0,0,-1,56.478,184.528)" d="M 216.77584 67.54596 C 216.77584 68.64642 215.88375 69.53851 214.78328 69.53851 C 213.6828 69.53851 212.79073 68.64642 212.79073 67.54596 C 212.79073 66.44548 213.6828 65.5534 214.78328 65.5534 C 215.88375 65.5534 216.77584 66.44548 216.77584 67.54596 Z M 214.78328 67.54596 " fill="#0000cc"/>
<path transform="matrix(1,0,0,-1,56.478,184.528)" stroke-width=".3985" stroke-linecap="butt" stroke-miterlimit="10" stroke-linejoin="miter" fill="none" stroke="#0000ff" d="M 216.77584 67.54596 C 216.77584 68.64642 215.88375 69.53851 214.78328 69.53851 C 213.6828 69.53851 212.79073 68.64642 212.79073 67.54596 C 212.79073 66.44548 213.6828 65.5534 214.78328 65.5534 C 215.88375 65.5534 216.77584 66.44548 216.77584 67.54596 Z M 214.78328 67.54596 "/>
<path transform="matrix(1,0,0,-1,56.478,184.528)" d="M 230.19979 77.31482 C 230.19979 78.4153 229.3077 79.30737 228.20723 79.30737 C 227.10675 79.30737 226.21468 78.4153 226.21468 77.31482 C 226.21468 76.21436 227.10675 75.32227 228.20723 75.32227 C 229.3077 75.32227 230.19979 76.21436 230.19979 77.31482 Z M 228.20723 77.31482 " fill="#0000cc"/>
<path transform="matrix(1,0,0,-1,56.478,184.528)" stroke-width=".3985" stroke-linecap="butt" stroke-miterlimit="10" stroke-linejoin="miter" fill="none" stroke="#0000ff" d="M 230.19979 77.31482 C 230.19979 78.4153 229.3077 79.30737 228.20723 79.30737 C 227.10675 79.30737 226.21468 78.4153 226.21468 77.31482 C 226.21468 76.21436 227.10675 75.32227 228.20723 75.32227 C 229.3077 75.32227 230.19979 76.21436 230.19979 77.31482 Z M 228.20723 77.31482 "/>
<path transform="matrix(1,0,0,-1,56.478,184.528)" d="M 243.62374 86.20102 C 243.62374 87.30148 242.73166 88.19357 241.63118 88.19357 C 240.53072 88.19357 239.63863 87.30148 239.63863 86.20102 C 239.63863 85.10054 240.53072 84.20847 241.63118 84.20847 C 242.73166 84.20847 243.62374 85.10054 243.62374 86.20102 Z M 241.63118 86.20102 " fill="#0000cc"/>
<path transform="matrix(1,0,0,-1,56.478,184.528)" stroke-width=".3985" stroke-linecap="butt" stroke-miterlimit="10" stroke-linejoin="miter" fill="none" stroke="#0000ff" d="M 243.62374 86.20102 C 243.62374 87.30148 242.73166 88.19357 241.63118 88.19357 C 240.53072 88.19357 239.63863 87.30148 239.63863 86.20102 C 239.63863 85.10054 240.53072 84.20847 241.63118 84.20847 C 242.73166 84.20847 243.62374 85.10054 243.62374 86.20102 Z M 241.63118 86.20102 "/>
<path transform="matrix(1,0,0,-1,56.478,184.528)" d="M 257.04768 96.79597 C 257.04768 97.89644 256.1556 98.78853 255.05513 98.78853 C 253.95467 98.78853 253.06258 97.89644 253.06258 96.79597 C 253.06258 95.69551 253.95467 94.80342 255.05513 94.80342 C 256.1556 94.80342 257.04768 95.69551 257.04768 96.79597 Z M 255.05513 96.79597 " fill="#0000cc"/>
<path transform="matrix(1,0,0,-1,56.478,184.528)" stroke-width=".3985" stroke-linecap="butt" stroke-miterlimit="10" stroke-linejoin="miter" fill="none" stroke="#0000ff" d="M 257.04768 96.79597 C 257.04768 97.89644 256.1556 98.78853 255.05513 98.78853 C 253.95467 98.78853 253.06258 97.89644 253.06258 96.79597 C 253.06258 95.69551 253.95467 94.80342 255.05513 94.80342 C 256.1556 94.80342 257.04768 95.69551 257.04768 96.79597 Z M 255.05513 96.79597 "/>
<path transform="matrix(1,0,0,-1,56.478,184.528)" d="M 270.47166 105.22919 C 270.47166 106.32965 269.57957 107.22174 268.4791 107.22174 C 267.37864 107.22174 266.48655 106.32965 266.48655 105.22919 C 266.48655 104.12871 267.37864 103.23663 268.4791 103.23663 C 269.57957 103.23663 270.47166 104.12871 270.47166 105.22919 Z M 268.4791 105.22919 " fill="#0000cc"/>
<path transform="matrix(1,0,0,-1,56.478,184.528)" stroke-width=".3985" stroke-linecap="butt" stroke-miterlimit="10" stroke-linejoin="miter" fill="none" stroke="#0000ff" d="M 270.47166 105.22919 C 270.47166 106.32965 269.57957 107.22174 268.4791 107.22174 C 267.37864 107.22174 266.48655 106.32965 266.48655 105.22919 C 266.48655 104.12871 267.37864 103.23663 268.4791 103.23663 C 269.57957 103.23663 270.47166 104.12871 270.47166 105.22919 Z M 268.4791 105.22919 "/>
<path transform="matrix(1,0,0,-1,56.478,184.528)" stroke-width=".3985" stroke-linecap="butt" stroke-miterlimit="10" stroke-linejoin="miter" fill="none" stroke="#0000ff" d=""/>
<text xml:space="preserve" transform="matrix(1 0 -0 1 0 212.205)" font-size="9.9626" font-family="CMR10"><tspan y="-5.811" x="157.911 165.52242 168.29203 173.27332 176.04293 179.91838 187.1612 191.03665 193.80626 202.67298 206.54843 212.08763 217.06893 222.60813 226.53339 231.51468 237.05388 242.58312 246.51834">Digits(inthousands)</tspan></text>
<text xml:space="preserve" transform="matrix(0 -1 1 0 112.98 120.809)" font-size="9.9626" font-family="CMR10"><tspan y="-102.188" x="10.792 17.984997 20.7546 29.053448 36.794389 40.669839 44.595106">Time(s)</tspan></text>
<path transform="matrix(1,0,0,-1,56.478,184.528)" d="M 304.38737 167.74784 L 429.7247 167.74784 L 429.7247 184.13097 L 304.38737 184.13097 Z " fill="#ffffff"/>
<path transform="matrix(1,0,0,-1,56.478,184.528)" stroke-width=".3985" stroke-linecap="butt" stroke-miterlimit="10" stroke-linejoin="miter" fill="none" stroke="#000000" d="M 304.38737 167.74784 L 429.7247 167.74784 L 429.7247 184.13097 L 304.38737 184.13097 Z "/>
<path transform="matrix(1,0,0,-1,357.33903,8.591003)" stroke-width=".3985" stroke-linecap="butt" stroke-miterlimit="10" stroke-linejoin="miter" fill="none" stroke="#0000ff" d=""/>
<path transform="matrix(1,0,0,-1,357.33903,8.591003)" d="M 10.49667 0 C 10.49667 1.10046 9.60458 1.99255 8.50412 1.99255 C 7.40364 1.99255 6.51157 1.10046 6.51157 0 C 6.51157 -1.10046 7.40364 -1.99255 8.50412 -1.99255 C 9.60458 -1.99255 10.49667 -1.10046 10.49667 0 Z M 8.50412 0 " fill="#0000cc"/>
<path transform="matrix(1,0,0,-1,357.33903,8.591003)" stroke-width=".3985" stroke-linecap="butt" stroke-miterlimit="10" stroke-linejoin="miter" fill="none" stroke="#0000ff" d="M 10.49667 0 C 10.49667 1.10046 9.60458 1.99255 8.50412 1.99255 C 7.40364 1.99255 6.51157 1.10046 6.51157 0 C 6.51157 -1.10046 7.40364 -1.99255 8.50412 -1.99255 C 9.60458 -1.99255 10.49667 -1.10046 10.49667 0 Z M 8.50412 0 "/>
<text xml:space="preserve" transform="matrix(1 0 -0 1 .000030517579 212.205)" font-size="9.9626" font-family="CMR10"><tspan y="-200.902" x="369.828 376.05464 383.80555 394.94374 402.1467 409.96736 422.4206 429.6136 432.38319 436.25865 445.1154 448.16395 453.14524 457.0705 464.27348 468.19874 473.45899 477.36433">LOGAGMwithfastsqrt</tspan></text>
</g>
</svg>
