<svg width="1280" height="720" xmlns="http://www.w3.org/2000/svg" xmlns:xlink="http://www.w3.org/1999/xlink" overflow="hidden"><defs><clipPath id="clip0"><path d="M0 0 1280 0 1280 720 0 720Z" fill-rule="evenodd" clip-rule="evenodd"/></clipPath></defs><g clip-path="url(#clip0)"><rect x="0" y="0" width="1280" height="720" fill="#FFFFFF"/><path d="M95.5001 157.5C95.5001 93.9873 156.389 42.5001 231.5 42.5001 306.611 42.5001 367.5 93.9873 367.5 157.5 367.5 221.013 306.611 272.5 231.5 272.5 156.389 272.5 95.5001 221.013 95.5001 157.5Z" stroke="#2F528F" stroke-width="1.33333" stroke-miterlimit="8" fill="#4472C4" fill-rule="evenodd"/><path d="M284.5 224C284.5 160.211 345.389 108.5 420.5 108.5 495.611 108.5 556.5 160.211 556.5 224 556.5 287.789 495.611 339.5 420.5 339.5 345.389 339.5 284.5 287.789 284.5 224Z" stroke="#2F528F" stroke-width="1.33333" stroke-miterlimit="8" fill="#4472C4" fill-rule="evenodd"/><path d="M973.5 566C973.5 502.211 1034.61 450.5 1110 450.5 1185.39 450.5 1246.5 502.211 1246.5 566 1246.5 629.789 1185.39 681.5 1110 681.5 1034.61 681.5 973.5 629.789 973.5 566Z" stroke="#2F528F" stroke-width="1.33333" stroke-miterlimit="8" fill="#4472C4" fill-rule="evenodd"/></g></svg>