<svg width="1280" height="720" xmlns="http://www.w3.org/2000/svg" xmlns:xlink="http://www.w3.org/1999/xlink" overflow="hidden"><defs><clipPath id="clip0"><path d="M0 0 1280 0 1280 720 0 720Z" fill-rule="evenodd" clip-rule="evenodd"/></clipPath></defs><g clip-path="url(#clip0)"><rect x="0" y="0" width="1280" height="720" fill="#FFFFFF"/><rect x="228" y="402" width="212" height="38" fill="#D9D9D9"/><text font-family="Calibri,Calibri_MSFontService,sans-serif" font-weight="400" font-size="24" transform="translate(300.507 429)">32<tspan x="24.3333" y="0">-</tspan><tspan x="31.6667" y="0">bits</tspan></text><rect x="460" y="402" width="212" height="38" fill="#D9D9D9"/><text font-family="Calibri,Calibri_MSFontService,sans-serif" font-weight="400" font-size="24" transform="translate(532.388 429)">32<tspan x="24.3333" y="0">-</tspan><tspan x="31.6666" y="0">bits</tspan></text><rect x="692" y="402" width="212" height="38" fill="#D9D9D9"/><text font-family="Calibri,Calibri_MSFontService,sans-serif" font-weight="400" font-size="24" transform="translate(764.268 429)">32<tspan x="24.3333" y="0">-</tspan><tspan x="31.6667" y="0">bits</tspan></text><rect x="923" y="402" width="213" height="38" fill="#D9D9D9"/><text font-family="Calibri,Calibri_MSFontService,sans-serif" font-weight="400" font-size="24" transform="translate(996.149 429)">32<tspan x="24.3334" y="0">-</tspan><tspan x="31.6666" y="0">bits</tspan><tspan x="-445.175" y="-44">&gt; 0</tspan><tspan x="-677.056" y="-44">= </tspan>0</text><rect x="1035" y="452" width="101" height="38" fill="#A9D18E"/><text font-family="Calibri,Calibri_MSFontService,sans-serif" font-weight="400" font-size="24" transform="translate(1051.67 478)">1<tspan x="12.1666" y="0">6</tspan><tspan x="24.3334" y="0">-</tspan><tspan x="31.6666" y="0">bits</tspan></text><rect x="923" y="452" width="102" height="38" fill="#A9D18E"/><text font-family="Calibri,Calibri_MSFontService,sans-serif" font-weight="400" font-size="24" transform="translate(940.627 478)">16<tspan x="24.3333" y="0">-</tspan><tspan x="31.6666" y="0">bits</tspan></text><rect x="803" y="451" width="101" height="38" fill="#A9D18E"/><text font-family="Calibri,Calibri_MSFontService,sans-serif" font-weight="400" font-size="24" transform="translate(819.791 478)">16<tspan x="24.3333" y="0">-</tspan><tspan x="31.6666" y="0">bits</tspan></text><rect x="460" y="451" width="333" height="38" fill="#A9D18E"/><text font-family="Calibri,Calibri_MSFontService,sans-serif" font-weight="400" font-size="24" transform="translate(592.746 478)">48<tspan x="24.3333" y="0">-</tspan><tspan x="31.6667" y="0">bits</tspan></text><rect x="228" y="565" width="212" height="38" fill="#D9D9D9"/><text font-family="Calibri,Calibri_MSFontService,sans-serif" font-weight="400" font-size="24" transform="translate(300.507 591)">32<tspan x="24.3333" y="0">-</tspan><tspan x="31.6667" y="0">bits</tspan></text><rect x="460" y="565" width="212" height="38" fill="#D9D9D9"/><text font-family="Calibri,Calibri_MSFontService,sans-serif" font-weight="400" font-size="24" transform="translate(532.388 591)">32<tspan x="24.3333" y="0">-</tspan><tspan x="31.6666" y="0">bits</tspan></text><rect x="692" y="565" width="212" height="38" fill="#D9D9D9"/><text font-family="Calibri,Calibri_MSFontService,sans-serif" font-weight="400" font-size="24" transform="translate(764.268 591)">32<tspan x="24.3333" y="0">-</tspan><tspan x="31.6667" y="0">bits</tspan></text><rect x="923" y="565" width="213" height="38" fill="#D9D9D9"/><text font-family="Calibri,Calibri_MSFontService,sans-serif" font-weight="400" font-size="24" transform="translate(996.149 591)">32<tspan x="24.3334" y="0">-</tspan><tspan x="31.6666" y="0">bits</tspan><tspan x="-677.056" y="-42">&gt; 0</tspan></text><rect x="979" y="614" width="157" height="38" fill="#A9D18E"/><text font-family="Calibri,Calibri_MSFontService,sans-serif" font-weight="400" font-size="24" transform="translate(1023.73 641)">24<tspan x="24.3334" y="0">-</tspan><tspan x="31.6666" y="0">bits</tspan></text><rect x="812" y="614" width="157" height="38" fill="#A9D18E"/><text font-family="Calibri,Calibri_MSFontService,sans-serif" font-weight="400" font-size="24" transform="translate(856.805 640)">24<tspan x="24.3333" y="0">-</tspan><tspan x="31.6666" y="0">bits</tspan></text><rect x="642" y="613" width="158" height="38" fill="#A9D18E"/><text font-family="Calibri,Calibri_MSFontService,sans-serif" font-weight="400" font-size="24" transform="translate(687.492 640)">24<tspan x="24.3333" y="0">-</tspan><tspan x="31.6667" y="0">bits</tspan></text><rect x="228" y="614" width="402" height="38" fill="#A9D18E"/><text font-family="Calibri,Calibri_MSFontService,sans-serif" font-weight="400" font-size="24" transform="translate(395.552 640)">56<tspan x="24.3333" y="0">-</tspan><tspan x="31.6667" y="0">bits</tspan></text><rect x="228" y="219" width="212" height="38" fill="#D9D9D9"/><text font-family="Calibri,Calibri_MSFontService,sans-serif" font-weight="400" font-size="24" transform="translate(300.507 246)">32<tspan x="24.3333" y="0">-</tspan><tspan x="31.6667" y="0">bits</tspan></text><rect x="460" y="219" width="212" height="38" fill="#D9D9D9"/><text font-family="Calibri,Calibri_MSFontService,sans-serif" font-weight="400" font-size="24" transform="translate(532.388 246)">32<tspan x="24.3333" y="0">-</tspan><tspan x="31.6666" y="0">bits</tspan></text><rect x="692" y="219" width="212" height="38" fill="#D9D9D9"/><text font-family="Calibri,Calibri_MSFontService,sans-serif" font-weight="400" font-size="24" transform="translate(764.268 246)">32<tspan x="24.3333" y="0">-</tspan><tspan x="31.6667" y="0">bits</tspan></text><rect x="923" y="219" width="213" height="38" fill="#D9D9D9"/><text font-family="Calibri,Calibri_MSFontService,sans-serif" font-weight="400" font-size="24" transform="translate(996.149 246)">32<tspan x="24.3334" y="0">-</tspan><tspan x="31.6666" y="0">bits</tspan><tspan x="-445.175" y="-44">=</tspan><tspan x="-427.675" y="-44">0</tspan><tspan x="-677.056" y="-44">= 0</tspan><tspan x="-213.294" y="-43">&gt;</tspan><tspan x="-195.794" y="-43">0</tspan></text><rect x="228" y="48" width="212" height="38" fill="#D9D9D9"/><text font-family="Calibri,Calibri_MSFontService,sans-serif" font-weight="400" font-size="24" transform="translate(300.507 75)">32<tspan x="24.3333" y="0">-</tspan><tspan x="31.6667" y="0">bits</tspan></text><rect x="460" y="48" width="212" height="38" fill="#D9D9D9"/><text font-family="Calibri,Calibri_MSFontService,sans-serif" font-weight="400" font-size="24" transform="translate(532.388 75)">32<tspan x="24.3333" y="0">-</tspan><tspan x="31.6666" y="0">bits</tspan></text><rect x="692" y="48" width="212" height="38" fill="#D9D9D9"/><text font-family="Calibri,Calibri_MSFontService,sans-serif" font-weight="400" font-size="24" transform="translate(764.268 75)">32<tspan x="24.3333" y="0">-</tspan><tspan x="31.6667" y="0">bits</tspan></text><rect x="923" y="48" width="213" height="38" fill="#D9D9D9"/><text font-family="Calibri,Calibri_MSFontService,sans-serif" font-weight="400" font-size="24" transform="translate(996.149 75)">32<tspan x="24.3334" y="0">-</tspan><tspan x="31.6666" y="0">bits</tspan><tspan x="-445.175" y="-43">= 0</tspan><tspan x="-677.056" y="-43">= 0</tspan><tspan x="-213.294" y="-43">=</tspan><tspan x="-195.794" y="-43">0</tspan><tspan x="13.8104" y="-43">&gt; </tspan><tspan x="31.3103" y="-43">0</tspan></text><rect x="923" y="101" width="213" height="38" fill="#A9D18E"/><text font-family="Calibri,Calibri_MSFontService,sans-serif" font-weight="400" font-size="24" transform="translate(996.149 128)">32<tspan x="24.3334" y="0">-</tspan><tspan x="31.6666" y="0">bits</tspan></text><path d="M1146 142C1146 145.59 1141.11 148.5 1135.08 148.5L1042.42 148.5C1036.39 148.5 1031.5 151.41 1031.5 155 1031.5 151.41 1026.61 148.5 1020.58 148.5L927.918 148.5C921.888 148.5 917 145.59 917 142" stroke="#000000" stroke-width="2" stroke-miterlimit="8" fill="none" fill-rule="evenodd"/><text font-family="Calibri,Calibri_MSFontService,sans-serif" font-weight="400" font-size="24" transform="translate(910.991 184)">Native integer sqrt call</text><rect x="692" y="272" width="444" height="38" fill="#A9D18E"/><text font-family="Calibri,Calibri_MSFontService,sans-serif" font-weight="400" font-size="24" transform="translate(880.268 299)">64<tspan x="24.3333" y="0">-</tspan><tspan x="31.6666" y="0">bits</tspan></text><path d="M1143 315C1143 318.038 1138.86 320.5 1133.76 320.5L925.238 320.5C920.136 320.5 916 322.963 916 326.001 916 322.963 911.864 320.5 906.762 320.5L698.238 320.5C693.136 320.5 689 318.038 689 315" stroke="#000000" stroke-width="2" stroke-miterlimit="8" fill="none" fill-rule="evenodd"/><text font-family="Calibri,Calibri_MSFontService,sans-serif" font-weight="400" font-size="24" transform="translate(699.926 357)">Native <tspan x="68.38" y="0">double </tspan><tspan x="142.047" y="0">sqrt </tspan><tspan x="185.88" y="0">call with post correction</tspan></text><path d="M910 492C910 496.142 904.36 499.5 897.402 499.5L693.597 499.5C686.64 499.5 681 502.858 681 507.001 681 502.858 675.36 499.5 668.402 499.5L464.597 499.5C457.64 499.5 452 496.142 452 492" stroke="#000000" stroke-width="2" stroke-miterlimit="8" fill="none" fill-rule="evenodd"/><text font-family="Calibri,Calibri_MSFontService,sans-serif" font-weight="400" font-size="24" transform="translate(488.581 536)">Native double sqrt with post correction</text><path d="M803 655C803 658.038 798.864 660.5 793.762 660.5L518.238 660.5C513.136 660.5 509 662.963 509 666 509 662.963 504.864 660.5 499.762 660.5L224.238 660.5C219.136 660.5 215 658.038 215 655" stroke="#000000" stroke-width="2" stroke-miterlimit="8" fill="none" fill-rule="evenodd"/><text font-family="Calibri,Calibri_MSFontService,sans-serif" font-weight="400" font-size="24" transform="translate(397.399 702)">Recursive call in Case 3</text><path d="M215 176C208.373 176 203 175.552 203 175L203 5.99993C203 5.44768 208.373 5 215 5" stroke="#000000" stroke-width="2" stroke-miterlimit="8" fill="none" fill-rule="evenodd"/><path d="M216 355C208.268 355 202 354.478 202 353.833L202 196.167C202 195.522 208.268 195 216 195" stroke="#000000" stroke-width="2" stroke-miterlimit="8" fill="none" fill-rule="evenodd"/><path d="M215 537C207.82 537 202 536.515 202 535.917L202 367.083C202 366.485 207.82 366 215 366" stroke="#000000" stroke-width="2" stroke-miterlimit="8" fill="none" fill-rule="evenodd"/><path d="M216 716C208.82 716 203 715.515 203 714.917L203 546.083C203 545.485 208.82 545 216 545" stroke="#000000" stroke-width="2" stroke-miterlimit="8" fill="none" fill-rule="evenodd"/><text font-family="Calibri,Calibri_MSFontService,sans-serif" font-weight="400" font-size="24" transform="translate(58.6615 94)">Case 1:<tspan x="-0.000102997" y="184">Case </tspan>2:<tspan x="-0.000209808" y="354">Case </tspan>3:<tspan x="-0.000209808" y="536">Case </tspan>4:</text></g></svg>