<?xml version="1.0" encoding="UTF-8" standalone="no"?>
<!DOCTYPE svg PUBLIC "-//W3C//DTD SVG 1.1//EN" "http://www.w3.org/Graphics/SVG/1.1/DTD/svg11.dtd">
<svg xmlns="http://www.w3.org/2000/svg" xmlns:xlink="http://www.w3.org/1999/xlink" version="1.1" width="412.909pt" height="233.676pt" viewBox="0 0 412.909 233.676">
<g enable-background="new">
<clipPath id="cp0">
<path transform="matrix(1,0,0,-1,28.625,203.612)" d="M 0 -141.74108 L 295.32865 -141.74108 L 295.32865 323.68193 L 0 323.68193 "/>
</clipPath>
<g clip-path="url(#cp0)">
<path transform="matrix(1,0,0,-1,28.625,203.612)" stroke-width=".19925" stroke-linecap="butt" stroke-miterlimit="10" stroke-linejoin="miter" fill="none" stroke="#929292" d="M 0 0 L 0 4.25203 M 26.8479 0 L 26.8479 4.25203 M 53.69582 0 L 53.69582 4.25203 M 80.54372 0 L 80.54372 4.25203 M 107.39163 0 L 107.39163 4.25203 M 134.23955 0 L 134.23955 4.25203 M 161.08745 0 L 161.08745 4.25203 M 187.93537 0 L 187.93537 4.25203 M 214.78328 0 L 214.78328 4.25203 M 241.63118 0 L 241.63118 4.25203 M 268.4791 0 L 268.4791 4.25203 M 295.327 0 L 295.327 4.25203 M 0 181.94084 L 0 177.6888 M 26.8479 181.94084 L 26.8479 177.6888 M 53.69582 181.94084 L 53.69582 177.6888 M 80.54372 181.94084 L 80.54372 177.6888 M 107.39163 181.94084 L 107.39163 177.6888 M 134.23955 181.94084 L 134.23955 177.6888 M 161.08745 181.94084 L 161.08745 177.6888 M 187.93537 181.94084 L 187.93537 177.6888 M 214.78328 181.94084 L 214.78328 177.6888 M 241.63118 181.94084 L 241.63118 177.6888 M 268.4791 181.94084 L 268.4791 177.6888 M 295.327 181.94084 L 295.327 177.6888 "/>
</g>
<clipPath id="cp1">
<path transform="matrix(1,0,0,-1,28.625,203.612)" d="M -141.73282 0 L -141.73282 181.94084 L 437.0615 181.94084 L 437.0615 0 "/>
</clipPath>
<g clip-path="url(#cp1)">
<path transform="matrix(1,0,0,-1,28.625,203.612)" stroke-width=".19925" stroke-linecap="butt" stroke-miterlimit="10" stroke-linejoin="miter" fill="none" stroke="#929292" d="M 0 0 L 4.25175 0 M 0 26.41039 L 4.25175 26.41039 M 0 52.82079 L 4.25175 52.82079 M 0 79.23119 L 4.25175 79.23119 M 0 105.64159 L 4.25175 105.64159 M 0 132.05197 L 4.25175 132.05197 M 0 158.46237 L 4.25175 158.46237 M 295.32865 0 L 291.07688 0 M 295.32865 26.41039 L 291.07688 26.41039 M 295.32865 52.82079 L 291.07688 52.82079 M 295.32865 79.23119 L 291.07688 79.23119 M 295.32865 105.64159 L 291.07688 105.64159 M 295.32865 132.05197 L 291.07688 132.05197 M 295.32865 158.46237 L 291.07688 158.46237 "/>
</g>
<path transform="matrix(1,0,0,-1,28.625,203.612)" stroke-width=".3985" stroke-linecap="butt" stroke-miterlimit="10" stroke-linejoin="miter" fill="none" stroke="#000000" d="M 0 0 L 0 181.94084 L 295.32865 181.94084 L 295.32865 0 L 0 0 Z "/>
<text xml:space="preserve" transform="matrix(1 0 -0 1 0 233.676)" font-size="9.9626" font-family="CMR10"><tspan y="-20.123" x="26.134">0</tspan></text>
<text xml:space="preserve" transform="matrix(1 0 -0 1 -.0000038146974 233.676)" font-size="9.9626" font-family="CMR10"><tspan y="-20.123" x="50.491 55.4723">10</tspan></text>
<text xml:space="preserve" transform="matrix(1 0 -0 1 0 233.676)" font-size="9.9626" font-family="CMR10"><tspan y="-20.123" x="77.338 82.3193">20</tspan></text>
<text xml:space="preserve" transform="matrix(1 0 -0 1 0 233.676)" font-size="9.9626" font-family="CMR10"><tspan y="-20.123" x="104.186 109.1673">30</tspan></text>
<text xml:space="preserve" transform="matrix(1 0 -0 1 0 233.676)" font-size="9.9626" font-family="CMR10"><tspan y="-20.123" x="131.034 136.01529">40</tspan></text>
<text xml:space="preserve" transform="matrix(1 0 -0 1 0 233.676)" font-size="9.9626" font-family="CMR10"><tspan y="-20.123" x="157.881 162.86229">50</tspan></text>
<text xml:space="preserve" transform="matrix(1 0 -0 1 0 233.676)" font-size="9.9626" font-family="CMR10"><tspan y="-20.123" x="184.729 189.7103">60</tspan></text>
<text xml:space="preserve" transform="matrix(1 0 -0 1 0 233.676)" font-size="9.9626" font-family="CMR10"><tspan y="-20.123" x="211.576 216.5573">70</tspan></text>
<text xml:space="preserve" transform="matrix(1 0 -0 1 0 233.676)" font-size="9.9626" font-family="CMR10"><tspan y="-20.123" x="238.424 243.40529">80</tspan></text>
<text xml:space="preserve" transform="matrix(1 0 -0 1 0 233.676)" font-size="9.9626" font-family="CMR10"><tspan y="-20.123" x="265.271 270.2523">90</tspan></text>
<text xml:space="preserve" transform="matrix(1 0 -0 1 0 233.676)" font-size="9.9626" font-family="CMR10"><tspan y="-20.123" x="289.628 294.60929 299.59059">100</tspan></text>
<text xml:space="preserve" transform="matrix(1 0 -0 1 0 233.676)" font-size="9.9626" font-family="CMR10"><tspan y="-20.123" x="316.476 321.4573 326.4386">110</tspan></text>
<text xml:space="preserve" transform="matrix(1 0 -0 1 0 233.676)" font-size="9.9626" font-family="CMR10"><tspan y="-26.853" x="20.124">0</tspan></text>
<text xml:space="preserve" transform="matrix(1 0 -0 1 0 233.676)" font-size="9.9626" font-family="CMR10"><tspan y="-53.263" x="20.124">1</tspan></text>
<text xml:space="preserve" transform="matrix(1 0 -0 1 0 233.676)" font-size="9.9626" font-family="CMR10"><tspan y="-79.674" x="20.124">2</tspan></text>
<text xml:space="preserve" transform="matrix(1 0 -0 1 0 233.676)" font-size="9.9626" font-family="CMR10"><tspan y="-106.084" x="20.124">3</tspan></text>
<text xml:space="preserve" transform="matrix(1 0 -0 1 0 233.676)" font-size="9.9626" font-family="CMR10"><tspan y="-132.494" x="20.124">4</tspan></text>
<text xml:space="preserve" transform="matrix(1 0 -0 1 0 233.67601)" font-size="9.9626" font-family="CMR10"><tspan y="-158.904" x="20.124">5</tspan></text>
<text xml:space="preserve" transform="matrix(1 0 -0 1 0 233.676)" font-size="9.9626" font-family="CMR10"><tspan y="-185.314" x="20.124">6</tspan></text>
<text xml:space="preserve" transform="matrix(1 0 -0 1 0 233.676)" font-size="9.9626" font-family="CMSY10" font-style="italic"><tspan y="-217.659" x="31.813">&#x00b7;</tspan></text>
<text xml:space="preserve" transform="matrix(1 0 -0 1 0 233.676)" font-size="9.9626" font-family="CMR10"><tspan y="-217.659" x="34.579999 39.5613">10</tspan></text>
<text xml:space="preserve" transform="matrix(1 0 -0 1 0 233.676)" font-size="6.9738" font-family="CMSY7" font-style="italic"><tspan y="-221.275" x="44.543">&#x2212;</tspan></text>
<text xml:space="preserve" transform="matrix(1 0 -0 1 0 233.676)" font-size="6.9738" font-family="CMR7"><tspan y="-221.275" x="50.77">2</tspan></text>
<clipPath id="cp2">
<path transform="matrix(1,0,0,-1,28.625,203.612)" d="M 0 0 L 295.32865 0 L 295.32865 181.94084 L 0 181.94084 Z "/>
</clipPath>
<g clip-path="url(#cp2)">
<path transform="matrix(1,0,0,-1,28.625,203.612)" stroke-width=".3985" stroke-linecap="butt" stroke-miterlimit="10" stroke-linejoin="miter" fill="none" stroke="#0000ff" d="M 13.42395 .86313 L 13.42395 1.28632 "/>
<path transform="matrix(0,-1,-1,-0,42.048,202.326)" stroke-width=".3985" stroke-linecap="butt" stroke-miterlimit="10" stroke-linejoin="miter" fill="none" stroke="#0000ff" d="M 0 1.99255 L 0 -1.99255 "/>
<path transform="matrix(0,-1,-1,-0,42.048,202.326)" stroke-width=".3985" stroke-linecap="butt" stroke-miterlimit="10" stroke-linejoin="miter" fill="none" stroke="#0000ff" d=""/>
<path transform="matrix(1,0,0,-1,28.625,203.612)" stroke-width=".3985" stroke-linecap="butt" stroke-miterlimit="10" stroke-linejoin="miter" fill="none" stroke="#0000ff" d="M 13.42395 .86313 L 13.42395 .43993 "/>
<path transform="matrix(0,1,1,0,42.048,203.172)" stroke-width=".3985" stroke-linecap="butt" stroke-miterlimit="10" stroke-linejoin="miter" fill="none" stroke="#0000ff" d="M 0 1.99255 L 0 -1.99255 "/>
<path transform="matrix(0,1,1,0,42.048,203.172)" stroke-width=".3985" stroke-linecap="butt" stroke-miterlimit="10" stroke-linejoin="miter" fill="none" stroke="#0000ff" d=""/>
<path transform="matrix(1,0,0,-1,28.625,203.612)" stroke-width=".3985" stroke-linecap="butt" stroke-miterlimit="10" stroke-linejoin="miter" fill="none" stroke="#0000ff" d="M 26.8479 2.195 L 26.8479 3.05745 "/>
<path transform="matrix(0,-1,-1,-0,55.472,200.555)" stroke-width=".3985" stroke-linecap="butt" stroke-miterlimit="10" stroke-linejoin="miter" fill="none" stroke="#0000ff" d="M 0 1.99255 L 0 -1.99255 "/>
<path transform="matrix(0,-1,-1,-0,55.472,200.555)" stroke-width=".3985" stroke-linecap="butt" stroke-miterlimit="10" stroke-linejoin="miter" fill="none" stroke="#0000ff" d=""/>
<path transform="matrix(1,0,0,-1,28.625,203.612)" stroke-width=".3985" stroke-linecap="butt" stroke-miterlimit="10" stroke-linejoin="miter" fill="none" stroke="#0000ff" d="M 26.8479 2.195 L 26.8479 1.33257 "/>
<path transform="matrix(0,1,1,0,55.473,202.28)" stroke-width=".3985" stroke-linecap="butt" stroke-miterlimit="10" stroke-linejoin="miter" fill="none" stroke="#0000ff" d="M 0 1.99255 L 0 -1.99255 "/>
<path transform="matrix(0,1,1,0,55.473,202.28)" stroke-width=".3985" stroke-linecap="butt" stroke-miterlimit="10" stroke-linejoin="miter" fill="none" stroke="#0000ff" d=""/>
<path transform="matrix(1,0,0,-1,28.625,203.612)" stroke-width=".3985" stroke-linecap="butt" stroke-miterlimit="10" stroke-linejoin="miter" fill="none" stroke="#0000ff" d="M 40.27185 4.8029 L 40.27185 6.76479 "/>
<path transform="matrix(0,-1,-1,-0,68.895999,196.84799)" stroke-width=".3985" stroke-linecap="butt" stroke-miterlimit="10" stroke-linejoin="miter" fill="none" stroke="#0000ff" d="M 0 1.99255 L 0 -1.99255 "/>
<path transform="matrix(0,-1,-1,-0,68.895999,196.84799)" stroke-width=".3985" stroke-linecap="butt" stroke-miterlimit="10" stroke-linejoin="miter" fill="none" stroke="#0000ff" d=""/>
<path transform="matrix(1,0,0,-1,28.625,203.612)" stroke-width=".3985" stroke-linecap="butt" stroke-miterlimit="10" stroke-linejoin="miter" fill="none" stroke="#0000ff" d="M 40.27185 4.8029 L 40.27185 2.84102 "/>
<path transform="matrix(0,1,1,0,68.895999,200.771)" stroke-width=".3985" stroke-linecap="butt" stroke-miterlimit="10" stroke-linejoin="miter" fill="none" stroke="#0000ff" d="M 0 1.99255 L 0 -1.99255 "/>
<path transform="matrix(0,1,1,0,68.895999,200.771)" stroke-width=".3985" stroke-linecap="butt" stroke-miterlimit="10" stroke-linejoin="miter" fill="none" stroke="#0000ff" d=""/>
<path transform="matrix(1,0,0,-1,28.625,203.612)" stroke-width=".3985" stroke-linecap="butt" stroke-miterlimit="10" stroke-linejoin="miter" fill="none" stroke="#0000ff" d="M 53.69582 8.60359 L 53.69582 13.23314 "/>
<path transform="matrix(0,-1,-1,-0,82.32,190.379)" stroke-width=".3985" stroke-linecap="butt" stroke-miterlimit="10" stroke-linejoin="miter" fill="none" stroke="#0000ff" d="M 0 1.99255 L 0 -1.99255 "/>
<path transform="matrix(0,-1,-1,-0,82.32,190.379)" stroke-width=".3985" stroke-linecap="butt" stroke-miterlimit="10" stroke-linejoin="miter" fill="none" stroke="#0000ff" d=""/>
<path transform="matrix(1,0,0,-1,28.625,203.612)" stroke-width=".3985" stroke-linecap="butt" stroke-miterlimit="10" stroke-linejoin="miter" fill="none" stroke="#0000ff" d="M 53.69582 8.60359 L 53.69582 3.97406 "/>
<path transform="matrix(0,1,1,0,82.31899,199.638)" stroke-width=".3985" stroke-linecap="butt" stroke-miterlimit="10" stroke-linejoin="miter" fill="none" stroke="#0000ff" d="M 0 1.99255 L 0 -1.99255 "/>
<path transform="matrix(0,1,1,0,82.31899,199.638)" stroke-width=".3985" stroke-linecap="butt" stroke-miterlimit="10" stroke-linejoin="miter" fill="none" stroke="#0000ff" d=""/>
<path transform="matrix(1,0,0,-1,28.625,203.612)" stroke-width=".3985" stroke-linecap="butt" stroke-miterlimit="10" stroke-linejoin="miter" fill="none" stroke="#0000ff" d="M 67.11977 13.05089 L 67.11977 18.81961 "/>
<path transform="matrix(0,-1,-1,-0,95.743,184.793)" stroke-width=".3985" stroke-linecap="butt" stroke-miterlimit="10" stroke-linejoin="miter" fill="none" stroke="#0000ff" d="M 0 1.99255 L 0 -1.99255 "/>
<path transform="matrix(0,-1,-1,-0,95.743,184.793)" stroke-width=".3985" stroke-linecap="butt" stroke-miterlimit="10" stroke-linejoin="miter" fill="none" stroke="#0000ff" d=""/>
<path transform="matrix(1,0,0,-1,28.625,203.612)" stroke-width=".3985" stroke-linecap="butt" stroke-miterlimit="10" stroke-linejoin="miter" fill="none" stroke="#0000ff" d="M 67.11977 13.05089 L 67.11977 7.28218 "/>
<path transform="matrix(0,1,1,0,95.743,196.33)" stroke-width=".3985" stroke-linecap="butt" stroke-miterlimit="10" stroke-linejoin="miter" fill="none" stroke="#0000ff" d="M 0 1.99255 L 0 -1.99255 "/>
<path transform="matrix(0,1,1,0,95.743,196.33)" stroke-width=".3985" stroke-linecap="butt" stroke-miterlimit="10" stroke-linejoin="miter" fill="none" stroke="#0000ff" d=""/>
<path transform="matrix(1,0,0,-1,28.625,203.612)" stroke-width=".3985" stroke-linecap="butt" stroke-miterlimit="10" stroke-linejoin="miter" fill="none" stroke="#0000ff" d="M 80.54372 15.05533 L 80.54372 22.19183 "/>
<path transform="matrix(0,-1,-1,-0,109.16701,181.421)" stroke-width=".3985" stroke-linecap="butt" stroke-miterlimit="10" stroke-linejoin="miter" fill="none" stroke="#0000ff" d="M 0 1.99255 L 0 -1.99255 "/>
<path transform="matrix(0,-1,-1,-0,109.16701,181.421)" stroke-width=".3985" stroke-linecap="butt" stroke-miterlimit="10" stroke-linejoin="miter" fill="none" stroke="#0000ff" d=""/>
<path transform="matrix(1,0,0,-1,28.625,203.612)" stroke-width=".3985" stroke-linecap="butt" stroke-miterlimit="10" stroke-linejoin="miter" fill="none" stroke="#0000ff" d="M 80.54372 15.05533 L 80.54372 7.91882 "/>
<path transform="matrix(0,1,1,0,109.167,195.693)" stroke-width=".3985" stroke-linecap="butt" stroke-miterlimit="10" stroke-linejoin="miter" fill="none" stroke="#0000ff" d="M 0 1.99255 L 0 -1.99255 "/>
<path transform="matrix(0,1,1,0,109.167,195.693)" stroke-width=".3985" stroke-linecap="butt" stroke-miterlimit="10" stroke-linejoin="miter" fill="none" stroke="#0000ff" d=""/>
<path transform="matrix(1,0,0,-1,28.625,203.612)" stroke-width=".3985" stroke-linecap="butt" stroke-miterlimit="10" stroke-linejoin="miter" fill="none" stroke="#0000ff" d="M 93.96768 20.67447 L 93.96768 30.79349 "/>
<path transform="matrix(0,-1,-1,-0,122.592,172.819)" stroke-width=".3985" stroke-linecap="butt" stroke-miterlimit="10" stroke-linejoin="miter" fill="none" stroke="#0000ff" d="M 0 1.99255 L 0 -1.99255 "/>
<path transform="matrix(0,-1,-1,-0,122.592,172.819)" stroke-width=".3985" stroke-linecap="butt" stroke-miterlimit="10" stroke-linejoin="miter" fill="none" stroke="#0000ff" d=""/>
<path transform="matrix(1,0,0,-1,28.625,203.612)" stroke-width=".3985" stroke-linecap="butt" stroke-miterlimit="10" stroke-linejoin="miter" fill="none" stroke="#0000ff" d="M 93.96768 20.67447 L 93.96768 10.55545 "/>
<path transform="matrix(0,1,1,0,122.591999,193.057)" stroke-width=".3985" stroke-linecap="butt" stroke-miterlimit="10" stroke-linejoin="miter" fill="none" stroke="#0000ff" d="M 0 1.99255 L 0 -1.99255 "/>
<path transform="matrix(0,1,1,0,122.591999,193.057)" stroke-width=".3985" stroke-linecap="butt" stroke-miterlimit="10" stroke-linejoin="miter" fill="none" stroke="#0000ff" d=""/>
<path transform="matrix(1,0,0,-1,28.625,203.612)" stroke-width=".3985" stroke-linecap="butt" stroke-miterlimit="10" stroke-linejoin="miter" fill="none" stroke="#0000ff" d="M 107.39163 25.28442 L 107.39163 32.81061 "/>
<path transform="matrix(0,-1,-1,-0,136.015,170.802)" stroke-width=".3985" stroke-linecap="butt" stroke-miterlimit="10" stroke-linejoin="miter" fill="none" stroke="#0000ff" d="M 0 1.99255 L 0 -1.99255 "/>
<path transform="matrix(0,-1,-1,-0,136.015,170.802)" stroke-width=".3985" stroke-linecap="butt" stroke-miterlimit="10" stroke-linejoin="miter" fill="none" stroke="#0000ff" d=""/>
<path transform="matrix(1,0,0,-1,28.625,203.612)" stroke-width=".3985" stroke-linecap="butt" stroke-miterlimit="10" stroke-linejoin="miter" fill="none" stroke="#0000ff" d="M 107.39163 25.28442 L 107.39163 17.75826 "/>
<path transform="matrix(0,1,1,0,136.01502,185.854)" stroke-width=".3985" stroke-linecap="butt" stroke-miterlimit="10" stroke-linejoin="miter" fill="none" stroke="#0000ff" d="M 0 1.99255 L 0 -1.99255 "/>
<path transform="matrix(0,1,1,0,136.01502,185.854)" stroke-width=".3985" stroke-linecap="butt" stroke-miterlimit="10" stroke-linejoin="miter" fill="none" stroke="#0000ff" d=""/>
<path transform="matrix(1,0,0,-1,28.625,203.612)" stroke-width=".3985" stroke-linecap="butt" stroke-miterlimit="10" stroke-linejoin="miter" fill="none" stroke="#0000ff" d="M 120.81558 30.98256 L 120.81558 45.30145 "/>
<path transform="matrix(0,-1,-1,-0,149.439,158.311)" stroke-width=".3985" stroke-linecap="butt" stroke-miterlimit="10" stroke-linejoin="miter" fill="none" stroke="#0000ff" d="M 0 1.99255 L 0 -1.99255 "/>
<path transform="matrix(0,-1,-1,-0,149.439,158.311)" stroke-width=".3985" stroke-linecap="butt" stroke-miterlimit="10" stroke-linejoin="miter" fill="none" stroke="#0000ff" d=""/>
<path transform="matrix(1,0,0,-1,28.625,203.612)" stroke-width=".3985" stroke-linecap="butt" stroke-miterlimit="10" stroke-linejoin="miter" fill="none" stroke="#0000ff" d="M 120.81558 30.98256 L 120.81558 16.66365 "/>
<path transform="matrix(0,1,1,0,149.439,186.949)" stroke-width=".3985" stroke-linecap="butt" stroke-miterlimit="10" stroke-linejoin="miter" fill="none" stroke="#0000ff" d="M 0 1.99255 L 0 -1.99255 "/>
<path transform="matrix(0,1,1,0,149.439,186.949)" stroke-width=".3985" stroke-linecap="butt" stroke-miterlimit="10" stroke-linejoin="miter" fill="none" stroke="#0000ff" d=""/>
<path transform="matrix(1,0,0,-1,28.625,203.612)" stroke-width=".3985" stroke-linecap="butt" stroke-miterlimit="10" stroke-linejoin="miter" fill="none" stroke="#0000ff" d="M 134.23955 39.33774 L 134.23955 48.30629 "/>
<path transform="matrix(0,-1,-1,-0,162.86299,155.306)" stroke-width=".3985" stroke-linecap="butt" stroke-miterlimit="10" stroke-linejoin="miter" fill="none" stroke="#0000ff" d="M 0 1.99255 L 0 -1.99255 "/>
<path transform="matrix(0,-1,-1,-0,162.86299,155.306)" stroke-width=".3985" stroke-linecap="butt" stroke-miterlimit="10" stroke-linejoin="miter" fill="none" stroke="#0000ff" d=""/>
<path transform="matrix(1,0,0,-1,28.625,203.612)" stroke-width=".3985" stroke-linecap="butt" stroke-miterlimit="10" stroke-linejoin="miter" fill="none" stroke="#0000ff" d="M 134.23955 39.33774 L 134.23955 30.3692 "/>
<path transform="matrix(0,1,1,0,162.862,173.243)" stroke-width=".3985" stroke-linecap="butt" stroke-miterlimit="10" stroke-linejoin="miter" fill="none" stroke="#0000ff" d="M 0 1.99255 L 0 -1.99255 "/>
<path transform="matrix(0,1,1,0,162.862,173.243)" stroke-width=".3985" stroke-linecap="butt" stroke-miterlimit="10" stroke-linejoin="miter" fill="none" stroke="#0000ff" d=""/>
<path transform="matrix(1,0,0,-1,28.625,203.612)" stroke-width=".3985" stroke-linecap="butt" stroke-miterlimit="10" stroke-linejoin="miter" fill="none" stroke="#0000ff" d="M 147.6635 61.75648 L 147.6635 91.70268 "/>
<path transform="matrix(0,-1,-1,-0,176.28601,111.911)" stroke-width=".3985" stroke-linecap="butt" stroke-miterlimit="10" stroke-linejoin="miter" fill="none" stroke="#0000ff" d="M 0 1.99255 L 0 -1.99255 "/>
<path transform="matrix(0,-1,-1,-0,176.28601,111.911)" stroke-width=".3985" stroke-linecap="butt" stroke-miterlimit="10" stroke-linejoin="miter" fill="none" stroke="#0000ff" d=""/>
<path transform="matrix(1,0,0,-1,28.625,203.612)" stroke-width=".3985" stroke-linecap="butt" stroke-miterlimit="10" stroke-linejoin="miter" fill="none" stroke="#0000ff" d="M 147.6635 61.75648 L 147.6635 31.81026 "/>
<path transform="matrix(0,1,1,0,176.28601,171.802)" stroke-width=".3985" stroke-linecap="butt" stroke-miterlimit="10" stroke-linejoin="miter" fill="none" stroke="#0000ff" d="M 0 1.99255 L 0 -1.99255 "/>
<path transform="matrix(0,1,1,0,176.28601,171.802)" stroke-width=".3985" stroke-linecap="butt" stroke-miterlimit="10" stroke-linejoin="miter" fill="none" stroke="#0000ff" d=""/>
<path transform="matrix(1,0,0,-1,28.625,203.612)" stroke-width=".3985" stroke-linecap="butt" stroke-miterlimit="10" stroke-linejoin="miter" fill="none" stroke="#0000ff" d="M 161.08745 57.79915 L 161.08745 87.86024 "/>
<path transform="matrix(0,-1,-1,-0,189.71,115.753)" stroke-width=".3985" stroke-linecap="butt" stroke-miterlimit="10" stroke-linejoin="miter" fill="none" stroke="#0000ff" d="M 0 1.99255 L 0 -1.99255 "/>
<path transform="matrix(0,-1,-1,-0,189.71,115.753)" stroke-width=".3985" stroke-linecap="butt" stroke-miterlimit="10" stroke-linejoin="miter" fill="none" stroke="#0000ff" d=""/>
<path transform="matrix(1,0,0,-1,28.625,203.612)" stroke-width=".3985" stroke-linecap="butt" stroke-miterlimit="10" stroke-linejoin="miter" fill="none" stroke="#0000ff" d="M 161.08745 57.79915 L 161.08745 27.73804 "/>
<path transform="matrix(0,1,1,0,189.71,175.874)" stroke-width=".3985" stroke-linecap="butt" stroke-miterlimit="10" stroke-linejoin="miter" fill="none" stroke="#0000ff" d="M 0 1.99255 L 0 -1.99255 "/>
<path transform="matrix(0,1,1,0,189.71,175.874)" stroke-width=".3985" stroke-linecap="butt" stroke-miterlimit="10" stroke-linejoin="miter" fill="none" stroke="#0000ff" d=""/>
<path transform="matrix(1,0,0,-1,28.625,203.612)" stroke-width=".3985" stroke-linecap="butt" stroke-miterlimit="10" stroke-linejoin="miter" fill="none" stroke="#0000ff" d="M 174.51142 62.88684 L 174.51142 82.32584 "/>
<path transform="matrix(0,-1,-1,-0,203.135,121.287)" stroke-width=".3985" stroke-linecap="butt" stroke-miterlimit="10" stroke-linejoin="miter" fill="none" stroke="#0000ff" d="M 0 1.99255 L 0 -1.99255 "/>
<path transform="matrix(0,-1,-1,-0,203.135,121.287)" stroke-width=".3985" stroke-linecap="butt" stroke-miterlimit="10" stroke-linejoin="miter" fill="none" stroke="#0000ff" d=""/>
<path transform="matrix(1,0,0,-1,28.625,203.612)" stroke-width=".3985" stroke-linecap="butt" stroke-miterlimit="10" stroke-linejoin="miter" fill="none" stroke="#0000ff" d="M 174.51142 62.88684 L 174.51142 43.44785 "/>
<path transform="matrix(0,1,1,0,203.135,160.16501)" stroke-width=".3985" stroke-linecap="butt" stroke-miterlimit="10" stroke-linejoin="miter" fill="none" stroke="#0000ff" d="M 0 1.99255 L 0 -1.99255 "/>
<path transform="matrix(0,1,1,0,203.135,160.16501)" stroke-width=".3985" stroke-linecap="butt" stroke-miterlimit="10" stroke-linejoin="miter" fill="none" stroke="#0000ff" d=""/>
<path transform="matrix(1,0,0,-1,28.625,203.612)" stroke-width=".3985" stroke-linecap="butt" stroke-miterlimit="10" stroke-linejoin="miter" fill="none" stroke="#0000ff" d="M 187.93537 69.5927 L 187.93537 88.38754 "/>
<path transform="matrix(0,-1,-1,-0,216.557,115.226)" stroke-width=".3985" stroke-linecap="butt" stroke-miterlimit="10" stroke-linejoin="miter" fill="none" stroke="#0000ff" d="M 0 1.99255 L 0 -1.99255 "/>
<path transform="matrix(0,-1,-1,-0,216.557,115.226)" stroke-width=".3985" stroke-linecap="butt" stroke-miterlimit="10" stroke-linejoin="miter" fill="none" stroke="#0000ff" d=""/>
<path transform="matrix(1,0,0,-1,28.625,203.612)" stroke-width=".3985" stroke-linecap="butt" stroke-miterlimit="10" stroke-linejoin="miter" fill="none" stroke="#0000ff" d="M 187.93537 69.5927 L 187.93537 50.79785 "/>
<path transform="matrix(0,1,1,0,216.558,152.815)" stroke-width=".3985" stroke-linecap="butt" stroke-miterlimit="10" stroke-linejoin="miter" fill="none" stroke="#0000ff" d="M 0 1.99255 L 0 -1.99255 "/>
<path transform="matrix(0,1,1,0,216.558,152.815)" stroke-width=".3985" stroke-linecap="butt" stroke-miterlimit="10" stroke-linejoin="miter" fill="none" stroke="#0000ff" d=""/>
<path transform="matrix(1,0,0,-1,28.625,203.612)" stroke-width=".3985" stroke-linecap="butt" stroke-miterlimit="10" stroke-linejoin="miter" fill="none" stroke="#0000ff" d="M 201.35932 78.86461 L 201.35932 101.26218 "/>
<path transform="matrix(0,-1,-1,-0,229.982,102.351)" stroke-width=".3985" stroke-linecap="butt" stroke-miterlimit="10" stroke-linejoin="miter" fill="none" stroke="#0000ff" d="M 0 1.99255 L 0 -1.99255 "/>
<path transform="matrix(0,-1,-1,-0,229.982,102.351)" stroke-width=".3985" stroke-linecap="butt" stroke-miterlimit="10" stroke-linejoin="miter" fill="none" stroke="#0000ff" d=""/>
<path transform="matrix(1,0,0,-1,28.625,203.612)" stroke-width=".3985" stroke-linecap="butt" stroke-miterlimit="10" stroke-linejoin="miter" fill="none" stroke="#0000ff" d="M 201.35932 78.86461 L 201.35932 56.46703 "/>
<path transform="matrix(0,1,1,0,229.982,147.146)" stroke-width=".3985" stroke-linecap="butt" stroke-miterlimit="10" stroke-linejoin="miter" fill="none" stroke="#0000ff" d="M 0 1.99255 L 0 -1.99255 "/>
<path transform="matrix(0,1,1,0,229.982,147.146)" stroke-width=".3985" stroke-linecap="butt" stroke-miterlimit="10" stroke-linejoin="miter" fill="none" stroke="#0000ff" d=""/>
<path transform="matrix(1,0,0,-1,28.625,203.612)" stroke-width=".3985" stroke-linecap="butt" stroke-miterlimit="10" stroke-linejoin="miter" fill="none" stroke="#0000ff" d="M 214.78328 88.83636 L 214.78328 118.39252 "/>
<path transform="matrix(0,-1,-1,-0,243.40599,85.221)" stroke-width=".3985" stroke-linecap="butt" stroke-miterlimit="10" stroke-linejoin="miter" fill="none" stroke="#0000ff" d="M 0 1.99255 L 0 -1.99255 "/>
<path transform="matrix(0,-1,-1,-0,243.40599,85.221)" stroke-width=".3985" stroke-linecap="butt" stroke-miterlimit="10" stroke-linejoin="miter" fill="none" stroke="#0000ff" d=""/>
<path transform="matrix(1,0,0,-1,28.625,203.612)" stroke-width=".3985" stroke-linecap="butt" stroke-miterlimit="10" stroke-linejoin="miter" fill="none" stroke="#0000ff" d="M 214.78328 88.83636 L 214.78328 59.28023 "/>
<path transform="matrix(0,1,1,0,243.40599,144.33301)" stroke-width=".3985" stroke-linecap="butt" stroke-miterlimit="10" stroke-linejoin="miter" fill="none" stroke="#0000ff" d="M 0 1.99255 L 0 -1.99255 "/>
<path transform="matrix(0,1,1,0,243.40599,144.33301)" stroke-width=".3985" stroke-linecap="butt" stroke-miterlimit="10" stroke-linejoin="miter" fill="none" stroke="#0000ff" d=""/>
<path transform="matrix(1,0,0,-1,28.625,203.612)" stroke-width=".3985" stroke-linecap="butt" stroke-miterlimit="10" stroke-linejoin="miter" fill="none" stroke="#0000ff" d="M 228.20723 95.44505 L 228.20723 131.72527 "/>
<path transform="matrix(0,-1,-1,-0,256.83003,71.888)" stroke-width=".3985" stroke-linecap="butt" stroke-miterlimit="10" stroke-linejoin="miter" fill="none" stroke="#0000ff" d="M 0 1.99255 L 0 -1.99255 "/>
<path transform="matrix(0,-1,-1,-0,256.83003,71.888)" stroke-width=".3985" stroke-linecap="butt" stroke-miterlimit="10" stroke-linejoin="miter" fill="none" stroke="#0000ff" d=""/>
<path transform="matrix(1,0,0,-1,28.625,203.612)" stroke-width=".3985" stroke-linecap="butt" stroke-miterlimit="10" stroke-linejoin="miter" fill="none" stroke="#0000ff" d="M 228.20723 95.44505 L 228.20723 59.16481 "/>
<path transform="matrix(0,1,1,0,256.83003,144.448)" stroke-width=".3985" stroke-linecap="butt" stroke-miterlimit="10" stroke-linejoin="miter" fill="none" stroke="#0000ff" d="M 0 1.99255 L 0 -1.99255 "/>
<path transform="matrix(0,1,1,0,256.83003,144.448)" stroke-width=".3985" stroke-linecap="butt" stroke-miterlimit="10" stroke-linejoin="miter" fill="none" stroke="#0000ff" d=""/>
<path transform="matrix(1,0,0,-1,28.625,203.612)" stroke-width=".3985" stroke-linecap="butt" stroke-miterlimit="10" stroke-linejoin="miter" fill="none" stroke="#0000ff" d="M 241.63118 112.57166 L 241.63118 141.77838 "/>
<path transform="matrix(0,-1,-1,-0,270.254,61.835008)" stroke-width=".3985" stroke-linecap="butt" stroke-miterlimit="10" stroke-linejoin="miter" fill="none" stroke="#0000ff" d="M 0 1.99255 L 0 -1.99255 "/>
<path transform="matrix(0,-1,-1,-0,270.254,61.835008)" stroke-width=".3985" stroke-linecap="butt" stroke-miterlimit="10" stroke-linejoin="miter" fill="none" stroke="#0000ff" d=""/>
<path transform="matrix(1,0,0,-1,28.625,203.612)" stroke-width=".3985" stroke-linecap="butt" stroke-miterlimit="10" stroke-linejoin="miter" fill="none" stroke="#0000ff" d="M 241.63118 112.57166 L 241.63118 83.36493 "/>
<path transform="matrix(0,1,1,0,270.253,120.248)" stroke-width=".3985" stroke-linecap="butt" stroke-miterlimit="10" stroke-linejoin="miter" fill="none" stroke="#0000ff" d="M 0 1.99255 L 0 -1.99255 "/>
<path transform="matrix(0,1,1,0,270.253,120.248)" stroke-width=".3985" stroke-linecap="butt" stroke-miterlimit="10" stroke-linejoin="miter" fill="none" stroke="#0000ff" d=""/>
<path transform="matrix(1,0,0,-1,28.625,203.612)" stroke-width=".3985" stroke-linecap="butt" stroke-miterlimit="10" stroke-linejoin="miter" fill="none" stroke="#0000ff" d="M 255.05513 123.00139 L 255.05513 165.39986 "/>
<path transform="matrix(0,-1,-1,-0,283.677,38.214006)" stroke-width=".3985" stroke-linecap="butt" stroke-miterlimit="10" stroke-linejoin="miter" fill="none" stroke="#0000ff" d="M 0 1.99255 L 0 -1.99255 "/>
<path transform="matrix(0,-1,-1,-0,283.677,38.214006)" stroke-width=".3985" stroke-linecap="butt" stroke-miterlimit="10" stroke-linejoin="miter" fill="none" stroke="#0000ff" d=""/>
<path transform="matrix(1,0,0,-1,28.625,203.612)" stroke-width=".3985" stroke-linecap="butt" stroke-miterlimit="10" stroke-linejoin="miter" fill="none" stroke="#0000ff" d="M 255.05513 123.00139 L 255.05513 80.60294 "/>
<path transform="matrix(0,1,1,0,283.67604,123.01)" stroke-width=".3985" stroke-linecap="butt" stroke-miterlimit="10" stroke-linejoin="miter" fill="none" stroke="#0000ff" d="M 0 1.99255 L 0 -1.99255 "/>
<path transform="matrix(0,1,1,0,283.67604,123.01)" stroke-width=".3985" stroke-linecap="butt" stroke-miterlimit="10" stroke-linejoin="miter" fill="none" stroke="#0000ff" d=""/>
<path transform="matrix(1,0,0,-1,28.625,203.612)" stroke-width=".3985" stroke-linecap="butt" stroke-miterlimit="10" stroke-linejoin="miter" fill="none" stroke="#0000ff" d="M 268.4791 148.53867 L 268.4791 164.66014 "/>
<path transform="matrix(0,-1,-1,-0,297.09999,38.953996)" stroke-width=".3985" stroke-linecap="butt" stroke-miterlimit="10" stroke-linejoin="miter" fill="none" stroke="#0000ff" d="M 0 1.99255 L 0 -1.99255 "/>
<path transform="matrix(0,-1,-1,-0,297.09999,38.953996)" stroke-width=".3985" stroke-linecap="butt" stroke-miterlimit="10" stroke-linejoin="miter" fill="none" stroke="#0000ff" d=""/>
<path transform="matrix(1,0,0,-1,28.625,203.612)" stroke-width=".3985" stroke-linecap="butt" stroke-miterlimit="10" stroke-linejoin="miter" fill="none" stroke="#0000ff" d="M 268.4791 148.53867 L 268.4791 132.41718 "/>
<path transform="matrix(0,1,1,0,297.101,71.19701)" stroke-width=".3985" stroke-linecap="butt" stroke-miterlimit="10" stroke-linejoin="miter" fill="none" stroke="#0000ff" d="M 0 1.99255 L 0 -1.99255 "/>
<path transform="matrix(0,1,1,0,297.101,71.19701)" stroke-width=".3985" stroke-linecap="butt" stroke-miterlimit="10" stroke-linejoin="miter" fill="none" stroke="#0000ff" d=""/>
<path transform="matrix(1,0,0,-1,28.625,203.612)" stroke-width=".3985" stroke-linecap="butt" stroke-miterlimit="10" stroke-linejoin="miter" fill="none" stroke="#0000ff" d=""/>
</g>
<path transform="matrix(1,0,0,-1,28.625,203.612)" d="M 15.4165 .86313 C 15.4165 1.96361 14.52441 2.85568 13.42395 2.85568 C 12.32347 2.85568 11.4314 1.96361 11.4314 .86313 C 11.4314 -.23732 12.32347 -1.12941 13.42395 -1.12941 C 14.52441 -1.12941 15.4165 -.23732 15.4165 .86313 Z M 13.42395 .86313 " fill="#0000cc"/>
<path transform="matrix(1,0,0,-1,28.625,203.612)" stroke-width=".3985" stroke-linecap="butt" stroke-miterlimit="10" stroke-linejoin="miter" fill="none" stroke="#0000ff" d="M 15.4165 .86313 C 15.4165 1.96361 14.52441 2.85568 13.42395 2.85568 C 12.32347 2.85568 11.4314 1.96361 11.4314 .86313 C 11.4314 -.23732 12.32347 -1.12941 13.42395 -1.12941 C 14.52441 -1.12941 15.4165 -.23732 15.4165 .86313 Z M 13.42395 .86313 "/>
<path transform="matrix(1,0,0,-1,28.625,203.612)" d="M 28.84045 2.195 C 28.84045 3.29547 27.94838 4.18756 26.8479 4.18756 C 25.74744 4.18756 24.85535 3.29547 24.85535 2.195 C 24.85535 1.09453 25.74744 .20245 26.8479 .20245 C 27.94838 .20245 28.84045 1.09453 28.84045 2.195 Z M 26.8479 2.195 " fill="#0000cc"/>
<path transform="matrix(1,0,0,-1,28.625,203.612)" stroke-width=".3985" stroke-linecap="butt" stroke-miterlimit="10" stroke-linejoin="miter" fill="none" stroke="#0000ff" d="M 28.84045 2.195 C 28.84045 3.29547 27.94838 4.18756 26.8479 4.18756 C 25.74744 4.18756 24.85535 3.29547 24.85535 2.195 C 24.85535 1.09453 25.74744 .20245 26.8479 .20245 C 27.94838 .20245 28.84045 1.09453 28.84045 2.195 Z M 26.8479 2.195 "/>
<path transform="matrix(1,0,0,-1,28.625,203.612)" d="M 42.2644 4.8029 C 42.2644 5.90338 41.37233 6.79546 40.27185 6.79546 C 39.17139 6.79546 38.2793 5.90338 38.2793 4.8029 C 38.2793 3.70244 39.17139 2.81035 40.27185 2.81035 C 41.37233 2.81035 42.2644 3.70244 42.2644 4.8029 Z M 40.27185 4.8029 " fill="#0000cc"/>
<path transform="matrix(1,0,0,-1,28.625,203.612)" stroke-width=".3985" stroke-linecap="butt" stroke-miterlimit="10" stroke-linejoin="miter" fill="none" stroke="#0000ff" d="M 42.2644 4.8029 C 42.2644 5.90338 41.37233 6.79546 40.27185 6.79546 C 39.17139 6.79546 38.2793 5.90338 38.2793 4.8029 C 38.2793 3.70244 39.17139 2.81035 40.27185 2.81035 C 41.37233 2.81035 42.2644 3.70244 42.2644 4.8029 Z M 40.27185 4.8029 "/>
<path transform="matrix(1,0,0,-1,28.625,203.612)" d="M 55.68837 8.60359 C 55.68837 9.70407 54.79628 10.59615 53.69582 10.59615 C 52.59534 10.59615 51.70326 9.70407 51.70326 8.60359 C 51.70326 7.50313 52.59534 6.61104 53.69582 6.61104 C 54.79628 6.61104 55.68837 7.50313 55.68837 8.60359 Z M 53.69582 8.60359 " fill="#0000cc"/>
<path transform="matrix(1,0,0,-1,28.625,203.612)" stroke-width=".3985" stroke-linecap="butt" stroke-miterlimit="10" stroke-linejoin="miter" fill="none" stroke="#0000ff" d="M 55.68837 8.60359 C 55.68837 9.70407 54.79628 10.59615 53.69582 10.59615 C 52.59534 10.59615 51.70326 9.70407 51.70326 8.60359 C 51.70326 7.50313 52.59534 6.61104 53.69582 6.61104 C 54.79628 6.61104 55.68837 7.50313 55.68837 8.60359 Z M 53.69582 8.60359 "/>
<path transform="matrix(1,0,0,-1,28.625,203.612)" d="M 69.11232 13.05089 C 69.11232 14.15137 68.22025 15.04344 67.11977 15.04344 C 66.0193 15.04344 65.12721 14.15137 65.12721 13.05089 C 65.12721 11.95042 66.0193 11.05833 67.11977 11.05833 C 68.22025 11.05833 69.11232 11.95042 69.11232 13.05089 Z M 67.11977 13.05089 " fill="#0000cc"/>
<path transform="matrix(1,0,0,-1,28.625,203.612)" stroke-width=".3985" stroke-linecap="butt" stroke-miterlimit="10" stroke-linejoin="miter" fill="none" stroke="#0000ff" d="M 69.11232 13.05089 C 69.11232 14.15137 68.22025 15.04344 67.11977 15.04344 C 66.0193 15.04344 65.12721 14.15137 65.12721 13.05089 C 65.12721 11.95042 66.0193 11.05833 67.11977 11.05833 C 68.22025 11.05833 69.11232 11.95042 69.11232 13.05089 Z M 67.11977 13.05089 "/>
<path transform="matrix(1,0,0,-1,28.625,203.612)" d="M 82.53627 15.05533 C 82.53627 16.1558 81.6442 17.04788 80.54372 17.04788 C 79.44325 17.04788 78.55116 16.1558 78.55116 15.05533 C 78.55116 13.95486 79.44325 13.06277 80.54372 13.06277 C 81.6442 13.06277 82.53627 13.95486 82.53627 15.05533 Z M 80.54372 15.05533 " fill="#0000cc"/>
<path transform="matrix(1,0,0,-1,28.625,203.612)" stroke-width=".3985" stroke-linecap="butt" stroke-miterlimit="10" stroke-linejoin="miter" fill="none" stroke="#0000ff" d="M 82.53627 15.05533 C 82.53627 16.1558 81.6442 17.04788 80.54372 17.04788 C 79.44325 17.04788 78.55116 16.1558 78.55116 15.05533 C 78.55116 13.95486 79.44325 13.06277 80.54372 13.06277 C 81.6442 13.06277 82.53627 13.95486 82.53627 15.05533 Z M 80.54372 15.05533 "/>
<path transform="matrix(1,0,0,-1,28.625,203.612)" d="M 95.96024 20.67447 C 95.96024 21.77495 95.06815 22.66702 93.96768 22.66702 C 92.8672 22.66702 91.97513 21.77495 91.97513 20.67447 C 91.97513 19.574 92.8672 18.68192 93.96768 18.68192 C 95.06815 18.68192 95.96024 19.574 95.96024 20.67447 Z M 93.96768 20.67447 " fill="#0000cc"/>
<path transform="matrix(1,0,0,-1,28.625,203.612)" stroke-width=".3985" stroke-linecap="butt" stroke-miterlimit="10" stroke-linejoin="miter" fill="none" stroke="#0000ff" d="M 95.96024 20.67447 C 95.96024 21.77495 95.06815 22.66702 93.96768 22.66702 C 92.8672 22.66702 91.97513 21.77495 91.97513 20.67447 C 91.97513 19.574 92.8672 18.68192 93.96768 18.68192 C 95.06815 18.68192 95.96024 19.574 95.96024 20.67447 Z M 93.96768 20.67447 "/>
<path transform="matrix(1,0,0,-1,28.625,203.612)" d="M 109.38419 25.28442 C 109.38419 26.3849 108.4921 27.27698 107.39163 27.27698 C 106.29117 27.27698 105.39908 26.3849 105.39908 25.28442 C 105.39908 24.18396 106.29117 23.29187 107.39163 23.29187 C 108.4921 23.29187 109.38419 24.18396 109.38419 25.28442 Z M 107.39163 25.28442 " fill="#0000cc"/>
<path transform="matrix(1,0,0,-1,28.625,203.612)" stroke-width=".3985" stroke-linecap="butt" stroke-miterlimit="10" stroke-linejoin="miter" fill="none" stroke="#0000ff" d="M 109.38419 25.28442 C 109.38419 26.3849 108.4921 27.27698 107.39163 27.27698 C 106.29117 27.27698 105.39908 26.3849 105.39908 25.28442 C 105.39908 24.18396 106.29117 23.29187 107.39163 23.29187 C 108.4921 23.29187 109.38419 24.18396 109.38419 25.28442 Z M 107.39163 25.28442 "/>
<path transform="matrix(1,0,0,-1,28.625,203.612)" d="M 122.80814 30.98256 C 122.80814 32.08302 121.91606 32.97511 120.81558 32.97511 C 119.71512 32.97511 118.82303 32.08302 118.82303 30.98256 C 118.82303 29.88208 119.71512 28.99 120.81558 28.99 C 121.91606 28.99 122.80814 29.88208 122.80814 30.98256 Z M 120.81558 30.98256 " fill="#0000cc"/>
<path transform="matrix(1,0,0,-1,28.625,203.612)" stroke-width=".3985" stroke-linecap="butt" stroke-miterlimit="10" stroke-linejoin="miter" fill="none" stroke="#0000ff" d="M 122.80814 30.98256 C 122.80814 32.08302 121.91606 32.97511 120.81558 32.97511 C 119.71512 32.97511 118.82303 32.08302 118.82303 30.98256 C 118.82303 29.88208 119.71512 28.99 120.81558 28.99 C 121.91606 28.99 122.80814 29.88208 122.80814 30.98256 Z M 120.81558 30.98256 "/>
<path transform="matrix(1,0,0,-1,28.625,203.612)" d="M 136.2321 39.33774 C 136.2321 40.43822 135.34001 41.33029 134.23955 41.33029 C 133.13907 41.33029 132.247 40.43822 132.247 39.33774 C 132.247 38.23727 133.13907 37.34518 134.23955 37.34518 C 135.34001 37.34518 136.2321 38.23727 136.2321 39.33774 Z M 134.23955 39.33774 " fill="#0000cc"/>
<path transform="matrix(1,0,0,-1,28.625,203.612)" stroke-width=".3985" stroke-linecap="butt" stroke-miterlimit="10" stroke-linejoin="miter" fill="none" stroke="#0000ff" d="M 136.2321 39.33774 C 136.2321 40.43822 135.34001 41.33029 134.23955 41.33029 C 133.13907 41.33029 132.247 40.43822 132.247 39.33774 C 132.247 38.23727 133.13907 37.34518 134.23955 37.34518 C 135.34001 37.34518 136.2321 38.23727 136.2321 39.33774 Z M 134.23955 39.33774 "/>
<path transform="matrix(1,0,0,-1,28.625,203.612)" d="M 149.65605 61.75648 C 149.65605 62.85695 148.76396 63.74904 147.6635 63.74904 C 146.56302 63.74904 145.67095 62.85695 145.67095 61.75648 C 145.67095 60.656 146.56302 59.76393 147.6635 59.76393 C 148.76396 59.76393 149.65605 60.656 149.65605 61.75648 Z M 147.6635 61.75648 " fill="#0000cc"/>
<path transform="matrix(1,0,0,-1,28.625,203.612)" stroke-width=".3985" stroke-linecap="butt" stroke-miterlimit="10" stroke-linejoin="miter" fill="none" stroke="#0000ff" d="M 149.65605 61.75648 C 149.65605 62.85695 148.76396 63.74904 147.6635 63.74904 C 146.56302 63.74904 145.67095 62.85695 145.67095 61.75648 C 145.67095 60.656 146.56302 59.76393 147.6635 59.76393 C 148.76396 59.76393 149.65605 60.656 149.65605 61.75648 Z M 147.6635 61.75648 "/>
<path transform="matrix(1,0,0,-1,28.625,203.612)" d="M 163.08 57.79915 C 163.08 58.89961 162.18793 59.7917 161.08745 59.7917 C 159.98699 59.7917 159.0949 58.89961 159.0949 57.79915 C 159.0949 56.69867 159.98699 55.8066 161.08745 55.8066 C 162.18793 55.8066 163.08 56.69867 163.08 57.79915 Z M 161.08745 57.79915 " fill="#0000cc"/>
<path transform="matrix(1,0,0,-1,28.625,203.612)" stroke-width=".3985" stroke-linecap="butt" stroke-miterlimit="10" stroke-linejoin="miter" fill="none" stroke="#0000ff" d="M 163.08 57.79915 C 163.08 58.89961 162.18793 59.7917 161.08745 59.7917 C 159.98699 59.7917 159.0949 58.89961 159.0949 57.79915 C 159.0949 56.69867 159.98699 55.8066 161.08745 55.8066 C 162.18793 55.8066 163.08 56.69867 163.08 57.79915 Z M 161.08745 57.79915 "/>
<path transform="matrix(1,0,0,-1,28.625,203.612)" d="M 176.50397 62.88684 C 176.50397 63.9873 175.61188 64.8794 174.51142 64.8794 C 173.41094 64.8794 172.51886 63.9873 172.51886 62.88684 C 172.51886 61.78636 173.41094 60.89429 174.51142 60.89429 C 175.61188 60.89429 176.50397 61.78636 176.50397 62.88684 Z M 174.51142 62.88684 " fill="#0000cc"/>
<path transform="matrix(1,0,0,-1,28.625,203.612)" stroke-width=".3985" stroke-linecap="butt" stroke-miterlimit="10" stroke-linejoin="miter" fill="none" stroke="#0000ff" d="M 176.50397 62.88684 C 176.50397 63.9873 175.61188 64.8794 174.51142 64.8794 C 173.41094 64.8794 172.51886 63.9873 172.51886 62.88684 C 172.51886 61.78636 173.41094 60.89429 174.51142 60.89429 C 175.61188 60.89429 176.50397 61.78636 176.50397 62.88684 Z M 174.51142 62.88684 "/>
<path transform="matrix(1,0,0,-1,28.625,203.612)" d="M 189.92792 69.5927 C 189.92792 70.69318 189.03583 71.58525 187.93537 71.58525 C 186.83489 71.58525 185.94281 70.69318 185.94281 69.5927 C 185.94281 68.49223 186.83489 67.60014 187.93537 67.60014 C 189.03583 67.60014 189.92792 68.49223 189.92792 69.5927 Z M 187.93537 69.5927 " fill="#0000cc"/>
<path transform="matrix(1,0,0,-1,28.625,203.612)" stroke-width=".3985" stroke-linecap="butt" stroke-miterlimit="10" stroke-linejoin="miter" fill="none" stroke="#0000ff" d="M 189.92792 69.5927 C 189.92792 70.69318 189.03583 71.58525 187.93537 71.58525 C 186.83489 71.58525 185.94281 70.69318 185.94281 69.5927 C 185.94281 68.49223 186.83489 67.60014 187.93537 67.60014 C 189.03583 67.60014 189.92792 68.49223 189.92792 69.5927 Z M 187.93537 69.5927 "/>
<path transform="matrix(1,0,0,-1,28.625,203.612)" d="M 203.35187 78.86461 C 203.35187 79.96507 202.4598 80.85716 201.35932 80.85716 C 200.25885 80.85716 199.36676 79.96507 199.36676 78.86461 C 199.36676 77.76413 200.25885 76.87206 201.35932 76.87206 C 202.4598 76.87206 203.35187 77.76413 203.35187 78.86461 Z M 201.35932 78.86461 " fill="#0000cc"/>
<path transform="matrix(1,0,0,-1,28.625,203.612)" stroke-width=".3985" stroke-linecap="butt" stroke-miterlimit="10" stroke-linejoin="miter" fill="none" stroke="#0000ff" d="M 203.35187 78.86461 C 203.35187 79.96507 202.4598 80.85716 201.35932 80.85716 C 200.25885 80.85716 199.36676 79.96507 199.36676 78.86461 C 199.36676 77.76413 200.25885 76.87206 201.35932 76.87206 C 202.4598 76.87206 203.35187 77.76413 203.35187 78.86461 Z M 201.35932 78.86461 "/>
<path transform="matrix(1,0,0,-1,28.625,203.612)" d="M 216.77584 88.83636 C 216.77584 89.93684 215.88375 90.82892 214.78328 90.82892 C 213.6828 90.82892 212.79073 89.93684 212.79073 88.83636 C 212.79073 87.7359 213.6828 86.84381 214.78328 86.84381 C 215.88375 86.84381 216.77584 87.7359 216.77584 88.83636 Z M 214.78328 88.83636 " fill="#0000cc"/>
<path transform="matrix(1,0,0,-1,28.625,203.612)" stroke-width=".3985" stroke-linecap="butt" stroke-miterlimit="10" stroke-linejoin="miter" fill="none" stroke="#0000ff" d="M 216.77584 88.83636 C 216.77584 89.93684 215.88375 90.82892 214.78328 90.82892 C 213.6828 90.82892 212.79073 89.93684 212.79073 88.83636 C 212.79073 87.7359 213.6828 86.84381 214.78328 86.84381 C 215.88375 86.84381 216.77584 87.7359 216.77584 88.83636 Z M 214.78328 88.83636 "/>
<path transform="matrix(1,0,0,-1,28.625,203.612)" d="M 230.19979 95.44505 C 230.19979 96.54552 229.3077 97.4376 228.20723 97.4376 C 227.10675 97.4376 226.21468 96.54552 226.21468 95.44505 C 226.21468 94.34457 227.10675 93.4525 228.20723 93.4525 C 229.3077 93.4525 230.19979 94.34457 230.19979 95.44505 Z M 228.20723 95.44505 " fill="#0000cc"/>
<path transform="matrix(1,0,0,-1,28.625,203.612)" stroke-width=".3985" stroke-linecap="butt" stroke-miterlimit="10" stroke-linejoin="miter" fill="none" stroke="#0000ff" d="M 230.19979 95.44505 C 230.19979 96.54552 229.3077 97.4376 228.20723 97.4376 C 227.10675 97.4376 226.21468 96.54552 226.21468 95.44505 C 226.21468 94.34457 227.10675 93.4525 228.20723 93.4525 C 229.3077 93.4525 230.19979 94.34457 230.19979 95.44505 Z M 228.20723 95.44505 "/>
<path transform="matrix(1,0,0,-1,28.625,203.612)" d="M 243.62374 112.57166 C 243.62374 113.67213 242.73166 114.56421 241.63118 114.56421 C 240.53072 114.56421 239.63863 113.67213 239.63863 112.57166 C 239.63863 111.47119 240.53072 110.5791 241.63118 110.5791 C 242.73166 110.5791 243.62374 111.47119 243.62374 112.57166 Z M 241.63118 112.57166 " fill="#0000cc"/>
<path transform="matrix(1,0,0,-1,28.625,203.612)" stroke-width=".3985" stroke-linecap="butt" stroke-miterlimit="10" stroke-linejoin="miter" fill="none" stroke="#0000ff" d="M 243.62374 112.57166 C 243.62374 113.67213 242.73166 114.56421 241.63118 114.56421 C 240.53072 114.56421 239.63863 113.67213 239.63863 112.57166 C 239.63863 111.47119 240.53072 110.5791 241.63118 110.5791 C 242.73166 110.5791 243.62374 111.47119 243.62374 112.57166 Z M 241.63118 112.57166 "/>
<path transform="matrix(1,0,0,-1,28.625,203.612)" d="M 257.04768 123.00139 C 257.04768 124.10185 256.1556 124.99394 255.05513 124.99394 C 253.95467 124.99394 253.06258 124.10185 253.06258 123.00139 C 253.06258 121.90092 253.95467 121.00883 255.05513 121.00883 C 256.1556 121.00883 257.04768 121.90092 257.04768 123.00139 Z M 255.05513 123.00139 " fill="#0000cc"/>
<path transform="matrix(1,0,0,-1,28.625,203.612)" stroke-width=".3985" stroke-linecap="butt" stroke-miterlimit="10" stroke-linejoin="miter" fill="none" stroke="#0000ff" d="M 257.04768 123.00139 C 257.04768 124.10185 256.1556 124.99394 255.05513 124.99394 C 253.95467 124.99394 253.06258 124.10185 253.06258 123.00139 C 253.06258 121.90092 253.95467 121.00883 255.05513 121.00883 C 256.1556 121.00883 257.04768 121.90092 257.04768 123.00139 Z M 255.05513 123.00139 "/>
<path transform="matrix(1,0,0,-1,28.625,203.612)" d="M 270.47166 148.53867 C 270.47166 149.63913 269.57957 150.53122 268.4791 150.53122 C 267.37864 150.53122 266.48655 149.63913 266.48655 148.53867 C 266.48655 147.43819 267.37864 146.54611 268.4791 146.54611 C 269.57957 146.54611 270.47166 147.43819 270.47166 148.53867 Z M 268.4791 148.53867 " fill="#0000cc"/>
<path transform="matrix(1,0,0,-1,28.625,203.612)" stroke-width=".3985" stroke-linecap="butt" stroke-miterlimit="10" stroke-linejoin="miter" fill="none" stroke="#0000ff" d="M 270.47166 148.53867 C 270.47166 149.63913 269.57957 150.53122 268.4791 150.53122 C 267.37864 150.53122 266.48655 149.63913 266.48655 148.53867 C 266.48655 147.43819 267.37864 146.54611 268.4791 146.54611 C 269.57957 146.54611 270.47166 147.43819 270.47166 148.53867 Z M 268.4791 148.53867 "/>
<path transform="matrix(1,0,0,-1,28.625,203.612)" stroke-width=".3985" stroke-linecap="butt" stroke-miterlimit="10" stroke-linejoin="miter" fill="none" stroke="#0000ff" d=""/>
<text xml:space="preserve" transform="matrix(1 0 -0 1 0 233.676)" font-size="9.9626" font-family="CMR10"><tspan y="-5.812" x="130.058 137.66942 140.43903 145.42032 148.18993 152.06539 159.3082 163.18366 165.95326 174.81998 178.69544 184.23464 189.21593 194.74517 198.68039 203.66168 209.20088 214.73012 218.66535">Digits(inthousands)</tspan></text>
<text xml:space="preserve" transform="matrix(0 -1 1 0 112.979999 142.282)" font-size="9.9626" font-family="CMR10"><tspan y="-102.187" x="10.793 17.985999 20.755602 29.054448 36.795389 40.670839 44.596105">Time(s)</tspan></text>
<text xml:space="preserve" transform="matrix(1 0 -0 1 0 233.676)" font-size="9.9626" font-family="CMR10"><tspan y="-223.437" x="95.908 103.6589 108.6402 112.54554 117.52684 121.40229 125.32755 130.86676 136.40596 144.7048 148.63007 153.89032 157.79566 164.99863 168.04718 173.02848 180.25136 185.79056 194.64731 198.52277 206.82161 211.8029 216.7842 221.76549 232.8439 238.3831 241.15271 246.134 248.90361 252.77907">Karatsubasqrtforupto100Kdigits</tspan></text>
<path transform="matrix(1,0,0,-1,28.625,203.612)" d="M 304.38737 165.35845 L 384.08964 165.35845 L 384.08964 181.74158 L 304.38737 181.74158 Z " fill="#ffffff"/>
<path transform="matrix(1,0,0,-1,28.625,203.612)" stroke-width=".3985" stroke-linecap="butt" stroke-miterlimit="10" stroke-linejoin="miter" fill="none" stroke="#000000" d="M 304.38737 165.35845 L 384.08964 165.35845 L 384.08964 181.74158 L 304.38737 181.74158 Z "/>
<path transform="matrix(1,0,0,-1,329.48603,30.063996)" stroke-width=".3985" stroke-linecap="butt" stroke-miterlimit="10" stroke-linejoin="miter" fill="none" stroke="#0000ff" d=""/>
<path transform="matrix(1,0,0,-1,329.48603,30.063996)" d="M 10.49667 0 C 10.49667 1.10046 9.60458 1.99255 8.50412 1.99255 C 7.40364 1.99255 6.51157 1.10046 6.51157 0 C 6.51157 -1.10046 7.40364 -1.99255 8.50412 -1.99255 C 9.60458 -1.99255 10.49667 -1.10046 10.49667 0 Z M 8.50412 0 " fill="#0000cc"/>
<path transform="matrix(1,0,0,-1,329.48603,30.063996)" stroke-width=".3985" stroke-linecap="butt" stroke-miterlimit="10" stroke-linejoin="miter" fill="none" stroke="#0000ff" d="M 10.49667 0 C 10.49667 1.10046 9.60458 1.99255 8.50412 1.99255 C 7.40364 1.99255 6.51157 1.10046 6.51157 0 C 6.51157 -1.10046 7.40364 -1.99255 8.50412 -1.99255 C 9.60458 -1.99255 10.49667 -1.10046 10.49667 0 Z M 8.50412 0 "/>
<text xml:space="preserve" transform="matrix(1 0 -0 1 .000030517579 233.676)" font-size="9.9626" font-family="CMR10"><tspan y="-200.9" x="341.975 349.72593 354.7072 358.61256 363.59385 367.4693 371.39457 376.93379 382.473 387.45429 390.77183 394.69709 399.95735 403.86268">Karatsuba-sqrt</tspan></text>
</g>
</svg>
